<?xml version="1.0" encoding="utf-8"?>
<!-- Generator: Adobe Illustrator 19.0.0, SVG Export Plug-In . SVG Version: 6.00 Build 0)  -->
<svg version="1.1" id="Ebene_1" xmlns="http://www.w3.org/2000/svg" xmlns:xlink="http://www.w3.org/1999/xlink" x="0px" y="0px"
	 viewBox="0 0 960 560" style="enable-background:new 0 0 960 560;" xml:space="preserve">
<style type="text/css">
	.st0{fill:none;stroke:#000000;stroke-miterlimit:10;}
	.st1{fill:#FFFFFF;stroke:#000000;stroke-miterlimit:10;}
	.st2{fill:none;stroke:#000000;stroke-width:2;stroke-miterlimit:10;}
	.st3{stroke:#000000;stroke-miterlimit:10;}
</style>
<line id="XMLID_14_" class="st0" x1="182" y1="451" x2="480" y2="281"/>
<circle id="XMLID_1_" class="st1" cx="148" cy="112" r="34"/>
<circle id="XMLID_2_" class="st1" cx="148" cy="451" r="34"/>
<circle id="XMLID_3_" class="st1" cx="148" cy="315" r="34"/>
<circle id="XMLID_4_" class="st1" cx="148" cy="214" r="34"/>
<line id="XMLID_11_" class="st0" x1="182" y1="120" x2="480" y2="281"/>
<line id="XMLID_12_" class="st0" x1="182" y1="214" x2="480" y2="281"/>
<line id="XMLID_13_" class="st0" x1="182" y1="315" x2="480" y2="281"/>
<circle id="XMLID_15_" class="st1" cx="299.5" cy="182.5" r="23.5"/>
<circle id="XMLID_16_" class="st1" cx="299.5" cy="243.5" r="23.5"/>
<circle id="XMLID_17_" class="st1" cx="299.5" cy="304.5" r="23.5"/>
<circle id="XMLID_18_" class="st1" cx="299.5" cy="382.5" r="23.5"/>
<circle id="XMLID_5_" class="st1" cx="534.5" cy="281.5" r="54.5"/>
<circle id="XMLID_6_" class="st1" cx="838.5" cy="281.5" r="54.5"/>
<circle id="XMLID_7_" class="st1" cx="685.5" cy="281.5" r="54.5"/>
<rect id="XMLID_8_" x="495" y="78" class="st1" width="188" height="58"/>
<g id="XMLID_9_">
	<path id="XMLID_89_" d="M145.8,103.2L145.8,103.2l-4.3,2.3l-0.6-2.5l5.3-2.9h2.8v24.4h-3.2V103.2z"/>
</g>
<g id="XMLID_10_">
	<path id="XMLID_87_" d="M143.7,206.1l2.6,3.9c0.7,1,1.2,2,1.8,3h0.1c0.6-1.1,1.2-2,1.8-3l2.6-3.9h3.6l-6.2,8.8l6.4,9.4h-3.8
		l-2.7-4.1c-0.7-1-1.3-2.1-2-3.2h-0.1c-0.6,1.1-1.2,2.1-1.9,3.2l-2.6,4.1h-3.6l6.5-9.3l-6.2-8.9H143.7z"/>
</g>
<g id="XMLID_19_">
	<path id="XMLID_85_" d="M143.7,304.6l2.6,3.9c0.7,1,1.2,2,1.8,3h0.1c0.6-1.1,1.2-2,1.8-3l2.6-3.9h3.6l-6.2,8.8l6.4,9.4h-3.8
		l-2.7-4.1c-0.7-1-1.3-2.1-2-3.2h-0.1c-0.6,1.1-1.2,2.1-1.9,3.2l-2.6,4.1h-3.6l6.5-9.3l-6.2-8.9H143.7z"/>
</g>
<g id="XMLID_20_">
	<path id="XMLID_83_" d="M143.7,444.6l2.6,3.9c0.7,1,1.2,2,1.8,3h0.1c0.6-1.1,1.2-2,1.8-3l2.6-3.9h3.6l-6.2,8.8l6.4,9.4h-3.8
		l-2.7-4.1c-0.7-1-1.3-2.1-2-3.2h-0.1c-0.6,1.1-1.2,2.1-1.9,3.2l-2.6,4.1h-3.6l6.5-9.3l-6.2-8.9H143.7z"/>
</g>
<g id="XMLID_21_">
	<path id="XMLID_81_" d="M160.5,218.5L160.5,218.5l-1.7,0.9l-0.3-1l2.1-1.1h1.1v9.7h-1.3V218.5z"/>
</g>
<g id="XMLID_22_">
	<path id="XMLID_79_" d="M157.7,328v-0.8l1-1c2.5-2.4,3.6-3.6,3.6-5.1c0-1-0.5-1.9-1.9-1.9c-0.9,0-1.6,0.4-2.1,0.8l-0.4-0.9
		c0.7-0.6,1.6-1,2.8-1c2.1,0,3,1.4,3,2.8c0,1.8-1.3,3.3-3.4,5.2l-0.8,0.7v0h4.4v1.1H157.7z"/>
</g>
<g id="XMLID_23_">
	<path id="XMLID_77_" d="M158.1,462.2c0-0.8,0-1.4-0.1-2h1.2l0.1,1.2h0c0.4-0.7,1.1-1.3,2.3-1.3c1,0,1.7,0.6,2.1,1.5h0
		c0.2-0.4,0.5-0.7,0.8-0.9c0.4-0.3,0.9-0.5,1.6-0.5c1,0,2.4,0.6,2.4,3.2v4.3h-1.3v-4.1c0-1.4-0.5-2.2-1.6-2.2
		c-0.8,0-1.3,0.6-1.6,1.2c-0.1,0.2-0.1,0.4-0.1,0.7v4.5h-1.3v-4.3c0-1.2-0.5-2-1.5-2c-0.8,0-1.4,0.7-1.6,1.3
		c-0.1,0.2-0.1,0.4-0.1,0.6v4.4h-1.3V462.2z"/>
</g>
<g id="XMLID_24_">
	<path id="XMLID_75_" d="M293.4,175.9l1.7,6.6c0.4,1.5,0.7,2.8,1,4.2h0.1c0.3-1.3,0.7-2.7,1.2-4.1l2.1-6.7h2l2,6.5
		c0.5,1.6,0.9,2.9,1.2,4.3h0.1c0.2-1.3,0.6-2.7,1-4.2l1.9-6.6h2.3l-4.2,13.1h-2.2l-2-6.2c-0.5-1.5-0.8-2.8-1.2-4.3h-0.1
		c-0.3,1.6-0.7,2.9-1.2,4.3l-2.1,6.2h-2.2l-3.9-13.1H293.4z"/>
</g>
<g id="XMLID_25_">
	<path id="XMLID_73_" d="M293.4,379.4l1.7,6.6c0.4,1.5,0.7,2.8,1,4.2h0.1c0.3-1.3,0.7-2.7,1.2-4.1l2.1-6.7h2l2,6.5
		c0.5,1.6,0.9,2.9,1.2,4.3h0.1c0.2-1.3,0.6-2.7,1-4.2l1.9-6.6h2.3l-4.2,13.1h-2.2l-2-6.2c-0.5-1.5-0.8-2.8-1.2-4.3h-0.1
		c-0.3,1.6-0.7,2.9-1.2,4.3l-2.1,6.2h-2.2l-3.9-13.1H293.4z"/>
</g>
<g id="XMLID_26_">
	<path id="XMLID_71_" d="M293.4,301.9l1.7,6.6c0.4,1.5,0.7,2.8,1,4.2h0.1c0.3-1.3,0.7-2.7,1.2-4.1l2.1-6.7h2l2,6.5
		c0.5,1.6,0.9,2.9,1.2,4.3h0.1c0.2-1.3,0.6-2.7,1-4.2l1.9-6.6h2.3l-4.2,13.1h-2.2l-2-6.2c-0.5-1.5-0.8-2.8-1.2-4.3h-0.1
		c-0.3,1.6-0.7,2.9-1.2,4.3l-2.1,6.2h-2.2l-3.9-13.1H293.4z"/>
</g>
<g id="XMLID_27_">
	<path id="XMLID_69_" d="M293.4,237.4l1.7,6.6c0.4,1.5,0.7,2.8,1,4.2h0.1c0.3-1.3,0.7-2.7,1.2-4.1l2.1-6.7h2l2,6.5
		c0.5,1.6,0.9,2.9,1.2,4.3h0.1c0.2-1.3,0.6-2.7,1-4.2l1.9-6.6h2.3l-4.2,13.1h-2.2l-2-6.2c-0.5-1.5-0.8-2.8-1.2-4.3h-0.1
		c-0.3,1.6-0.7,2.9-1.2,4.3l-2.1,6.2h-2.2l-3.9-13.1H293.4z"/>
</g>
<g id="XMLID_28_">
	<path id="XMLID_66_" d="M312.2,189.5c0,2.7-1,4.1-2.7,4.1c-1.5,0-2.6-1.4-2.6-4c0-2.6,1.1-4.1,2.7-4.1
		C311.3,185.6,312.2,187,312.2,189.5z M308,189.6c0,2,0.6,3.2,1.6,3.2c1.1,0,1.6-1.3,1.6-3.3c0-1.9-0.5-3.2-1.6-3.2
		C308.7,186.4,308,187.5,308,189.6z"/>
</g>
<g id="XMLID_29_">
	<path id="XMLID_64_" d="M309.3,248.2L309.3,248.2l-1.4,0.7l-0.2-0.8l1.7-0.9h0.9v7.8h-1V248.2z"/>
</g>
<g id="XMLID_30_">
	<path id="XMLID_62_" d="M307,318v-0.6l0.8-0.8c2-1.9,2.9-2.9,2.9-4.1c0-0.8-0.4-1.5-1.5-1.5c-0.7,0-1.3,0.4-1.7,0.7l-0.3-0.7
		c0.5-0.5,1.3-0.8,2.2-0.8c1.7,0,2.4,1.2,2.4,2.3c0,1.4-1,2.6-2.7,4.2l-0.6,0.6v0h3.5v0.9H307z"/>
</g>
<g id="XMLID_31_">
	<path id="XMLID_60_" d="M307.4,391.3c0-0.6,0-1.1,0-1.6h0.9l0,0.9h0c0.3-0.6,0.9-1.1,1.8-1.1c0.8,0,1.4,0.5,1.6,1.2h0
		c0.2-0.3,0.4-0.6,0.6-0.8c0.3-0.3,0.7-0.4,1.3-0.4c0.8,0,1.9,0.5,1.9,2.5v3.4h-1v-3.3c0-1.1-0.4-1.8-1.3-1.8c-0.6,0-1.1,0.4-1.2,1
		c0,0.1-0.1,0.3-0.1,0.5v3.6h-1V392c0-0.9-0.4-1.6-1.2-1.6c-0.7,0-1.1,0.5-1.3,1.1c-0.1,0.2-0.1,0.3-0.1,0.5v3.5h-1V391.3z"/>
</g>
<line id="XMLID_32_" class="st0" x1="495" y1="107.5" x2="347" y2="107.5"/>
<line id="XMLID_33_" class="st0" x1="347" y1="107.5" x2="322.1" y2="142.6"/>
<polygon id="XMLID_34_" class="st0" points="322.1,142.6 327.9,146.7 319.1,152.9 310.3,159.1 313.3,148.8 316.3,138.4 "/>
<line id="XMLID_35_" class="st2" x1="565" y1="251" x2="504" y2="251"/>
<line id="XMLID_36_" class="st2" x1="504" y1="250.5" x2="539.4" y2="281.2"/>
<line id="XMLID_37_" class="st2" x1="539.4" y1="281.2" x2="507.1" y2="309.7"/>
<line id="XMLID_38_" class="st2" x1="507" y1="310" x2="565" y2="310"/>
<g id="XMLID_39_">
	<path id="XMLID_46_" d="M532.6,91.3h15.3v3.1h-11.6v9.4H547v3h-10.8v12.9h-3.7V91.3z"/>
	<path id="XMLID_48_" d="M553.8,110.2c0.1,5,3.3,7.1,7,7.1c2.7,0,4.3-0.5,5.6-1.1l0.6,2.7c-1.3,0.6-3.5,1.3-6.8,1.3
		c-6.3,0-10-4.1-10-10.3c0-6.2,3.6-11,9.6-11c6.7,0,8.4,5.9,8.4,9.6c0,0.8-0.1,1.3-0.1,1.7H553.8z M564.7,107.5c0-2.4-1-6-5.1-6
		c-3.8,0-5.4,3.5-5.7,6H564.7z"/>
	<path id="XMLID_51_" d="M572.8,89.8h3.7v12.7h0.1c0.6-1.1,1.5-2,2.7-2.6c1.1-0.6,2.4-1.1,3.8-1.1c2.7,0,7.1,1.7,7.1,8.7v12.1h-3.7
		V108c0-3.3-1.2-6.1-4.7-6.1c-2.4,0-4.3,1.7-5,3.7c-0.2,0.5-0.3,1.1-0.3,1.8v12.3h-3.7V89.8z"/>
	<path id="XMLID_53_" d="M596.2,89.8h3.7v29.9h-3.7V89.8z"/>
	<path id="XMLID_55_" d="M608.3,110.2c0.1,5,3.3,7.1,7,7.1c2.7,0,4.3-0.5,5.6-1.1l0.6,2.7c-1.3,0.6-3.5,1.3-6.8,1.3
		c-6.3,0-10-4.1-10-10.3c0-6.2,3.6-11,9.6-11c6.7,0,8.4,5.9,8.4,9.6c0,0.8-0.1,1.3-0.1,1.7H608.3z M619.1,107.5c0-2.4-1-6-5.1-6
		c-3.8,0-5.4,3.5-5.7,6H619.1z"/>
	<path id="XMLID_58_" d="M627.3,105.7c0-2.4,0-4.5-0.2-6.4h3.2l0.1,4h0.2c0.9-2.7,3.2-4.5,5.6-4.5c0.4,0,0.7,0,1.1,0.1v3.5
		c-0.4-0.1-0.8-0.1-1.3-0.1c-2.6,0-4.5,2-5,4.8c-0.1,0.5-0.2,1.1-0.2,1.7v10.9h-3.7V105.7z"/>
</g>
<line id="XMLID_40_" class="st3" x1="147.5" y1="371" x2="147.5" y2="375"/>
<line id="XMLID_41_" class="st0" x1="147.5" y1="381" x2="147.5" y2="385"/>
<line id="XMLID_42_" class="st3" x1="147.5" y1="393" x2="147.5" y2="397"/>
<line id="XMLID_43_" class="st3" x1="147.5" y1="361" x2="147.5" y2="365"/>
<line id="XMLID_44_" class="st3" x1="147.5" y1="402" x2="147.5" y2="406"/>
<g id="XMLID_45_">
</g>
<g id="XMLID_91_">
</g>
<g id="XMLID_92_">
</g>
<g id="XMLID_93_">
</g>
<g id="XMLID_94_">
</g>
<g id="XMLID_95_">
</g>
<g id="XMLID_96_">
</g>
<g id="XMLID_97_">
</g>
<g id="XMLID_98_">
</g>
<g id="XMLID_99_">
</g>
<g id="XMLID_100_">
</g>
<g id="XMLID_101_">
</g>
<g id="XMLID_102_">
</g>
<g id="XMLID_103_">
</g>
<g id="XMLID_104_">
</g>
</svg>
