<?xml version="1.0" encoding="utf-8"?>
<!-- Generator: Adobe Illustrator 19.0.0, SVG Export Plug-In . SVG Version: 6.00 Build 0)  -->
<svg version="1.1" id="Ebene_1" xmlns="http://www.w3.org/2000/svg" xmlns:xlink="http://www.w3.org/1999/xlink" x="0px" y="0px"
	 viewBox="0 0 960 560" style="enable-background:new 0 0 960 560;" xml:space="preserve">
<style type="text/css">
	.st0{fill:#FFFFFF;stroke:#000000;stroke-miterlimit:10;}
	.st1{fill:none;stroke:#000000;stroke-miterlimit:10;}
	.st2{fill:none;stroke:#0000FF;}
	.st3{enable-background:new    ;}
	.st4{opacity:0.75;}
	.st5{fill:#FFFFFF;}
	.st6{clip-path:url(#SVGID_2_);fill:none;stroke:#0000CC;stroke-miterlimit:10;}
	.st7{fill:none;stroke:#000000;stroke-width:1.25;stroke-linecap:square;stroke-linejoin:round;}
	.st8{opacity:0.5;fill:none;stroke:#888888;enable-background:new    ;}
	.st9{fill:none;stroke:#0000FF;stroke-dasharray:24,24;}
	.st10{fill:#FFFFFF;stroke:#0000FF;stroke-width:0.5;}
</style>
<g id="Ebene_1_1_">
	<circle id="XMLID_1_" class="st0" cx="129.6" cy="104.5" r="21.8"/>
	<circle id="XMLID_2_" class="st0" cx="500.6" cy="280.5" r="45.6"/>
	<circle id="XMLID_4_" class="st0" cx="292.6" cy="212.5" r="21.8"/>
	<circle id="XMLID_6_" class="st0" cx="129.6" cy="192.5" r="21.8"/>
	<circle id="XMLID_8_" class="st0" cx="129.6" cy="280.5" r="21.8"/>
	<circle id="XMLID_10_" class="st0" cx="129.6" cy="368.5" r="21.8"/>
	<circle id="XMLID_12_" class="st0" cx="129.6" cy="456.5" r="21.8"/>
	<circle id="XMLID_5_" class="st0" cx="292.6" cy="144.5" r="21.8"/>
	<circle id="XMLID_15_" class="st0" cx="292.6" cy="417.5" r="21.8"/>
	<circle id="XMLID_7_" class="st0" cx="292.6" cy="280.5" r="21.8"/>
	<circle id="XMLID_14_" class="st0" cx="292.6" cy="348.5" r="21.8"/>
	<line id="XMLID_9_" class="st1" x1="151.4" y1="104.5" x2="270.8" y2="144.5"/>
	<line id="XMLID_11_" class="st1" x1="151.4" y1="192.5" x2="270.8" y2="212.5"/>
	<line id="XMLID_16_" class="st1" x1="151" y1="280.5" x2="271" y2="280.5"/>
	<line id="XMLID_17_" class="st1" x1="151.4" y1="368.5" x2="270.8" y2="348.5"/>
	<line id="XMLID_18_" class="st1" x1="151.4" y1="456.5" x2="270.8" y2="417.5"/>
	<line id="XMLID_19_" class="st1" x1="314.4" y1="144.5" x2="455" y2="280.5"/>
	<line id="XMLID_20_" class="st1" x1="314.4" y1="212.5" x2="455" y2="280.5"/>
	<line id="XMLID_21_" class="st1" x1="314.4" y1="280.5" x2="455" y2="280.5"/>
	<line id="XMLID_22_" class="st1" x1="314.4" y1="348.5" x2="455" y2="280.5"/>
	<line id="XMLID_23_" class="st1" x1="314.4" y1="417.5" x2="455" y2="280.5"/>
	<circle id="XMLID_24_" class="st0" cx="634.6" cy="280.5" r="45.6"/>
	<circle id="XMLID_26_" class="st0" cx="768.6" cy="280.5" r="45.6"/>
	<line id="XMLID_3_" class="st1" x1="546" y1="280.5" x2="589" y2="280.5"/>
	<line id="XMLID_13_" class="st1" x1="680" y1="280.5" x2="723" y2="280.5"/>
	<line id="XMLID_25_" class="st1" x1="814.1" y1="280.5" x2="867.3" y2="280"/>
	<line id="XMLID_27_" class="st1" x1="701.5" y1="280" x2="701.5" y2="111"/>
	<line id="XMLID_28_" class="st1" x1="701" y1="111.5" x2="620" y2="111.5"/>
	<rect id="XMLID_29_" x="489.4" y="82.7" class="st1" width="130.6" height="54.8"/>
	<line id="XMLID_30_" class="st1" x1="489" y1="111.5" x2="392" y2="111.5"/>
	<line id="XMLID_31_" class="st1" x1="392" y1="111.5" x2="341.3" y2="122.7"/>
	<polygon id="XMLID_32_" class="st1" points="327.4,125.1 340.2,116.5 342.4,128.8 	"/>
	<polygon id="XMLID_33_" class="st1" points="881.4,280 867.3,286.2 867.3,273.8 	"/>
	<circle id="XMLID_51_" cx="291.8" cy="374.9" r="2"/>
	<circle id="XMLID_49_" cx="291.8" cy="382.7" r="2"/>
	<circle id="XMLID_48_" cx="291.8" cy="390.4" r="2"/>
	<circle id="XMLID_53_" cx="129.8" cy="412.9" r="2"/>
	<circle id="XMLID_52_" cx="129.8" cy="420.7" r="2"/>
	<circle id="XMLID_50_" cx="129.8" cy="428.4" r="2"/>
	<circle id="XMLID_54_" cx="129.8" cy="404.9" r="2"/>
	<circle id="XMLID_55_" cx="129.8" cy="396.9" r="2"/>
</g>
<g id="Ebene_2">
	<line id="XMLID_73_" class="st2" x1="769.5" y1="263" x2="769.5" y2="302"/>
	<g id="XMLID_34_" class="st3">
		<path d="M519,122.7v-19.1h2.5v9.5l9.5-9.5h3.4l-8,7.8l8.4,11.4h-3.3l-6.8-9.7l-3.1,3.1v6.6H519z"/>
		<path d="M535.7,115.7c0-2.6,0.7-4.5,2.1-5.7c1.2-1,2.6-1.5,4.4-1.5c1.9,0,3.5,0.6,4.7,1.9c1.2,1.3,1.8,3,1.8,5.2
			c0,1.8-0.3,3.2-0.8,4.2c-0.5,1-1.3,1.8-2.3,2.4c-1,0.6-2.1,0.8-3.4,0.8c-1.9,0-3.5-0.6-4.7-1.9
			C536.3,119.9,535.7,118.1,535.7,115.7z M538.1,115.7c0,1.8,0.4,3.1,1.2,4c0.8,0.9,1.8,1.3,2.9,1.3c1.2,0,2.1-0.4,2.9-1.3
			c0.8-0.9,1.2-2.2,1.2-4.1c0-1.7-0.4-3-1.2-3.9s-1.7-1.3-2.9-1.3c-1.2,0-2.2,0.4-2.9,1.3C538.5,112.6,538.1,113.9,538.1,115.7z"/>
		<path d="M550.5,118.5l2.3-0.4c0.1,0.9,0.5,1.6,1.1,2.1s1.4,0.7,2.5,0.7c1.1,0,1.9-0.2,2.4-0.7s0.8-1,0.8-1.5
			c0-0.5-0.2-0.9-0.7-1.3c-0.3-0.2-1.1-0.5-2.4-0.8c-1.7-0.4-2.9-0.8-3.6-1.1c-0.7-0.3-1.2-0.8-1.5-1.3s-0.5-1.2-0.5-1.9
			c0-0.6,0.1-1.2,0.4-1.7c0.3-0.5,0.7-1,1.2-1.3c0.4-0.3,0.9-0.5,1.5-0.7c0.6-0.2,1.3-0.3,2-0.3c1.1,0,2,0.2,2.9,0.5
			c0.8,0.3,1.4,0.7,1.8,1.3c0.4,0.5,0.7,1.3,0.8,2.1l-2.3,0.3c-0.1-0.7-0.4-1.3-0.9-1.7s-1.2-0.6-2.1-0.6c-1.1,0-1.8,0.2-2.3,0.5
			s-0.7,0.8-0.7,1.3c0,0.3,0.1,0.6,0.3,0.8c0.2,0.3,0.5,0.5,0.9,0.6c0.2,0.1,0.9,0.3,2.1,0.6c1.7,0.4,2.8,0.8,3.5,1.1
			c0.7,0.3,1.2,0.7,1.5,1.2c0.4,0.5,0.6,1.2,0.6,2c0,0.8-0.2,1.5-0.7,2.2c-0.5,0.7-1.1,1.2-2,1.6s-1.8,0.6-2.9,0.6
			c-1.8,0-3.2-0.4-4.1-1.1C551.4,121.1,550.8,120,550.5,118.5z"/>
		<path d="M570,120.6l0.3,2.1c-0.7,0.1-1.3,0.2-1.8,0.2c-0.9,0-1.5-0.1-2-0.4c-0.5-0.3-0.8-0.6-1-1.1c-0.2-0.4-0.3-1.4-0.3-2.8v-8
			h-1.7v-1.8h1.7v-3.4l2.3-1.4v4.8h2.4v1.8h-2.4v8.1c0,0.7,0,1.1,0.1,1.3s0.2,0.3,0.4,0.5s0.5,0.2,0.8,0.2
			C569.2,120.6,569.6,120.6,570,120.6z"/>
		<path d="M581.8,118.2l2.4,0.3c-0.4,1.4-1.1,2.5-2.1,3.3c-1,0.8-2.4,1.2-4,1.2c-2,0-3.6-0.6-4.8-1.9c-1.2-1.3-1.8-3-1.8-5.3
			c0-2.3,0.6-4.1,1.8-5.4c1.2-1.3,2.8-1.9,4.7-1.9c1.9,0,3.4,0.6,4.5,1.9c1.2,1.3,1.8,3,1.8,5.3c0,0.1,0,0.3,0,0.6h-10.3
			c0.1,1.5,0.5,2.7,1.3,3.5c0.8,0.8,1.7,1.2,2.9,1.2c0.9,0,1.6-0.2,2.2-0.7S581.4,119.2,581.8,118.2z M574.1,114.4h7.7
			c-0.1-1.2-0.4-2-0.9-2.6c-0.7-0.9-1.7-1.4-2.9-1.4c-1.1,0-2,0.4-2.7,1.1C574.6,112.2,574.1,113.2,574.1,114.4z"/>
		<path d="M587.2,122.7v-13.9h2.1v2c1-1.5,2.5-2.3,4.4-2.3c0.8,0,1.6,0.2,2.3,0.5c0.7,0.3,1.2,0.7,1.6,1.2c0.3,0.5,0.6,1.1,0.7,1.7
			c0.1,0.4,0.1,1.2,0.1,2.3v8.5h-2.4v-8.4c0-1-0.1-1.7-0.3-2.1s-0.5-0.9-1-1.1c-0.5-0.3-1-0.4-1.6-0.4c-1,0-1.9,0.3-2.6,1
			c-0.7,0.6-1.1,1.8-1.1,3.6v7.6H587.2z"/>
	</g>
	<g class="st3">
		<path d="M126,110l3.6-5.1l-3.3-4.7h2.1l1.5,2.3c0.3,0.4,0.5,0.8,0.7,1.1c0.3-0.4,0.5-0.8,0.8-1.1l1.7-2.3h2l-3.4,4.6l3.7,5.2h-2.1
			l-2-3.1l-0.5-0.8L128,110H126z"/>
	</g>
	<g class="st3">
		<path d="M138.8,116.4h-1v-6.2c-0.2,0.2-0.5,0.4-0.9,0.7s-0.7,0.4-1,0.5v-0.9c0.5-0.3,1-0.6,1.4-0.9c0.4-0.4,0.7-0.7,0.9-1.1h0.6
			V116.4z"/>
	</g>
	<g class="st3">
		<path d="M126,197.6l3.6-5.1l-3.3-4.7h2.1l1.5,2.3c0.3,0.4,0.5,0.8,0.7,1.1c0.3-0.4,0.5-0.8,0.8-1.1l1.7-2.3h2l-3.4,4.6l3.7,5.2
			h-2.1l-2-3.1l-0.5-0.8l-2.6,3.9H126z"/>
	</g>
	<g class="st3">
		<path d="M140.2,203v0.9H135c0-0.2,0-0.5,0.1-0.7c0.1-0.4,0.3-0.7,0.6-1.1s0.7-0.7,1.3-1.2c0.9-0.7,1.4-1.3,1.7-1.7
			c0.3-0.4,0.5-0.8,0.5-1.2c0-0.4-0.1-0.7-0.4-1c-0.3-0.3-0.6-0.4-1.1-0.4c-0.5,0-0.8,0.1-1.1,0.4s-0.4,0.7-0.4,1.2l-1-0.1
			c0.1-0.7,0.3-1.3,0.8-1.7c0.4-0.4,1-0.6,1.8-0.6c0.8,0,1.4,0.2,1.8,0.6c0.4,0.4,0.7,0.9,0.7,1.6c0,0.3-0.1,0.6-0.2,0.9
			c-0.1,0.3-0.3,0.6-0.6,1c-0.3,0.3-0.8,0.8-1.5,1.4c-0.6,0.5-1,0.8-1.1,1c-0.2,0.2-0.3,0.4-0.4,0.5H140.2z"/>
	</g>
	<g class="st3">
		<path d="M126,286.3l3.6-5.1l-3.3-4.7h2.1l1.5,2.3c0.3,0.4,0.5,0.8,0.7,1.1c0.3-0.4,0.5-0.8,0.8-1.1l1.7-2.3h2l-3.4,4.6l3.7,5.2
			h-2.1l-2-3.1l-0.5-0.8l-2.6,3.9H126z"/>
	</g>
	<g class="st3">
		<path d="M135.1,290.6l1-0.1c0.1,0.6,0.3,0.9,0.6,1.2s0.6,0.4,1,0.4c0.5,0,0.8-0.2,1.2-0.5c0.3-0.3,0.5-0.7,0.5-1.2
			c0-0.4-0.1-0.8-0.4-1.1c-0.3-0.3-0.7-0.4-1.1-0.4c-0.2,0-0.4,0-0.7,0.1l0.1-0.9c0.1,0,0.1,0,0.2,0c0.4,0,0.8-0.1,1.1-0.3
			c0.3-0.2,0.5-0.5,0.5-1c0-0.4-0.1-0.7-0.4-0.9c-0.2-0.2-0.6-0.4-0.9-0.4c-0.4,0-0.7,0.1-0.9,0.4c-0.3,0.2-0.4,0.6-0.5,1.1l-1-0.2
			c0.1-0.7,0.4-1.2,0.8-1.5c0.4-0.4,0.9-0.5,1.6-0.5c0.4,0,0.8,0.1,1.2,0.3c0.4,0.2,0.6,0.4,0.8,0.8c0.2,0.3,0.3,0.7,0.3,1
			c0,0.3-0.1,0.7-0.3,0.9s-0.5,0.5-0.8,0.7c0.5,0.1,0.8,0.3,1.1,0.7s0.4,0.8,0.4,1.3c0,0.7-0.3,1.3-0.8,1.8s-1.1,0.7-1.9,0.7
			c-0.7,0-1.3-0.2-1.7-0.6C135.4,291.8,135.2,291.2,135.1,290.6z"/>
	</g>
	<g class="st3">
		<path d="M126,373.8l3.6-5.1l-3.3-4.7h2.1l1.5,2.3c0.3,0.4,0.5,0.8,0.7,1.1c0.3-0.4,0.5-0.8,0.8-1.1l1.7-2.3h2l-3.4,4.6l3.7,5.2
			h-2.1l-2-3.1l-0.5-0.8l-2.6,3.9H126z"/>
	</g>
	<g class="st3">
		<path d="M138.2,380.2v-1.9h-3.4v-0.9l3.6-5.1h0.8v5.1h1.1v0.9h-1.1v1.9H138.2z M138.2,377.4v-3.6l-2.5,3.6H138.2z"/>
	</g>
	<g class="st3">
		<path d="M126,461.8l3.6-5.1l-3.3-4.7h2.1l1.5,2.3c0.3,0.4,0.5,0.8,0.7,1.1c0.3-0.4,0.5-0.8,0.8-1.1l1.7-2.3h2l-3.4,4.6l3.7,5.2
			h-2.1l-2-3.1l-0.5-0.8l-2.6,3.9H126z"/>
	</g>
	<g class="st3">
		<path d="M137.4,466.4v-1.4h-2.6v-0.7l2.8-3.9h0.6v3.9h0.8v0.7h-0.8v1.4H137.4z M137.4,464.2v-2.7l-1.9,2.7H137.4z"/>
		<path d="M139.7,463.4c0-0.7,0.1-1.3,0.2-1.7s0.4-0.8,0.7-1c0.3-0.2,0.7-0.4,1.1-0.4c0.3,0,0.6,0.1,0.9,0.2
			c0.2,0.1,0.4,0.3,0.6,0.6c0.2,0.2,0.3,0.5,0.4,0.9c0.1,0.4,0.1,0.8,0.1,1.4c0,0.7-0.1,1.3-0.2,1.7c-0.1,0.4-0.4,0.8-0.7,1
			c-0.3,0.2-0.7,0.4-1.1,0.4c-0.6,0-1-0.2-1.4-0.6C139.9,465.3,139.7,464.5,139.7,463.4z M140.4,463.4c0,1,0.1,1.7,0.3,2
			c0.2,0.3,0.5,0.5,0.9,0.5c0.3,0,0.6-0.2,0.9-0.5c0.2-0.3,0.3-1,0.3-2c0-1-0.1-1.7-0.3-2c-0.2-0.3-0.5-0.5-0.9-0.5
			c-0.3,0-0.6,0.1-0.8,0.4C140.6,461.7,140.4,462.4,140.4,463.4z"/>
		<path d="M144.4,463.4c0-0.7,0.1-1.3,0.2-1.7s0.4-0.8,0.7-1c0.3-0.2,0.7-0.4,1.1-0.4c0.3,0,0.6,0.1,0.9,0.2
			c0.2,0.1,0.4,0.3,0.6,0.6c0.2,0.2,0.3,0.5,0.4,0.9c0.1,0.4,0.1,0.8,0.1,1.4c0,0.7-0.1,1.3-0.2,1.7c-0.1,0.4-0.4,0.8-0.7,1
			c-0.3,0.2-0.7,0.4-1.1,0.4c-0.6,0-1-0.2-1.4-0.6C144.6,465.3,144.4,464.5,144.4,463.4z M145.1,463.4c0,1,0.1,1.7,0.3,2
			c0.2,0.3,0.5,0.5,0.9,0.5c0.3,0,0.6-0.2,0.9-0.5c0.2-0.3,0.3-1,0.3-2c0-1-0.1-1.7-0.3-2c-0.2-0.3-0.5-0.5-0.9-0.5
			c-0.3,0-0.6,0.1-0.8,0.4C145.3,461.7,145.1,462.4,145.1,463.4z"/>
	</g>
	<g class="st3">
		<path d="M287.9,149.7l-3-9.9h1.7l1.6,5.7l0.6,2.1c0-0.1,0.2-0.8,0.5-2l1.6-5.8h1.7l1.5,5.7l0.5,1.9l0.6-1.9l1.7-5.7h1.6l-3.1,9.9
			h-1.7l-1.6-5.9l-0.4-1.7l-2,7.6H287.9z"/>
	</g>
	<g class="st3">
		<path d="M302.9,156h-1v-6.2c-0.2,0.2-0.5,0.4-0.9,0.7s-0.7,0.4-1,0.5V150c0.5-0.3,1-0.6,1.4-0.9c0.4-0.4,0.7-0.7,0.9-1.1h0.6V156z
			"/>
	</g>
	<g class="st3">
		<path d="M288.7,219l-3-9.9h1.7l1.6,5.7l0.6,2.1c0-0.1,0.2-0.8,0.5-2l1.6-5.8h1.7l1.5,5.7l0.5,1.9l0.6-1.9l1.7-5.7h1.6l-3.1,9.9
			h-1.7l-1.6-5.9l-0.4-1.7l-2,7.6H288.7z"/>
	</g>
	<g class="st3">
		<path d="M305.2,224.4v0.9H300c0-0.2,0-0.5,0.1-0.7c0.1-0.4,0.3-0.7,0.6-1.1s0.7-0.7,1.3-1.2c0.9-0.7,1.4-1.3,1.7-1.7
			c0.3-0.4,0.5-0.8,0.5-1.2c0-0.4-0.1-0.7-0.4-1c-0.3-0.3-0.6-0.4-1.1-0.4c-0.5,0-0.8,0.1-1.1,0.4s-0.4,0.7-0.4,1.2l-1-0.1
			c0.1-0.7,0.3-1.3,0.8-1.7c0.4-0.4,1-0.6,1.8-0.6c0.8,0,1.4,0.2,1.8,0.6c0.4,0.4,0.7,0.9,0.7,1.6c0,0.3-0.1,0.6-0.2,0.9
			c-0.1,0.3-0.3,0.6-0.6,1c-0.3,0.3-0.8,0.8-1.5,1.4c-0.6,0.5-1,0.8-1.1,1c-0.2,0.2-0.3,0.4-0.4,0.5H305.2z"/>
	</g>
	<g class="st3">
		<path d="M288.7,286.3l-3-9.9h1.7l1.6,5.7l0.6,2.1c0-0.1,0.2-0.8,0.5-2l1.6-5.8h1.7l1.5,5.7l0.5,1.9l0.6-1.9l1.7-5.7h1.6l-3.1,9.9
			h-1.7l-1.6-5.9l-0.4-1.7l-2,7.6H288.7z"/>
	</g>
	<g class="st3">
		<path d="M300.1,290.6l1-0.1c0.1,0.6,0.3,0.9,0.6,1.2s0.6,0.4,1,0.4c0.5,0,0.8-0.2,1.2-0.5c0.3-0.3,0.5-0.7,0.5-1.2
			c0-0.4-0.1-0.8-0.4-1.1c-0.3-0.3-0.7-0.4-1.1-0.4c-0.2,0-0.4,0-0.7,0.1l0.1-0.9c0.1,0,0.1,0,0.2,0c0.4,0,0.8-0.1,1.1-0.3
			c0.3-0.2,0.5-0.5,0.5-1c0-0.4-0.1-0.7-0.4-0.9c-0.2-0.2-0.6-0.4-0.9-0.4c-0.4,0-0.7,0.1-0.9,0.4c-0.3,0.2-0.4,0.6-0.5,1.1l-1-0.2
			c0.1-0.7,0.4-1.2,0.8-1.5c0.4-0.4,0.9-0.5,1.6-0.5c0.4,0,0.8,0.1,1.2,0.3c0.4,0.2,0.6,0.4,0.8,0.8c0.2,0.3,0.3,0.7,0.3,1
			c0,0.3-0.1,0.7-0.3,0.9s-0.5,0.5-0.8,0.7c0.5,0.1,0.8,0.3,1.1,0.7s0.4,0.8,0.4,1.3c0,0.7-0.3,1.3-0.8,1.8s-1.1,0.7-1.9,0.7
			c-0.7,0-1.3-0.2-1.7-0.6C300.4,291.8,300.2,291.2,300.1,290.6z"/>
	</g>
	<g class="st3">
		<path d="M288.7,354.5l-3-9.9h1.7l1.6,5.7l0.6,2.1c0-0.1,0.2-0.8,0.5-2l1.6-5.8h1.7l1.5,5.7l0.5,1.9l0.6-1.9l1.7-5.7h1.6l-3.1,9.9
			h-1.7l-1.6-5.9l-0.4-1.7l-2,7.6H288.7z"/>
	</g>
	<g class="st3">
		<path d="M303.2,360.8v-1.9h-3.4V358l3.6-5.1h0.8v5.1h1.1v0.9h-1.1v1.9H303.2z M303.2,358v-3.6l-2.5,3.6H303.2z"/>
	</g>
	<g class="st3">
		<path d="M287.9,424.3l-3-9.9h1.7l1.6,5.7l0.6,2.1c0-0.1,0.2-0.8,0.5-2l1.6-5.8h1.7l1.5,5.7l0.5,1.9l0.6-1.9l1.7-5.7h1.6l-3.1,9.9
			h-1.7l-1.6-5.9l-0.4-1.7l-2,7.6H287.9z"/>
	</g>
	<g class="st3">
		<path d="M299.4,428.4V427h-2.5v-0.6l2.6-3.7h0.6v3.7h0.8v0.6h-0.8v1.4H299.4z M299.4,426.4v-2.6l-1.8,2.6H299.4z"/>
		<path d="M301.6,425.6c0-0.7,0.1-1.2,0.2-1.6c0.1-0.4,0.3-0.7,0.6-1c0.3-0.2,0.6-0.3,1-0.3c0.3,0,0.6,0.1,0.8,0.2s0.4,0.3,0.6,0.5
			c0.2,0.2,0.3,0.5,0.4,0.9c0.1,0.3,0.1,0.8,0.1,1.4c0,0.7-0.1,1.2-0.2,1.6s-0.3,0.7-0.6,1s-0.6,0.3-1,0.3c-0.6,0-1-0.2-1.3-0.6
			C301.8,427.4,301.6,426.7,301.6,425.6z M302.3,425.6c0,0.9,0.1,1.6,0.3,1.9c0.2,0.3,0.5,0.5,0.8,0.5s0.6-0.2,0.8-0.5
			c0.2-0.3,0.3-0.9,0.3-1.9c0-0.9-0.1-1.6-0.3-1.9c-0.2-0.3-0.5-0.5-0.8-0.5c-0.3,0-0.6,0.1-0.8,0.4
			C302.4,424,302.3,424.6,302.3,425.6z"/>
		<path d="M306.1,425.6c0-0.7,0.1-1.2,0.2-1.6c0.1-0.4,0.3-0.7,0.6-1c0.3-0.2,0.6-0.3,1-0.3c0.3,0,0.6,0.1,0.8,0.2s0.4,0.3,0.6,0.5
			c0.2,0.2,0.3,0.5,0.4,0.9c0.1,0.3,0.1,0.8,0.1,1.4c0,0.7-0.1,1.2-0.2,1.6s-0.3,0.7-0.6,1s-0.6,0.3-1,0.3c-0.6,0-1-0.2-1.3-0.6
			C306.2,427.4,306.1,426.7,306.1,425.6z M306.8,425.6c0,0.9,0.1,1.6,0.3,1.9c0.2,0.3,0.5,0.5,0.8,0.5s0.6-0.2,0.8-0.5
			c0.2-0.3,0.3-0.9,0.3-1.9c0-0.9-0.1-1.6-0.3-1.9c-0.2-0.3-0.5-0.5-0.8-0.5c-0.3,0-0.6,0.1-0.8,0.4
			C306.9,424,306.8,424.6,306.8,425.6z"/>
	</g>
	<g id="XMLID_45_">
		<g id="math_1_" class="st4">
			<path id="sigma_1_" d="M506.3,277.9l-15.5,19.9h25.8v-4.3h4.3v12.9h-43.1l21.5-25.8l-21.5-25.8h43.1v12.9h-4.3V259h-25.8
				L506.3,277.9"/>
		</g>
	</g>
	<g id="XMLID_46_">
		<title>mplwp_logistic function.svg</title>
		<desc>http://commons.wikimedia.org/wiki/File:mplwp_logistic function.svg
Plot created with mplwp, the Matplotlib extension for Wikipedia plots.</desc>
		<g id="figure_1_1_">
			<g id="patch_1_1_">
			</g>
			<g id="axes_1_1_">
				<g id="patch_2_1_">
					<path id="XMLID_317_" class="st5" d="M597.5,306.9h74.1v-51.1h-74.1V306.9z"/>
				</g>
				<g id="line2d_1_1_">
					<g id="XMLID_314_">
						<g>
							<defs>
								<rect id="SVGID_1_" x="597.5" y="255.8" width="74.1" height="51.1"/>
							</defs>
							<clipPath id="SVGID_2_">
								<use xlink:href="#SVGID_1_"  style="overflow:visible;"/>
							</clipPath>
							<path id="XMLID_315_" class="st6" d="M597.5,299.5l3.4-0.1l2.6-0.1l2.2-0.1l1.8-0.1l1.6-0.1l1.4-0.1l1.3-0.2l1.2-0.2l1.1-0.2
								l1-0.2l0.9-0.2l0.9-0.3l0.9-0.3l0.8-0.3l0.8-0.3l0.8-0.3l0.7-0.4l0.7-0.4l0.7-0.4l0.7-0.5l0.7-0.5l0.7-0.5l0.7-0.6l0.7-0.6
								l0.7-0.7l0.7-0.7l0.7-0.8l0.7-0.9l0.8-0.9l0.8-1l0.9-1.2l1-1.4l1.2-1.7l2.3-3.4l1.4-2.1l1.1-1.5l0.9-1.2l0.8-1.1l0.8-1
								l0.8-0.9l0.7-0.8l0.7-0.7l0.7-0.7l0.7-0.6l0.7-0.6l0.7-0.5l0.7-0.5l0.7-0.5l0.7-0.4l0.7-0.4l0.7-0.4l0.8-0.3l0.8-0.3l0.8-0.3
								l0.8-0.3l0.9-0.3l0.9-0.2l1-0.2l1.1-0.2l1.2-0.2l1.3-0.2l1.4-0.1l1.5-0.1l1.7-0.1l2-0.1l2.4-0.1l2.9-0.1h1.1l0,0"/>
						</g>
					</g>
				</g>
				<g id="patch_3_1_">
					<path id="XMLID_68_" class="st7" d="M671.6,255.8"/>
				</g>
				<g id="patch_4_1_">
					<path id="XMLID_67_" class="st7" d="M671.6,306.9"/>
				</g>
				<g id="patch_5_1_">
				</g>
				<g id="patch_6_1_">
				</g>
			</g>
		</g>
	</g>
	<g id="XMLID_65_">
		<desc>Produced by GNUPLOT 4.0 patchlevel 0</desc>
		<g id="XMLID_72_">
			<path id="XMLID_212_" class="st8" d="M769,254.2"/>
			<path id="XMLID_207_" class="st2" d="M731,302.6h38 M769,262.3h38"/>
			<path id="XMLID_206_" class="st9" d="M769,262.3"/>
		</g>
		<g id="XMLID_66_">
			<circle id="XMLID_70_" class="st10" cx="769" cy="262.3" r="1"/>
			<circle id="XMLID_69_" class="st10" cx="769.2" cy="302.7" r="1"/>
		</g>
	</g>
	<g id="XMLID_47_" class="st3">
		<path d="M896.9,303.7l-0.4-3.2c0.7,0.2,1.4,0.3,2,0.3c0.8,0,1.4-0.1,1.8-0.4c0.5-0.3,0.8-0.6,1.1-1.1c0.2-0.3,0.6-1.2,1-2.5
			c0.1-0.2,0.2-0.5,0.3-0.8l-7.6-20.1h3.7l4.2,11.6c0.5,1.5,1,3,1.5,4.7c0.4-1.6,0.9-3.1,1.4-4.6l4.3-11.7h3.4l-7.6,20.4
			c-0.8,2.2-1.5,3.7-1.9,4.6c-0.6,1.1-1.3,1.9-2.1,2.5c-0.8,0.5-1.7,0.8-2.8,0.8C898.4,304.1,897.7,303.9,896.9,303.7z"/>
	</g>
	<g>
		<path d="M260.6,466.4l-4-12.3h1.7l1.9,6.1c0.5,1.7,1,3.2,1.3,4.6h0c0.3-1.4,0.9-3,1.4-4.6l2.1-6.1h1.7l-4.4,12.3H260.6z"/>
		<path d="M272.3,466.4l-0.1-1.1h-0.1c-0.5,0.7-1.4,1.3-2.7,1.3c-1.8,0-2.7-1.3-2.7-2.5c0-2.1,1.9-3.3,5.3-3.3v-0.2c0-0.7-0.2-2-2-2
			c-0.8,0-1.7,0.3-2.3,0.7l-0.4-1.1c0.7-0.5,1.8-0.8,2.9-0.8c2.7,0,3.4,1.8,3.4,3.6v3.3c0,0.8,0,1.5,0.1,2.1H272.3z M272.1,461.8
			c-1.8,0-3.7,0.3-3.7,2c0,1,0.7,1.5,1.5,1.5c1.2,0,1.9-0.7,2.1-1.5c0.1-0.2,0.1-0.3,0.1-0.5V461.8z"/>
		<path d="M276.2,460.3c0-1,0-1.9-0.1-2.8h1.4l0.1,1.7h0.1c0.4-1.2,1.4-1.9,2.4-1.9c0.2,0,0.3,0,0.5,0.1v1.5c-0.2,0-0.3-0.1-0.5-0.1
			c-1.1,0-1.9,0.9-2.2,2.1c0,0.2-0.1,0.5-0.1,0.7v4.7h-1.6V460.3z"/>
		<path d="M284.1,455c0,0.5-0.4,1-1,1c-0.6,0-1-0.4-1-1c0-0.6,0.4-1,1-1C283.7,454,284.1,454.5,284.1,455z M282.3,466.4v-8.8h1.6
			v8.8H282.3z"/>
		<path d="M291.4,466.4l-0.1-1.1h-0.1c-0.5,0.7-1.4,1.3-2.7,1.3c-1.8,0-2.7-1.3-2.7-2.5c0-2.1,1.9-3.3,5.3-3.3v-0.2c0-0.7-0.2-2-2-2
			c-0.8,0-1.7,0.3-2.3,0.7l-0.4-1.1c0.7-0.5,1.8-0.8,2.9-0.8c2.7,0,3.4,1.8,3.4,3.6v3.3c0,0.8,0,1.5,0.1,2.1H291.4z M291.2,461.8
			c-1.8,0-3.7,0.3-3.7,2c0,1,0.7,1.5,1.5,1.5c1.2,0,1.9-0.7,2.1-1.5c0.1-0.2,0.1-0.3,0.1-0.5V461.8z"/>
		<path d="M295.3,466.4c0-0.6,0.1-1.5,0.1-2.3v-10.7h1.6v5.6h0c0.6-1,1.6-1.6,3-1.6c2.2,0,3.7,1.8,3.7,4.5c0,3.2-2,4.7-4,4.7
			c-1.3,0-2.3-0.5-3-1.7h-0.1l-0.1,1.5H295.3z M296.9,462.8c0,0.2,0,0.4,0.1,0.6c0.3,1.1,1.2,1.9,2.4,1.9c1.7,0,2.7-1.4,2.7-3.4
			c0-1.8-0.9-3.3-2.6-3.3c-1.1,0-2.1,0.7-2.4,2c0,0.2-0.1,0.4-0.1,0.7V462.8z"/>
		<path d="M305.7,453.4h1.6v13h-1.6V453.4z"/>
		<path d="M310.9,462.2c0,2.2,1.4,3.1,3,3.1c1.2,0,1.8-0.2,2.4-0.5l0.3,1.2c-0.6,0.3-1.5,0.5-2.9,0.5c-2.7,0-4.3-1.8-4.3-4.5
			c0-2.7,1.6-4.8,4.1-4.8c2.9,0,3.7,2.5,3.7,4.2c0,0.3,0,0.6-0.1,0.7H310.9z M315.6,461.1c0-1-0.4-2.6-2.2-2.6
			c-1.6,0-2.3,1.5-2.5,2.6H315.6z"/>
		<path d="M319.2,459.9c0-0.9,0-1.7-0.1-2.4h1.4l0.1,1.5h0c0.4-0.8,1.5-1.7,2.9-1.7c1.2,0,3.1,0.7,3.1,3.8v5.3h-1.6v-5.1
			c0-1.4-0.5-2.6-2-2.6c-1.1,0-1.9,0.7-2.2,1.6c-0.1,0.2-0.1,0.5-0.1,0.7v5.3h-1.6V459.9z"/>
	</g>
	<g>
		<path d="M84.6,493.5c0.6-0.1,1.4-0.2,2.3-0.2c1.3,0,2.1,0.2,2.7,0.7c0.5,0.4,0.8,1,0.8,1.7c0,1-0.6,1.8-1.7,2.2v0
			c0.9,0.2,2,1,2,2.5c0,0.9-0.3,1.5-0.8,2c-0.7,0.6-1.8,0.9-3.4,0.9c-0.9,0-1.6-0.1-2-0.1V493.5z M85.9,497.5H87
			c1.3,0,2.1-0.7,2.1-1.7c0-1.2-0.9-1.6-2.2-1.6c-0.6,0-0.9,0-1.1,0.1V497.5z M85.9,502.3c0.2,0,0.6,0.1,1.1,0.1
			c1.3,0,2.5-0.5,2.5-1.9c0-1.3-1.2-1.9-2.6-1.9h-1.1V502.3z"/>
		<path d="M94,494.1c0,0.4-0.3,0.8-0.8,0.8c-0.5,0-0.8-0.4-0.8-0.8c0-0.5,0.3-0.8,0.8-0.8C93.6,493.3,94,493.7,94,494.1z
			 M92.5,503.2v-7.1h1.3v7.1H92.5z"/>
		<path d="M95.9,492.8h1.3v10.4h-1.3V492.8z"/>
		<path d="M105.5,492.8v8.6c0,0.6,0,1.3,0.1,1.8h-1.2l-0.1-1.2h0c-0.4,0.8-1.3,1.4-2.4,1.4c-1.7,0-3-1.5-3-3.6
			c0-2.4,1.5-3.8,3.2-3.8c1.1,0,1.8,0.5,2.1,1.1h0v-4.2H105.5z M104.2,499c0-0.2,0-0.4-0.1-0.5c-0.2-0.8-0.9-1.5-1.9-1.5
			c-1.3,0-2.1,1.2-2.1,2.7c0,1.4,0.7,2.6,2.1,2.6c0.9,0,1.7-0.6,1.9-1.5c0-0.2,0.1-0.4,0.1-0.6V499z"/>
		<path d="M107.7,498.4c0-0.9,0-1.6-0.1-2.3h1.2l0.1,1.2h0c0.5-0.9,1.4-1.4,2.5-1.4c1.7,0,3,1.5,3,3.6c0,2.6-1.6,3.8-3.2,3.8
			c-0.9,0-1.8-0.4-2.2-1.1h0v3.9h-1.3V498.4z M108.9,500.3c0,0.2,0,0.4,0.1,0.5c0.2,0.9,1,1.5,1.9,1.5c1.4,0,2.2-1.1,2.2-2.7
			c0-1.4-0.7-2.6-2.1-2.6c-0.9,0-1.7,0.6-2,1.6c0,0.2-0.1,0.4-0.1,0.5V500.3z"/>
		<path d="M117.5,494.1c0,0.4-0.3,0.8-0.8,0.8c-0.5,0-0.8-0.4-0.8-0.8c0-0.5,0.3-0.8,0.8-0.8C117.1,493.3,117.5,493.7,117.5,494.1z
			 M116,503.2v-7.1h1.3v7.1H116z"/>
		<path d="M120,496.1l1,1.5c0.3,0.4,0.5,0.8,0.7,1.2h0c0.2-0.4,0.5-0.8,0.7-1.2l1-1.5h1.4l-2.4,3.4l2.5,3.7h-1.5l-1-1.6
			c-0.3-0.4-0.5-0.8-0.8-1.2h0c-0.2,0.4-0.5,0.8-0.7,1.2l-1,1.6h-1.4l2.5-3.6l-2.4-3.5H120z"/>
		<path d="M126.7,499.9c0,1.7,1.1,2.5,2.4,2.5c0.9,0,1.5-0.2,2-0.4l0.2,0.9c-0.5,0.2-1.2,0.4-2.4,0.4c-2.2,0-3.5-1.4-3.5-3.6
			c0-2.1,1.3-3.8,3.3-3.8c2.3,0,2.9,2,2.9,3.3c0,0.3,0,0.5,0,0.6H126.7z M130.5,499c0-0.8-0.3-2.1-1.8-2.1c-1.3,0-1.9,1.2-2,2.1
			H130.5z"/>
		<path d="M133.4,492.8h1.3v10.4h-1.3V492.8z"/>
		<path d="M137.3,496.1l1.4,4c0.2,0.6,0.4,1.2,0.6,1.8h0c0.2-0.6,0.4-1.2,0.6-1.8l1.4-4h1.3l-2.8,7.1h-1.2l-2.7-7.1H137.3z"/>
		<path d="M144.4,499.9c0,1.7,1.1,2.5,2.4,2.5c0.9,0,1.5-0.2,2-0.4l0.2,0.9c-0.5,0.2-1.2,0.4-2.4,0.4c-2.2,0-3.5-1.4-3.5-3.6
			c0-2.1,1.3-3.8,3.3-3.8c2.3,0,2.9,2,2.9,3.3c0,0.3,0,0.5,0,0.6H144.4z M148.2,499c0-0.8-0.3-2.1-1.8-2.1c-1.3,0-1.9,1.2-2,2.1
			H148.2z"/>
		<path d="M152.3,499.4L152.3,499.4c0.2-0.2,0.5-0.6,0.7-0.8l2.1-2.4h1.6l-2.7,2.9l3.1,4.2h-1.6l-2.4-3.4l-0.7,0.7v2.7h-1.3v-10.4
			h1.3V499.4z"/>
		<path d="M159.5,494.1v2h1.8v1h-1.8v3.8c0,0.9,0.2,1.4,1,1.4c0.3,0,0.6,0,0.7-0.1l0.1,1c-0.2,0.1-0.6,0.2-1.1,0.2
			c-0.6,0-1.1-0.2-1.4-0.5c-0.4-0.4-0.5-1-0.5-1.8v-3.9h-1.1v-1h1.1v-1.7L159.5,494.1z"/>
		<path d="M169.1,499.6c0,2.6-1.8,3.8-3.5,3.8c-1.9,0-3.4-1.4-3.4-3.7c0-2.4,1.6-3.8,3.5-3.8C167.7,496,169.1,497.4,169.1,499.6z
			 M163.5,499.7c0,1.6,0.9,2.7,2.2,2.7c1.2,0,2.2-1.2,2.2-2.8c0-1.2-0.6-2.7-2.1-2.7C164.2,496.9,163.5,498.3,163.5,499.7z"/>
		<path d="M170.7,498.3c0-0.8,0-1.6-0.1-2.2h1.1l0,1.4h0.1c0.3-1,1.1-1.6,2-1.6c0.1,0,0.2,0,0.4,0v1.2c-0.1,0-0.3,0-0.4,0
			c-0.9,0-1.6,0.7-1.7,1.7c0,0.2-0.1,0.4-0.1,0.6v3.8h-1.3V498.3z"/>
	</g>
	<g id="XMLID_35_">
		<g id="math_2_" class="st4">
			<path id="sigma_2_" d="M482.5,339.6l-5.2,6.6h8.6v-1.4h1.4v4.3H473l7.2-8.6l-7.2-8.6h14.3v4.3h-1.4v-2.9h-8.6L482.5,339.6"/>
		</g>
	</g>
	<g>
		<path d="M495.2,337.4l0.8,1.2c0.2,0.3,0.4,0.6,0.6,0.9h0c0.2-0.3,0.4-0.6,0.6-1l0.8-1.2h1.1l-2,2.8l2,3H498l-0.9-1.3
			c-0.2-0.3-0.4-0.7-0.6-1h0c-0.2,0.3-0.4,0.7-0.6,1l-0.8,1.3h-1.2l2.1-3l-2-2.8H495.2z"/>
		<path d="M500.6,342.9c0,0.2-0.1,0.4-0.4,0.4c-0.2,0-0.4-0.2-0.4-0.4c0-0.2,0.2-0.4,0.4-0.4C500.4,342.5,500.6,342.7,500.6,342.9z
			 M499.9,347.2v-3.4h0.6v3.4H499.9z"/>
		<path d="M507.5,335.4l-1.1,1.5v0l1.8-0.2v0.8l-1.8-0.2v0l1.2,1.4l-0.8,0.4l-0.7-1.7h0l-0.8,1.7l-0.7-0.4l1.1-1.5v0l-1.8,0.2v-0.8
			l1.8,0.2v0l-1.1-1.5l0.7-0.4l0.7,1.7h0l0.7-1.7L507.5,335.4z"/>
		<path d="M512.4,337.4l0.8,3c0.2,0.6,0.3,1.2,0.4,1.8h0c0.1-0.6,0.3-1.2,0.5-1.8l0.9-3h0.9l0.9,2.9c0.2,0.7,0.4,1.3,0.5,1.9h0
			c0.1-0.6,0.3-1.2,0.4-1.9l0.8-2.9h1l-1.9,5.8h-1l-0.9-2.8c-0.2-0.6-0.4-1.2-0.5-1.9h0c-0.1,0.7-0.3,1.3-0.5,1.9l-0.9,2.8h-1
			l-1.8-5.8H512.4z"/>
		<path d="M521.1,342.9c0,0.2-0.1,0.4-0.4,0.4c-0.2,0-0.4-0.2-0.4-0.4c0-0.2,0.2-0.4,0.4-0.4C520.9,342.5,521.1,342.7,521.1,342.9z
			 M520.4,347.2v-3.4h0.6v3.4H520.4z"/>
	</g>
	<g id="XMLID_134_">
		<g id="XMLID_135_" transform="matrix(1 0 0 -1 0 0)">
			<g id="XMLID_156_">
				<g id="MJMATHI-67_4_">
					<path d="M579.6-348.5c-0.2-0.1-0.4-0.3-0.7-0.5c-0.3-0.2-0.7-0.2-1-0.2c-0.7,0-1.2,0.2-1.7,0.7c-0.4,0.5-0.6,1.1-0.6,1.9
						c0,1.2,0.4,2.2,1.3,3.2c0.8,1,1.8,1.5,2.8,1.5c0.5,0,1-0.3,1.4-0.8v0.1c0,0,0,0.1,0.1,0.1c0.1,0,0.1,0.1,0.1,0.1
						c0.1,0.1,0.1,0.1,0.2,0.1c0.1,0,0.2,0,0.3,0c0.2,0,0.3,0,0.4-0.1c0.1-0.1,0.2-0.2,0.2-0.3c0-0.2-0.3-1.5-0.9-4
						c-0.6-2.5-1-3.8-1-3.8c-0.2-0.6-0.6-1.1-1.3-1.5c-0.6-0.4-1.4-0.6-2.2-0.6c-1.5,0-2.3,0.4-2.3,1.1c0,0.3,0.1,0.5,0.3,0.8
						c0.2,0.2,0.5,0.3,0.8,0.3c0.2,0,0.3,0,0.5-0.1c0.1-0.1,0.2-0.3,0.2-0.5c0-0.1,0-0.2,0-0.3s-0.1-0.2-0.1-0.2
						c-0.1-0.1-0.1-0.1-0.1-0.2c0-0.1-0.1-0.1-0.1-0.1l0,0l0,0c0.1,0,0.4,0,1,0c0.4,0,0.7,0.1,1,0.2s0.5,0.3,0.7,0.5
						c0.2,0.2,0.4,0.5,0.5,0.8c0.1,0.2,0.2,0.5,0.3,1C579.6-348.9,579.6-348.6,579.6-348.5z M580.8-343.8l-0.1,0.2
						c0,0.1-0.1,0.2-0.1,0.2s-0.1,0.1-0.1,0.2c0,0.1-0.1,0.2-0.2,0.2c-0.1,0-0.1,0.1-0.2,0.2c-0.1,0.1-0.2,0.1-0.3,0.1s-0.2,0-0.4,0
						c-0.5,0-0.9-0.3-1.4-0.9c-0.3-0.4-0.6-1.1-0.8-2s-0.3-1.5-0.3-1.9c0-0.9,0.3-1.3,1-1.3c0.6,0,1.2,0.4,1.8,1.2l0.1,0.2
						L580.8-343.8z"/>
				</g>
			</g>
			<g id="XMLID_155_">
				<g id="MJMAIN-28_1_">
					<path d="M584-345.1c0,0.8,0.1,1.5,0.2,2.2c0.1,0.7,0.2,1.3,0.4,1.8c0.1,0.5,0.3,1,0.6,1.4c0.3,0.5,0.5,0.8,0.6,1.1
						c0.2,0.3,0.4,0.5,0.7,0.9c0.3,0.4,0.5,0.5,0.5,0.6c0.1,0.1,0.2,0.2,0.4,0.3h0.2h0.1c0.2,0,0.2,0,0.2-0.1c0,0-0.1-0.1-0.3-0.3
						c-0.2-0.2-0.4-0.5-0.7-0.9c-0.3-0.4-0.5-0.9-0.8-1.4c-0.3-0.6-0.5-1.3-0.7-2.3s-0.3-2-0.3-3.2c0-1.2,0.1-2.2,0.3-3.2
						c0.2-0.9,0.4-1.7,0.7-2.3c0.3-0.6,0.5-1.1,0.8-1.4c0.3-0.4,0.5-0.7,0.7-0.9c0.2-0.2,0.3-0.3,0.3-0.3c0-0.1-0.1-0.1-0.2-0.1l0,0
						h-0.2l-0.5,0.4c-1,0.9-1.8,2.1-2.3,3.5C584.2-348,584-346.6,584-345.1z"/>
				</g>
			</g>
			<g id="XMLID_154_">
				<g id="MJMATHI-7A_3_">
					<path d="M594.6-343.6c-0.1,0-0.4,0.1-0.9,0.2s-0.8,0.2-1,0.2s-0.4,0-0.6-0.1c-0.2,0-0.3-0.1-0.4-0.2c-0.1-0.1-0.2-0.1-0.2-0.2
						s-0.1-0.1-0.1-0.2v-0.1c0,0-0.1,0-0.2,0c-0.2,0-0.3,0-0.3,0.1c0,0.1,0,0.1,0,0.2c0.1,0.4,0.4,0.8,0.7,1.1
						c0.3,0.3,0.7,0.5,1.1,0.6c0.1,0,0.2,0,0.3,0c0.3,0,0.5-0.1,0.7-0.3s0.4-0.4,0.6-0.5c0.2-0.2,0.4-0.3,0.6-0.3s0.5,0.2,0.7,0.5
						c0.2,0.4,0.4,0.5,0.4,0.5s0.1,0,0.2,0h0.2c0.1-0.1,0.1-0.1,0.1-0.1s0-0.1-0.1-0.2c-0.1-0.1-0.1-0.2-0.2-0.3
						c-0.1-0.1-0.2-0.2-0.3-0.4c-0.1-0.1-0.2-0.2-0.2-0.3l-0.1-0.1c-0.5-0.6-1.2-1.3-2.2-2.2c-1-0.9-1.7-1.5-1.9-1.8l-0.2-0.2h0.2
						c0.2,0,0.6-0.1,1.1-0.2s0.8-0.2,1-0.2c0.4,0,0.8,0.1,1.2,0.3s0.6,0.5,0.7,0.8c0,0.1,0.1,0.2,0.1,0.2s0.1,0,0.2,0
						c0.2,0,0.3-0.1,0.3-0.2c0-0.1,0-0.1,0-0.1c-0.2-0.7-0.5-1.2-1.1-1.7c-0.5-0.5-1.1-0.7-1.6-0.7c-0.3,0-0.5,0.1-0.8,0.3
						c-0.2,0.2-0.4,0.4-0.6,0.6c-0.2,0.2-0.4,0.3-0.6,0.3c-0.5,0-0.9-0.3-1.3-1c-0.1-0.1-0.2-0.1-0.3-0.1h-0.1h-0.2
						c-0.1,0.1-0.1,0.1-0.1,0.1c0,0.2,0.3,0.6,1,1.4c0.4,0.5,1.2,1.2,2.2,2.1c1,0.9,1.7,1.5,1.9,1.8
						C594.6-343.7,594.6-343.6,594.6-343.6z"/>
				</g>
			</g>
			<g id="XMLID_153_">
				<g id="MJMAIN-29_1_">
					<path d="M597.5-336.9L597.5-336.9c0.1,0,0.2,0,0.2,0h0.2l0.5-0.4c1-0.9,1.8-2.1,2.3-3.5s0.7-2.8,0.7-4.3c0-0.7-0.1-1.5-0.2-2.2
						c-0.1-0.7-0.2-1.3-0.4-1.8c-0.1-0.5-0.3-1-0.6-1.4c-0.3-0.5-0.5-0.9-0.6-1.1c-0.1-0.2-0.4-0.5-0.7-0.8
						c-0.3-0.3-0.5-0.5-0.5-0.5c-0.1-0.1-0.2-0.2-0.4-0.3l-0.1-0.1h-0.2c-0.1,0-0.1,0-0.2,0c-0.1,0-0.1,0-0.1,0v0.1
						c0,0,0.1,0.1,0.2,0.2c1.7,1.8,2.6,4.4,2.6,7.8s-0.9,6.1-2.6,7.8c-0.1,0.1-0.2,0.2-0.2,0.2C597.5-337,597.5-336.9,597.5-336.9z"
						/>
				</g>
			</g>
			<g id="XMLID_150_">
				<g id="MJMAIN-3D_4_">
					<path d="M608.4-343.5c0,0.1,0.1,0.3,0.2,0.3h10.5c0.2-0.1,0.2-0.2,0.2-0.3c0-0.1-0.1-0.2-0.2-0.3h-5.2h-5.2
						C608.5-343.8,608.4-343.6,608.4-343.5z M608.4-346.7c0,0.2,0.1,0.3,0.3,0.3h10.5c0.2-0.1,0.2-0.2,0.2-0.3s-0.1-0.3-0.2-0.3
						h-10.5C608.5-346.9,608.4-346.8,608.4-346.7z"/>
				</g>
			</g>
			<g id="XMLID_136_" transform="translate(2784,0)">
				<g id="XMLID_137_" transform="translate(397,0)">
					<g id="XMLID_149_">
						<polygon points="-2554.1,-344.6 -2499.9,-344.6 -2499.9,-344.6 						"/>
						<rect x="-2554.1" y="-345.1" width="54.2" height="1"/>
					</g>
					<g id="XMLID_148_">
						<g id="MJMAIN-31_3_">
							<path d="M-2527.6-328.5l-0.2-0.1c-0.2-0.1-0.4-0.1-0.7-0.2s-0.6-0.1-1-0.1h-0.3v0.8h0.3c0.5,0,1,0.1,1.4,0.2
								c0.4,0.1,0.7,0.3,0.9,0.4c0.2,0.1,0.3,0.2,0.5,0.4c0,0,0.1,0,0.2,0c0.1,0,0.2,0,0.3-0.1v-4.9v-4.9c0.1-0.1,0.1-0.1,0.2-0.1
								c0.1,0,0.2,0,0.4-0.1c0.2,0,0.5,0,1,0h0.4v-0.8h-0.2c-0.2,0-1.1,0-2.6,0s-2.4,0-2.6,0h-0.2v0.8h0.4c0.2,0,0.4,0,0.6,0
								c0.2,0,0.3,0,0.4,0c0.1,0,0.2,0,0.3,0s0.1,0,0.1,0s0,0,0.1,0.1s0.1,0.1,0.1,0.1v8.5H-2527.6z"/>
						</g>
					</g>
					<g id="XMLID_138_" transform="translate(60,-686)">
						<g id="XMLID_147_">
							<g id="MJMAIN-31_2_">
								<path d="M-2609.6,335l-0.2-0.1c-0.2-0.1-0.4-0.1-0.7-0.2c-0.3-0.1-0.6-0.1-1-0.1h-0.3v0.8h0.3c0.5,0,1,0.1,1.4,0.2
									c0.4,0.1,0.7,0.3,0.9,0.4c0.2,0.1,0.3,0.2,0.5,0.4c0,0,0.1,0,0.2,0c0.1,0,0.2,0,0.3-0.1v-4.9v-4.9c0.1-0.1,0.1-0.1,0.2-0.1
									s0.2,0,0.4-0.1s0.5,0,1,0h0.4v-0.8h-0.2c-0.2,0-1.1,0-2.6,0s-2.4,0-2.6,0h-0.2v0.8h0.4c0.2,0,0.5,0,0.6,0s0.3,0,0.4,0
									s0.2,0,0.3,0s0.1,0,0.1,0s0,0,0.1,0.1s0.1,0.1,0.1,0.1v8.5H-2609.6z"/>
							</g>
						</g>
						<g id="XMLID_146_">
							<g id="MJMAIN-2B_1_">
								<path d="M-2600.3,329.4c0,0,0,0.1,0,0.2s0.1,0.3,0.2,0.3h4.9v2.5v2.5c0.1,0.1,0.2,0.2,0.3,0.2s0.3-0.1,0.3-0.2V330h4.9
									c0.2-0.1,0.2-0.2,0.2-0.3s-0.1-0.2-0.2-0.3h-4.9v-5c-0.1-0.2-0.2-0.2-0.3-0.2l0,0l0,0c-0.1,0-0.2,0.1-0.3,0.2v4.9h-4.9
									c-0.2,0.1-0.2,0.2-0.2,0.3V329.4z"/>
							</g>
						</g>
						<g id="XMLID_139_" transform="translate(1723,0)">
							<g id="XMLID_143_">
								<g id="MJMATHI-65_1_">
									<path d="M-4307.1,328.3c0,0.6,0.1,1.2,0.3,1.7c0.2,0.5,0.5,0.9,0.8,1.3c0.3,0.3,0.7,0.6,1.1,0.9c0.4,0.2,0.8,0.4,1.2,0.5
										s0.7,0.2,1,0.1l0,0c0.5,0,0.9-0.1,1.3-0.4c0.4-0.2,0.5-0.6,0.5-1.1c0-1-0.6-1.6-1.8-1.9c-0.5-0.1-1.3-0.2-2.2-0.2
										c-0.4,0-0.6,0-0.6,0s0-0.2-0.1-0.6c-0.1-0.4-0.1-0.7-0.1-1c0-0.5,0.1-0.9,0.3-1.2c0.2-0.3,0.6-0.5,1-0.5
										c0.5,0,1,0.1,1.5,0.3c0.6,0.2,1.1,0.6,1.5,1.1c0.1,0.1,0.2,0.2,0.2,0.2s0.1,0,0.2-0.1s0.2-0.2,0.2-0.2c0-0.1,0-0.1-0.1-0.3
										c-0.1-0.1-0.3-0.3-0.5-0.4c-0.2-0.2-0.5-0.3-0.8-0.5s-0.6-0.3-1-0.4c-0.4-0.1-0.8-0.2-1.3-0.2c-0.9,0-1.5,0.3-2,0.9
										C-4306.9,326.8-4307.1,327.5-4307.1,328.3z M-4301.6,331.3c-0.1,0.6-0.4,0.9-1.1,0.9c-0.4,0-0.7-0.1-1-0.2
										c-0.3-0.2-0.6-0.3-0.7-0.6c-0.2-0.2-0.3-0.4-0.5-0.7c-0.1-0.2-0.2-0.4-0.3-0.6c0-0.2-0.1-0.3-0.1-0.3s0.1,0,0.3,0
										c1.2,0,2.1,0.1,2.6,0.4C-4301.9,330.5-4301.6,330.8-4301.6,331.3z"/>
								</g>
							</g>
							<g id="XMLID_140_" transform="translate(466,288)">
								<g id="XMLID_142_" transform="scale(0.707)">
									<g id="MJMAIN-2212_1_">
										<path d="M-4656.3-47.2c0,0,0,0.1,0,0.2s0.1,0.2,0.2,0.2h6.8c0.1-0.1,0.2-0.1,0.2-0.2s-0.1-0.2-0.2-0.2h-6.8
											c-0.1,0.1-0.2,0.1-0.2,0.2V-47.2z"/>
									</g>
								</g>
								<g id="XMLID_141_" transform="scale(0.707)">
									<g id="MJMATHI-7A_2_">
										<path d="M-4644.2-46c-0.1,0-0.3,0-0.6,0.1c-0.3,0.1-0.6,0.1-0.7,0.1s-0.3,0-0.4,0s-0.2-0.1-0.3-0.1
											c-0.1,0-0.1-0.1-0.1-0.1l-0.1-0.1l0,0c0,0-0.1,0-0.2,0c-0.2,0-0.2,0-0.2,0.1c0,0,0,0.1,0,0.2c0.1,0.3,0.3,0.6,0.5,0.8
											s0.5,0.3,0.8,0.4c0.1,0,0.2,0,0.2,0c0.2,0,0.4-0.1,0.5-0.2s0.3-0.3,0.4-0.4s0.3-0.2,0.4-0.2c0.2,0,0.3,0.1,0.5,0.4
											s0.3,0.4,0.3,0.4s0.1,0,0.2,0h0.2l0.1-0.1c0,0,0-0.1-0.1-0.2c0-0.1-0.1-0.2-0.2-0.2c-0.1-0.1-0.1-0.2-0.2-0.3
											s-0.1-0.2-0.2-0.2l-0.1-0.1c-0.3-0.4-0.9-0.9-1.6-1.6s-1.2-1.1-1.3-1.3l-0.1-0.1h0.2c0.2,0,0.4,0,0.7-0.1
											c0.3-0.1,0.6-0.1,0.7-0.1c0.3,0,0.6,0.1,0.8,0.2c0.2,0.1,0.4,0.3,0.5,0.6c0,0.1,0.1,0.1,0.1,0.1s0.1,0,0.2,0
											s0.2,0,0.2-0.1v-0.1c-0.1-0.5-0.4-0.9-0.8-1.2c-0.4-0.3-0.8-0.5-1.1-0.5c-0.2,0-0.4,0.1-0.5,0.2s-0.3,0.3-0.5,0.4
											s-0.3,0.2-0.4,0.2c-0.3,0-0.6-0.2-0.9-0.7c0-0.1-0.1-0.1-0.2-0.1h-0.1h-0.2l-0.1,0.1c0,0.1,0.2,0.5,0.7,1
											c0.3,0.3,0.8,0.9,1.5,1.5s1.2,1.1,1.3,1.3C-4644.2-46.1-4644.1-46-4644.2-46z"/>
									</g>
								</g>
							</g>
						</g>
					</g>
				</g>
			</g>
		</g>
	</g>
	<g>
		<path d="M733,336.8L733,336.8l-1,0.5l-0.1-0.6l1.2-0.7h0.6v5.6H733V336.8z"/>
		<path d="M738.2,337.5l0.6,2.1c0.1,0.5,0.2,0.9,0.3,1.3h0c0.1-0.4,0.2-0.9,0.4-1.3l0.7-2.1h0.6l0.6,2.1c0.2,0.5,0.3,0.9,0.4,1.4h0
			c0.1-0.4,0.2-0.9,0.3-1.4l0.6-2.1h0.8l-1.3,4.2h-0.7l-0.6-2c-0.1-0.5-0.3-0.9-0.4-1.4h0c-0.1,0.5-0.2,0.9-0.4,1.4l-0.7,2h-0.7
			l-1.3-4.2H738.2z"/>
		<path d="M744.6,339.7c0,1,0.7,1.5,1.4,1.5c0.5,0,0.9-0.1,1.2-0.2l0.1,0.5c-0.3,0.1-0.7,0.3-1.4,0.3c-1.3,0-2.1-0.8-2.1-2.1
			c0-1.3,0.7-2.3,2-2.3c1.4,0,1.7,1.2,1.7,2c0,0.2,0,0.3,0,0.4H744.6z M746.8,339.2c0-0.5-0.2-1.2-1.1-1.2c-0.8,0-1.1,0.7-1.2,1.2
			H746.8z"/>
		<path d="M748.5,338.6c0-0.4,0-0.8,0-1.1h0.7l0,0.7h0c0.2-0.4,0.7-0.8,1.4-0.8c0.6,0,1.5,0.3,1.5,1.8v2.5h-0.8v-2.4
			c0-0.7-0.3-1.2-1-1.2c-0.5,0-0.9,0.4-1,0.8c0,0.1-0.1,0.2-0.1,0.4v2.5h-0.8V338.6z"/>
		<path d="M753.3,338.6c0-0.4,0-0.8,0-1.1h0.7l0,0.7h0c0.2-0.4,0.7-0.8,1.4-0.8c0.6,0,1.5,0.3,1.5,1.8v2.5h-0.8v-2.4
			c0-0.7-0.3-1.2-1-1.2c-0.5,0-0.9,0.4-1,0.8c0,0.1-0.1,0.2-0.1,0.4v2.5h-0.8V338.6z"/>
		<path d="M760.3,337.5l0.6,0.9c0.2,0.2,0.3,0.5,0.4,0.7h0c0.1-0.3,0.3-0.5,0.4-0.7l0.6-0.9h0.8l-1.4,2l1.5,2.2h-0.9l-0.6-0.9
			c-0.2-0.2-0.3-0.5-0.5-0.7h0c-0.1,0.3-0.3,0.5-0.4,0.7l-0.6,0.9h-0.8l1.5-2.1l-1.4-2.1H760.3z"/>
		<path d="M769.4,337.5c0,0.3,0,0.6,0,1.2v2.4c0,1-0.2,1.5-0.6,1.9c-0.4,0.4-1,0.5-1.5,0.5c-0.5,0-1.1-0.1-1.4-0.3l0.2-0.6
			c0.3,0.2,0.7,0.3,1.2,0.3c0.8,0,1.3-0.4,1.3-1.5V341h0c-0.2,0.4-0.7,0.7-1.3,0.7c-1,0-1.8-0.9-1.8-2c0-1.4,0.9-2.2,1.9-2.2
			c0.7,0,1.1,0.4,1.3,0.7h0l0-0.6H769.4z M768.6,339.2c0-0.1,0-0.2,0-0.3c-0.1-0.4-0.5-0.8-1.1-0.8c-0.7,0-1.2,0.6-1.2,1.6
			c0,0.8,0.4,1.5,1.2,1.5c0.5,0,0.9-0.3,1.1-0.8c0-0.1,0.1-0.3,0.1-0.4V339.2z"/>
		<path d="M770.6,338.8c0-0.5,0-0.9,0-1.3h0.7l0,0.8h0c0.2-0.6,0.6-0.9,1.2-0.9c0.1,0,0.1,0,0.2,0v0.7c-0.1,0-0.2,0-0.3,0
			c-0.5,0-0.9,0.4-1,1c0,0.1,0,0.2,0,0.4v2.2h-0.8V338.8z"/>
		<path d="M777.1,339.6c0,1.5-1.1,2.2-2.1,2.2c-1.1,0-2-0.8-2-2.2c0-1.4,0.9-2.2,2.1-2.2C776.3,337.4,777.1,338.3,777.1,339.6z
			 M773.8,339.6c0,0.9,0.5,1.6,1.3,1.6c0.7,0,1.3-0.7,1.3-1.6c0-0.7-0.4-1.6-1.3-1.6C774.2,338,773.8,338.8,773.8,339.6z
			 M773.8,336.3c0-0.2,0.2-0.4,0.4-0.4s0.4,0.2,0.4,0.4c0,0.2-0.2,0.4-0.4,0.4C774,336.8,773.8,336.6,773.8,336.3z M775.4,336.3
			c0-0.2,0.2-0.4,0.4-0.4s0.4,0.2,0.4,0.4c0,0.2-0.2,0.4-0.4,0.4C775.6,336.8,775.4,336.6,775.4,336.3z"/>
		<path d="M778.1,341.7v-3.9c0-1,0.2-1.5,0.6-1.9c0.3-0.3,0.7-0.4,1.3-0.4c0.8,0,1.5,0.5,1.5,1.5c0,0.3-0.1,0.6-0.2,0.7
			c-0.4,0.2-0.6,0.4-0.6,0.7c0,0.3,0.2,0.5,0.4,0.8c0.3,0.3,0.7,0.7,0.7,1.3c0,0.8-0.6,1.4-1.5,1.4c-0.3,0-0.7-0.1-0.9-0.2l0.1-0.6
			c0.2,0.1,0.5,0.2,0.7,0.2c0.6,0,0.8-0.3,0.8-0.7c0-0.4-0.2-0.6-0.5-0.9c-0.4-0.3-0.7-0.7-0.7-1.2c0-0.4,0.3-0.8,0.8-1.1
			c0-0.1,0.1-0.2,0.1-0.4c0-0.6-0.4-0.9-0.9-0.9c-0.7,0-1,0.5-1,1.7v3.9H778.1z"/>
		<path d="M783.2,339.7c0,1,0.7,1.5,1.4,1.5c0.5,0,0.9-0.1,1.2-0.2l0.1,0.5c-0.3,0.1-0.7,0.3-1.4,0.3c-1.3,0-2.1-0.8-2.1-2.1
			c0-1.3,0.7-2.3,2-2.3c1.4,0,1.7,1.2,1.7,2c0,0.2,0,0.3,0,0.4H783.2z M785.5,339.2c0-0.5-0.2-1.2-1.1-1.2c-0.8,0-1.1,0.7-1.2,1.2
			H785.5z"/>
		<path d="M787.1,338.8c0-0.5,0-0.9,0-1.3h0.7l0,0.8h0c0.2-0.6,0.6-0.9,1.2-0.9c0.1,0,0.1,0,0.2,0v0.7c-0.1,0-0.2,0-0.3,0
			c-0.5,0-0.9,0.4-1,1c0,0.1,0,0.2,0,0.4v2.2h-0.8V338.8z"/>
		<path d="M795.3,338.8c0,1.9-0.7,3-2,3c-1.1,0-1.8-1-1.9-2.9c0-1.9,0.8-2.9,2-2.9C794.6,336,795.3,337,795.3,338.8z M792.2,338.9
			c0,1.5,0.4,2.3,1.1,2.3c0.8,0,1.2-0.9,1.2-2.3c0-1.4-0.4-2.3-1.1-2.3C792.7,336.6,792.2,337.4,792.2,338.9z"/>
		<path d="M796.1,341.2c0-0.3,0.2-0.5,0.5-0.5s0.5,0.2,0.5,0.5c0,0.3-0.2,0.5-0.5,0.5C796.3,341.8,796.1,341.6,796.1,341.2z"/>
		<path d="M801.1,336.7H799l-0.2,1.4c0.1,0,0.3,0,0.5,0c0.4,0,0.9,0.1,1.2,0.3c0.4,0.3,0.8,0.7,0.8,1.4c0,1.1-0.9,1.9-2.1,1.9
			c-0.6,0-1.1-0.2-1.4-0.3l0.2-0.6c0.2,0.1,0.7,0.3,1.2,0.3c0.7,0,1.3-0.5,1.3-1.2c0-0.7-0.5-1.2-1.6-1.2c-0.3,0-0.6,0-0.8,0.1
			l0.4-2.7h2.7V336.7z"/>
		<path d="M735.1,356.6c0,1.9-0.7,3-2,3c-1.1,0-1.8-1-1.9-2.9c0-1.9,0.8-2.9,2-2.9C734.5,353.8,735.1,354.8,735.1,356.6z
			 M732.1,356.7c0,1.5,0.4,2.3,1.1,2.3c0.8,0,1.2-0.9,1.2-2.3c0-1.4-0.4-2.3-1.1-2.3C732.6,354.4,732.1,355.2,732.1,356.7z"/>
		<path d="M738.2,355.3l0.6,2.1c0.1,0.5,0.2,0.9,0.3,1.3h0c0.1-0.4,0.2-0.9,0.4-1.3l0.7-2.1h0.6l0.6,2.1c0.2,0.5,0.3,0.9,0.4,1.4h0
			c0.1-0.4,0.2-0.9,0.3-1.4l0.6-2.1h0.8l-1.3,4.2h-0.7l-0.6-2c-0.1-0.5-0.3-0.9-0.4-1.4h0c-0.1,0.5-0.2,0.9-0.4,1.4l-0.7,2h-0.7
			l-1.3-4.2H738.2z"/>
		<path d="M744.6,357.5c0,1,0.7,1.5,1.4,1.5c0.5,0,0.9-0.1,1.2-0.2l0.1,0.5c-0.3,0.1-0.7,0.3-1.4,0.3c-1.3,0-2.1-0.8-2.1-2.1
			c0-1.3,0.7-2.3,2-2.3c1.4,0,1.7,1.2,1.7,2c0,0.2,0,0.3,0,0.4H744.6z M746.8,357c0-0.5-0.2-1.2-1.1-1.2c-0.8,0-1.1,0.7-1.2,1.2
			H746.8z"/>
		<path d="M748.5,356.5c0-0.4,0-0.8,0-1.1h0.7l0,0.7h0c0.2-0.4,0.7-0.8,1.4-0.8c0.6,0,1.5,0.3,1.5,1.8v2.5h-0.8v-2.4
			c0-0.7-0.3-1.2-1-1.2c-0.5,0-0.9,0.4-1,0.8c0,0.1-0.1,0.2-0.1,0.4v2.5h-0.8V356.5z"/>
		<path d="M753.3,356.5c0-0.4,0-0.8,0-1.1h0.7l0,0.7h0c0.2-0.4,0.7-0.8,1.4-0.8c0.6,0,1.5,0.3,1.5,1.8v2.5h-0.8v-2.4
			c0-0.7-0.3-1.2-1-1.2c-0.5,0-0.9,0.4-1,0.8c0,0.1-0.1,0.2-0.1,0.4v2.5h-0.8V356.5z"/>
		<path d="M760.3,355.3l0.6,0.9c0.2,0.2,0.3,0.5,0.4,0.7h0c0.1-0.3,0.3-0.5,0.4-0.7l0.6-0.9h0.8l-1.4,2l1.5,2.2h-0.9l-0.6-0.9
			c-0.2-0.2-0.3-0.5-0.5-0.7h0c-0.1,0.3-0.3,0.5-0.4,0.7l-0.6,0.9h-0.8l1.5-2.1l-1.4-2.1H760.3z"/>
		<path d="M766.5,357.2L766.5,357.2c0.1-0.1,0.3-0.3,0.4-0.5l1.2-1.4h0.9l-1.6,1.7l1.8,2.5h-0.9l-1.4-2l-0.4,0.4v1.6h-0.8v-6.1h0.8
			V357.2z"/>
		<path d="M770,353.4h0.8v6.1H770V353.4z"/>
		<path d="M772.5,357.5c0,1,0.7,1.5,1.4,1.5c0.5,0,0.9-0.1,1.2-0.2l0.1,0.5c-0.3,0.1-0.7,0.3-1.4,0.3c-1.3,0-2.1-0.8-2.1-2.1
			c0-1.3,0.7-2.3,2-2.3c1.4,0,1.7,1.2,1.7,2c0,0.2,0,0.3,0,0.4H772.5z M774.7,357c0-0.5-0.2-1.2-1.1-1.2c-0.8,0-1.1,0.7-1.2,1.2
			H774.7z"/>
		<path d="M777.2,354.1c0,0.3-0.2,0.5-0.5,0.5c-0.3,0-0.5-0.2-0.5-0.5c0-0.3,0.2-0.5,0.5-0.5C777,353.7,777.2,353.9,777.2,354.1z
			 M776.4,359.5v-4.2h0.8v4.2H776.4z"/>
		<path d="M778.4,356.5c0-0.4,0-0.8,0-1.1h0.7l0,0.7h0c0.2-0.4,0.7-0.8,1.4-0.8c0.6,0,1.5,0.3,1.5,1.8v2.5h-0.8v-2.4
			c0-0.7-0.3-1.2-1-1.2c-0.5,0-0.9,0.4-1,0.8c0,0.1-0.1,0.2-0.1,0.4v2.5h-0.8V356.5z"/>
		<path d="M783.6,357.5c0,1,0.7,1.5,1.4,1.5c0.5,0,0.9-0.1,1.2-0.2l0.1,0.5c-0.3,0.1-0.7,0.3-1.4,0.3c-1.3,0-2.1-0.8-2.1-2.1
			c0-1.3,0.7-2.3,2-2.3c1.4,0,1.7,1.2,1.7,2c0,0.2,0,0.3,0,0.4H783.6z M785.8,357c0-0.5-0.2-1.2-1.1-1.2c-0.8,0-1.1,0.7-1.2,1.2
			H785.8z"/>
		<path d="M787.5,356.6c0-0.5,0-0.9,0-1.3h0.7l0,0.8h0c0.2-0.6,0.6-0.9,1.2-0.9c0.1,0,0.1,0,0.2,0v0.7c-0.1,0-0.2,0-0.3,0
			c-0.5,0-0.9,0.4-1,1c0,0.1,0,0.2,0,0.4v2.2h-0.8V356.6z"/>
		<path d="M795.7,356.6c0,1.9-0.7,3-2,3c-1.1,0-1.8-1-1.9-2.9c0-1.9,0.8-2.9,2-2.9C795,353.8,795.7,354.8,795.7,356.6z M792.6,356.7
			c0,1.5,0.4,2.3,1.1,2.3c0.8,0,1.2-0.9,1.2-2.3c0-1.4-0.4-2.3-1.1-2.3C793.1,354.4,792.6,355.2,792.6,356.7z"/>
		<path d="M796.4,359.1c0-0.3,0.2-0.5,0.5-0.5s0.5,0.2,0.5,0.5c0,0.3-0.2,0.5-0.5,0.5C796.7,359.6,796.4,359.4,796.4,359.1z"/>
		<path d="M801.5,354.5h-2.1l-0.2,1.4c0.1,0,0.3,0,0.5,0c0.4,0,0.9,0.1,1.2,0.3c0.4,0.3,0.8,0.7,0.8,1.4c0,1.1-0.9,1.9-2.1,1.9
			c-0.6,0-1.1-0.2-1.4-0.3l0.2-0.6c0.2,0.1,0.7,0.3,1.2,0.3c0.7,0,1.3-0.5,1.3-1.2c0-0.7-0.5-1.2-1.6-1.2c-0.3,0-0.6,0-0.8,0.1
			l0.4-2.7h2.7V354.5z"/>
	</g>
</g>
<g id="Ebene_3">
</g>
<g>
	<path d="M404.4,99.7l0.9,2.7c0.2,0.4,0.3,0.8,0.4,1.2h0c0.1-0.4,0.2-0.8,0.4-1.2l0.9-2.7h0.9l-1.9,4.8h-0.8l-1.8-4.8H404.4z"/>
	<path d="M409.2,102.2c0,1.2,0.8,1.7,1.7,1.7c0.6,0,1-0.1,1.3-0.2l0.1,0.6c-0.3,0.1-0.8,0.3-1.6,0.3c-1.5,0-2.4-1-2.4-2.4
		s0.9-2.6,2.3-2.6c1.6,0,2,1.4,2,2.3c0,0.2,0,0.3,0,0.4H409.2z M411.8,101.6c0-0.6-0.2-1.4-1.2-1.4c-0.9,0-1.3,0.8-1.3,1.4H411.8z"
		/>
	<path d="M413.7,101.2c0-0.6,0-1.1,0-1.5h0.8l0,0.9h0c0.2-0.6,0.7-1.1,1.3-1.1c0.1,0,0.2,0,0.2,0v0.8c-0.1,0-0.2,0-0.3,0
		c-0.6,0-1.1,0.5-1.2,1.1c0,0.1,0,0.3,0,0.4v2.6h-0.9V101.2z"/>
	<path d="M419.6,104.5l-0.1-0.6h0c-0.3,0.4-0.8,0.7-1.5,0.7c-1,0-1.5-0.7-1.5-1.4c0-1.2,1-1.8,2.9-1.8v-0.1c0-0.4-0.1-1.1-1.1-1.1
		c-0.4,0-0.9,0.1-1.3,0.4l-0.2-0.6c0.4-0.3,1-0.4,1.6-0.4c1.5,0,1.8,1,1.8,2v1.8c0,0.4,0,0.8,0.1,1.2H419.6z M417.2,98.3
		c0-0.3,0.2-0.5,0.5-0.5c0.3,0,0.5,0.2,0.5,0.5c0,0.3-0.2,0.5-0.5,0.5C417.4,98.8,417.2,98.6,417.2,98.3z M419.5,102
		c-1,0-2,0.1-2,1.1c0,0.6,0.4,0.8,0.8,0.8c0.6,0,1-0.4,1.2-0.8c0-0.1,0-0.2,0-0.3V102z M419.1,98.3c0-0.3,0.2-0.5,0.5-0.5
		c0.3,0,0.5,0.2,0.5,0.5c0,0.3-0.2,0.5-0.5,0.5C419.3,98.8,419.1,98.6,419.1,98.3z"/>
	<path d="M421.8,101c0-0.5,0-0.9,0-1.3h0.8l0,0.8h0c0.2-0.5,0.8-0.9,1.6-0.9c0.7,0,1.7,0.4,1.7,2.1v2.9H425v-2.8
		c0-0.8-0.3-1.4-1.1-1.4c-0.6,0-1,0.4-1.2,0.9c0,0.1-0.1,0.3-0.1,0.4v2.9h-0.9V101z"/>
	<path d="M431.5,97.4v5.8c0,0.4,0,0.9,0,1.2h-0.8l0-0.8h0c-0.3,0.5-0.9,0.9-1.6,0.9c-1.2,0-2.1-1-2.1-2.5c0-1.6,1-2.6,2.2-2.6
		c0.7,0,1.2,0.3,1.5,0.7h0v-2.9H431.5z M430.6,101.6c0-0.1,0-0.3,0-0.4c-0.1-0.6-0.6-1-1.3-1c-0.9,0-1.4,0.8-1.4,1.9
		c0,1,0.5,1.8,1.4,1.8c0.6,0,1.1-0.4,1.3-1c0-0.1,0-0.2,0-0.4V101.6z"/>
	<path d="M433.4,102.2c0,1.2,0.8,1.7,1.7,1.7c0.6,0,1-0.1,1.3-0.2l0.1,0.6c-0.3,0.1-0.8,0.3-1.6,0.3c-1.5,0-2.4-1-2.4-2.4
		s0.9-2.6,2.3-2.6c1.6,0,2,1.4,2,2.3c0,0.2,0,0.3,0,0.4H433.4z M436,101.6c0-0.6-0.2-1.4-1.2-1.4c-0.9,0-1.3,0.8-1.3,1.4H436z"/>
	<path d="M437.9,101.2c0-0.6,0-1.1,0-1.5h0.8l0,0.9h0c0.2-0.6,0.7-1.1,1.3-1.1c0.1,0,0.2,0,0.2,0v0.8c-0.1,0-0.2,0-0.3,0
		c-0.6,0-1.1,0.5-1.2,1.1c0,0.1,0,0.3,0,0.4v2.6h-0.9V101.2z"/>
	<path d="M441.6,102.2c0,1.2,0.8,1.7,1.7,1.7c0.6,0,1-0.1,1.3-0.2l0.1,0.6c-0.3,0.1-0.8,0.3-1.6,0.3c-1.5,0-2.4-1-2.4-2.4
		s0.9-2.6,2.3-2.6c1.6,0,2,1.4,2,2.3c0,0.2,0,0.3,0,0.4H441.6z M444.1,101.6c0-0.6-0.2-1.4-1.2-1.4c-0.9,0-1.3,0.8-1.3,1.4H444.1z"
		/>
	<path d="M405.6,125l-2.2-6.7h0.9l1,3.3c0.3,0.9,0.5,1.7,0.7,2.5h0c0.2-0.8,0.5-1.6,0.8-2.5l1.1-3.3h0.9l-2.4,6.7H405.6z"/>
	<path d="M412,125l-0.1-0.6h0c-0.3,0.4-0.8,0.7-1.5,0.7c-1,0-1.5-0.7-1.5-1.4c0-1.2,1-1.8,2.9-1.8v-0.1c0-0.4-0.1-1.1-1.1-1.1
		c-0.4,0-0.9,0.1-1.3,0.4l-0.2-0.6c0.4-0.3,1-0.4,1.6-0.4c1.5,0,1.8,1,1.8,2v1.8c0,0.4,0,0.8,0.1,1.2H412z M411.8,122.5
		c-1,0-2,0.1-2,1.1c0,0.6,0.4,0.8,0.8,0.8c0.6,0,1-0.4,1.2-0.8c0-0.1,0-0.2,0-0.3V122.5z"/>
	<path d="M414.1,121.7c0-0.6,0-1.1,0-1.5h0.8l0,0.9h0c0.2-0.6,0.7-1.1,1.3-1.1c0.1,0,0.2,0,0.2,0v0.8c-0.1,0-0.2,0-0.3,0
		c-0.6,0-1.1,0.5-1.2,1.1c0,0.1,0,0.3,0,0.4v2.6h-0.9V121.7z"/>
	<path d="M418.4,118.8c0,0.3-0.2,0.5-0.6,0.5c-0.3,0-0.5-0.2-0.5-0.5c0-0.3,0.2-0.5,0.5-0.5C418.2,118.3,418.4,118.5,418.4,118.8z
		 M417.4,125v-4.8h0.9v4.8H417.4z"/>
	<path d="M422.4,125l-0.1-0.6h0c-0.3,0.4-0.8,0.7-1.5,0.7c-1,0-1.5-0.7-1.5-1.4c0-1.2,1-1.8,2.9-1.8v-0.1c0-0.4-0.1-1.1-1.1-1.1
		c-0.4,0-0.9,0.1-1.3,0.4l-0.2-0.6c0.4-0.3,1-0.4,1.6-0.4c1.5,0,1.8,1,1.8,2v1.8c0,0.4,0,0.8,0.1,1.2H422.4z M422.3,122.5
		c-1,0-2,0.1-2,1.1c0,0.6,0.4,0.8,0.8,0.8c0.6,0,1-0.4,1.2-0.8c0-0.1,0-0.2,0-0.3V122.5z"/>
	<path d="M424.5,125c0-0.3,0-0.8,0-1.2v-5.8h0.9v3h0c0.3-0.5,0.9-0.9,1.6-0.9c1.2,0,2,1,2,2.5c0,1.7-1.1,2.6-2.2,2.6
		c-0.7,0-1.3-0.3-1.6-0.9h0l0,0.8H424.5z M425.4,123.1c0,0.1,0,0.2,0,0.3c0.2,0.6,0.7,1,1.3,1c0.9,0,1.5-0.7,1.5-1.9
		c0-1-0.5-1.8-1.4-1.8c-0.6,0-1.2,0.4-1.3,1.1c0,0.1,0,0.2,0,0.4V123.1z"/>
	<path d="M430.2,117.9h0.9v7.1h-0.9V117.9z"/>
	<path d="M433,122.7c0,1.2,0.8,1.7,1.7,1.7c0.6,0,1-0.1,1.3-0.2l0.1,0.6c-0.3,0.1-0.8,0.3-1.6,0.3c-1.5,0-2.4-1-2.4-2.4
		s0.9-2.6,2.3-2.6c1.6,0,2,1.4,2,2.3c0,0.2,0,0.3,0,0.4H433z M435.6,122.1c0-0.6-0.2-1.4-1.2-1.4c-0.9,0-1.3,0.8-1.3,1.4H435.6z"/>
	<path d="M437.5,121.5c0-0.5,0-0.9,0-1.3h0.8l0,0.8h0c0.2-0.5,0.8-0.9,1.6-0.9c0.7,0,1.7,0.4,1.7,2.1v2.9h-0.9v-2.8
		c0-0.8-0.3-1.4-1.1-1.4c-0.6,0-1,0.4-1.2,0.9c0,0.1-0.1,0.3-0.1,0.4v2.9h-0.9V121.5z"/>
</g>
</svg>
