<?xml version="1.0" encoding="utf-8"?>
<!-- Generator: Adobe Illustrator 19.0.0, SVG Export Plug-In . SVG Version: 6.00 Build 0)  -->
<svg version="1.1" id="Ebene_1" xmlns="http://www.w3.org/2000/svg" xmlns:xlink="http://www.w3.org/1999/xlink" x="0px" y="0px"
	 viewBox="0 0 960 560" style="enable-background:new 0 0 960 560;" xml:space="preserve">
<style type="text/css">
	.st0{fill:#FFFFFF;stroke:#000000;stroke-miterlimit:10;}
	.st1{fill:none;stroke:#000000;stroke-miterlimit:10;}
	.st2{stroke:#000000;stroke-miterlimit:10;}
	.st3{enable-background:new    ;}
</style>
<rect id="XMLID_1_" x="45.3" y="319.6" class="st0" width="202.5" height="115.8"/>
<rect id="XMLID_3_" x="277.4" y="319.2" class="st0" width="202.5" height="115.8"/>
<rect id="XMLID_6_" x="511.6" y="319.2" class="st0" width="202.5" height="115.8"/>
<rect id="XMLID_8_" x="280.7" y="149.4" class="st0" width="202.5" height="115.8"/>
<line id="XMLID_9_" class="st1" x1="247.5" y1="377.5" x2="277.3" y2="377.5"/>
<line id="XMLID_10_" class="st1" x1="479.6" y1="377.5" x2="511.7" y2="377.5"/>
<path id="XMLID_13_" class="st2" d="M262.5,374.5l6,3.5l-6,3.5l-6,3.5c0,0,0-6.6,0-6.9s0-6.9,0-6.9L262.5,374.5z"/>
<path id="XMLID_14_" class="st2" d="M498.6,373.7l6,3.5l-6,3.5l-6,3.5c0,0,0-6.6,0-6.9s0-6.9,0-6.9L498.6,373.7z"/>
<g id="XMLID_17_">
</g>
<g id="XMLID_69_">
</g>
<g id="XMLID_70_">
</g>
<g id="XMLID_71_">
</g>
<g id="XMLID_72_">
</g>
<g id="XMLID_73_">
</g>
<g id="XMLID_74_">
</g>
<g id="XMLID_75_">
</g>
<g id="XMLID_76_">
</g>
<g id="XMLID_77_">
</g>
<g id="XMLID_78_">
</g>
<g id="XMLID_79_">
</g>
<g id="XMLID_80_">
</g>
<g id="XMLID_81_">
</g>
<g id="XMLID_82_">
</g>
<rect id="XMLID_19_" x="511.4" y="149.4" class="st1" width="202.5" height="115.8"/>
<line id="XMLID_15_" class="st1" x1="613.5" y1="319.6" x2="613.5" y2="265.3"/>
<path id="XMLID_11_" class="st2" d="M610,290.8l3.5-6l3.5,6l3.5,6c0,0-6.6,0-6.9,0c-0.3,0-6.9,0-6.9,0L610,290.8z"/>
<line id="XMLID_16_" class="st1" x1="378.7" y1="265.3" x2="378.7" y2="319.6"/>
<path id="XMLID_12_" class="st2" d="M382.1,294.1l-3.5,6l-3.5-6l-3.5-6c0,0,6.6,0,6.9,0s6.9,0,6.9,0L382.1,294.1z"/>
<line id="XMLID_22_" class="st1" x1="511.4" y1="211.9" x2="482.5" y2="211.9"/>
<path id="XMLID_21_" class="st2" d="M495.7,215.6l-6-3.5l6-3.5l6-3.5c0,0,0,6.6,0,6.9c0,0.3,0,6.9,0,6.9L495.7,215.6z"/>
<g class="st3">
	<path d="M64.3,384.9v-14.6h1.9v14.6H64.3z"/>
	<path d="M69.4,384.9v-10.6H71v1.5c0.8-1.2,1.9-1.7,3.4-1.7c0.6,0,1.2,0.1,1.8,0.3c0.5,0.2,0.9,0.5,1.2,0.9c0.3,0.4,0.5,0.8,0.6,1.3
		c0.1,0.3,0.1,0.9,0.1,1.7v6.5h-1.8v-6.4c0-0.7-0.1-1.3-0.2-1.6s-0.4-0.7-0.7-0.9s-0.8-0.3-1.2-0.3c-0.8,0-1.4,0.2-2,0.7
		s-0.8,1.4-0.8,2.8v5.8H69.4z"/>
	<path d="M80.7,388.9v-14.6h1.6v1.4c0.4-0.5,0.8-0.9,1.3-1.2c0.5-0.3,1.1-0.4,1.8-0.4c0.9,0,1.7,0.2,2.4,0.7c0.7,0.5,1.2,1.1,1.6,2
		c0.4,0.8,0.5,1.8,0.5,2.8c0,1.1-0.2,2.1-0.6,2.9c-0.4,0.9-1,1.5-1.7,2s-1.5,0.7-2.3,0.7c-0.6,0-1.1-0.1-1.6-0.4
		c-0.5-0.3-0.9-0.6-1.2-1v5.1H80.7z M82.3,379.6c0,1.4,0.3,2.4,0.8,3c0.6,0.7,1.2,1,2,1c0.8,0,1.5-0.3,2-1c0.6-0.7,0.9-1.7,0.9-3.1
		c0-1.3-0.3-2.4-0.8-3c-0.6-0.7-1.2-1-2-1c-0.8,0-1.4,0.4-2,1.1C82.6,377.2,82.3,378.3,82.3,379.6z"/>
	<path d="M99,384.9v-1.6c-0.8,1.2-1.9,1.8-3.4,1.8c-0.6,0-1.2-0.1-1.7-0.4c-0.5-0.2-0.9-0.5-1.2-0.9c-0.3-0.4-0.4-0.8-0.6-1.3
		c-0.1-0.4-0.1-0.9-0.1-1.7v-6.6h1.8v5.9c0,0.9,0,1.6,0.1,1.9c0.1,0.5,0.4,0.8,0.7,1.1c0.4,0.3,0.8,0.4,1.4,0.4s1-0.1,1.5-0.4
		s0.8-0.7,1-1.1s0.3-1.2,0.3-2.1v-5.7h1.8v10.6H99z"/>
	<path d="M107.3,383.3l0.3,1.6c-0.5,0.1-1,0.2-1.4,0.2c-0.7,0-1.2-0.1-1.5-0.3c-0.4-0.2-0.6-0.5-0.8-0.8s-0.2-1-0.2-2.1v-6.1h-1.3
		v-1.4h1.3v-2.6l1.8-1.1v3.7h1.8v1.4h-1.8v6.2c0,0.5,0,0.8,0.1,1c0.1,0.1,0.2,0.3,0.3,0.3c0.1,0.1,0.3,0.1,0.6,0.1
		C106.7,383.3,107,383.3,107.3,383.3z"/>
	<path d="M112,384.9l-4-10.6h1.9l2.3,6.3c0.2,0.7,0.5,1.4,0.7,2.1c0.2-0.6,0.4-1.2,0.7-2l2.3-6.5h1.8l-4,10.6H112z"/>
	<path d="M126.5,381.5l1.9,0.2c-0.3,1.1-0.8,1.9-1.6,2.5s-1.8,0.9-3,0.9c-1.5,0-2.8-0.5-3.7-1.4c-0.9-1-1.4-2.3-1.4-4
		c0-1.8,0.5-3.2,1.4-4.1s2.1-1.5,3.6-1.5c1.4,0,2.6,0.5,3.5,1.4c0.9,1,1.3,2.3,1.3,4.1c0,0.1,0,0.3,0,0.5h-7.9
		c0.1,1.2,0.4,2.1,1,2.7s1.3,0.9,2.2,0.9c0.7,0,1.2-0.2,1.7-0.5C125.9,382.8,126.2,382.2,126.5,381.5z M120.6,378.6h5.9
		c-0.1-0.9-0.3-1.6-0.7-2c-0.6-0.7-1.3-1-2.2-1c-0.8,0-1.5,0.3-2.1,0.8S120.7,377.6,120.6,378.6z"/>
	<path d="M130.6,384.9v-14.6h1.8v8.3l4.2-4.3h2.3l-4,3.9l4.5,6.7h-2.2l-3.5-5.4l-1.3,1.2v4.2H130.6z"/>
	<path d="M144.7,383.3l0.3,1.6c-0.5,0.1-1,0.2-1.4,0.2c-0.7,0-1.2-0.1-1.5-0.3c-0.4-0.2-0.6-0.5-0.8-0.8s-0.2-1-0.2-2.1v-6.1h-1.3
		v-1.4h1.3v-2.6l1.8-1.1v3.7h1.8v1.4h-1.8v6.2c0,0.5,0,0.8,0.1,1c0.1,0.1,0.2,0.3,0.3,0.3c0.1,0.1,0.3,0.1,0.6,0.1
		C144.1,383.3,144.4,383.3,144.7,383.3z"/>
	<path d="M145.8,379.6c0-2,0.5-3.4,1.6-4.4c0.9-0.8,2-1.2,3.3-1.2c1.5,0,2.6,0.5,3.6,1.4c0.9,1,1.4,2.3,1.4,3.9
		c0,1.4-0.2,2.4-0.6,3.2c-0.4,0.8-1,1.4-1.8,1.8c-0.8,0.4-1.6,0.6-2.6,0.6c-1.5,0-2.7-0.5-3.6-1.4S145.8,381.4,145.8,379.6z
		 M147.6,379.6c0,1.4,0.3,2.4,0.9,3s1.3,1,2.2,1c0.9,0,1.6-0.3,2.2-1s0.9-1.7,0.9-3.1c0-1.3-0.3-2.3-0.9-3c-0.6-0.7-1.3-1-2.2-1
		c-0.9,0-1.6,0.3-2.2,1C147.9,377.2,147.6,378.2,147.6,379.6z"/>
	<path d="M157.8,384.9v-10.6h1.6v1.6c0.4-0.8,0.8-1.2,1.1-1.5c0.3-0.2,0.7-0.4,1.1-0.4c0.6,0,1.2,0.2,1.8,0.6l-0.6,1.7
		c-0.4-0.3-0.9-0.4-1.3-0.4c-0.4,0-0.7,0.1-1.1,0.4c-0.3,0.2-0.5,0.6-0.7,1c-0.2,0.6-0.3,1.3-0.3,2.1v5.5H157.8z"/>
	<path d="M173.7,389.2c-1-1.2-1.8-2.7-2.5-4.4c-0.7-1.7-1-3.4-1-5.2c0-1.6,0.3-3.1,0.8-4.5c0.6-1.7,1.5-3.4,2.8-5h1.3
		c-0.8,1.4-1.3,2.4-1.6,3c-0.4,0.9-0.7,1.9-1,2.9c-0.3,1.2-0.4,2.5-0.4,3.7c0,3.2,1,6.4,3,9.6H173.7z"/>
	<path d="M177.2,384.9v-14.6h5.5c1.1,0,2,0.1,2.7,0.4c0.7,0.3,1.2,0.8,1.6,1.4c0.4,0.6,0.6,1.3,0.6,1.9c0,0.6-0.2,1.2-0.5,1.8
		s-0.8,1-1.5,1.3c0.9,0.3,1.6,0.7,2,1.3c0.5,0.6,0.7,1.4,0.7,2.2c0,0.7-0.1,1.3-0.4,1.9c-0.3,0.6-0.6,1-1.1,1.4
		c-0.4,0.3-1,0.6-1.6,0.7c-0.6,0.2-1.4,0.2-2.4,0.2H177.2z M179.1,376.4h3.2c0.9,0,1.5-0.1,1.8-0.2c0.5-0.1,0.9-0.4,1.1-0.7
		c0.2-0.3,0.4-0.8,0.4-1.3c0-0.5-0.1-0.9-0.3-1.3c-0.2-0.4-0.6-0.6-1-0.8c-0.4-0.1-1.2-0.2-2.2-0.2h-2.9V376.4z M179.1,383.1h3.6
		c0.6,0,1.1,0,1.3-0.1c0.4-0.1,0.8-0.2,1.1-0.4s0.5-0.5,0.7-0.8c0.2-0.4,0.3-0.8,0.3-1.2c0-0.5-0.1-1-0.4-1.4
		c-0.3-0.4-0.7-0.7-1.2-0.8c-0.5-0.2-1.2-0.2-2.1-0.2h-3.4V383.1z"/>
	<path d="M190.7,372.3v-2.1h1.8v2.1H190.7z M190.7,384.9v-10.6h1.8v10.6H190.7z"/>
	<path d="M195.1,384.9v-14.6h1.8v14.6H195.1z"/>
	<path d="M206.6,384.9v-1.3c-0.7,1-1.7,1.6-3,1.6c-0.8,0-1.6-0.2-2.3-0.7c-0.7-0.5-1.3-1.1-1.6-1.9s-0.6-1.8-0.6-2.9
		c0-1.1,0.2-2,0.5-2.9c0.4-0.9,0.9-1.5,1.6-2s1.5-0.7,2.4-0.7c0.6,0,1.2,0.1,1.7,0.4c0.5,0.3,0.9,0.6,1.2,1.1v-5.2h1.8v14.6H206.6z
		 M200.9,379.6c0,1.4,0.3,2.4,0.9,3c0.6,0.7,1.2,1,2,1c0.8,0,1.4-0.3,2-1c0.5-0.6,0.8-1.6,0.8-2.9c0-1.4-0.3-2.5-0.8-3.2
		s-1.2-1-2.1-1c-0.8,0-1.5,0.3-2,1S200.9,378.2,200.9,379.6z"/>
	<path d="M212.2,389.2h-1.3c2-3.2,3-6.4,3-9.6c0-1.2-0.1-2.5-0.4-3.7c-0.2-1-0.5-2-0.9-2.9c-0.3-0.6-0.8-1.6-1.6-3h1.3
		c1.2,1.7,2.2,3.3,2.8,5c0.5,1.4,0.8,3,0.8,4.5c0,1.8-0.3,3.5-1,5.2S213.2,387.9,212.2,389.2z"/>
</g>
<rect id="XMLID_5_" x="746.3" y="319.2" class="st0" width="202.5" height="115.8"/>
<line id="XMLID_4_" class="st1" x1="716.4" y1="377.5" x2="746.2" y2="377.5"/>
<path id="XMLID_2_" class="st2" d="M731.4,374.5l6,3.5l-6,3.5l-6,3.5c0,0,0-6.6,0-6.9s0-6.9,0-6.9L731.4,374.5z"/>
<g class="st3">
	<path d="M306,384.9l-7.2-18.6h2.7l4.8,13.5c0.4,1.1,0.7,2.1,1,3c0.3-1,0.6-2,1-3l5-13.5h2.5l-7.3,18.6H306z"/>
	<path d="M324.6,383.2c-0.8,0.7-1.7,1.2-2.4,1.5s-1.6,0.4-2.5,0.4c-1.5,0-2.6-0.4-3.4-1.1c-0.8-0.7-1.2-1.6-1.2-2.8
		c0-0.7,0.2-1.3,0.5-1.8c0.3-0.5,0.7-1,1.2-1.3s1-0.6,1.6-0.7c0.4-0.1,1.1-0.2,2-0.3c1.8-0.2,3.2-0.5,4.1-0.8c0-0.3,0-0.5,0-0.6
		c0-0.9-0.2-1.6-0.6-2c-0.6-0.5-1.5-0.8-2.6-0.8c-1.1,0-1.9,0.2-2.4,0.6c-0.5,0.4-0.9,1-1.1,2l-2.2-0.3c0.2-1,0.5-1.7,1-2.3
		c0.5-0.6,1.1-1,2-1.4c0.9-0.3,1.9-0.5,3.1-0.5c1.2,0,2.1,0.1,2.8,0.4s1.2,0.6,1.6,1c0.3,0.4,0.6,0.9,0.7,1.6
		c0.1,0.4,0.1,1.1,0.1,2.1v3c0,2.1,0,3.5,0.1,4c0.1,0.6,0.3,1.1,0.6,1.6H325C324.8,384.4,324.7,383.8,324.6,383.2z M324.4,378.1
		c-0.8,0.3-2.1,0.6-3.7,0.9c-0.9,0.1-1.6,0.3-2,0.5s-0.7,0.4-0.9,0.7c-0.2,0.3-0.3,0.7-0.3,1.1c0,0.6,0.2,1.1,0.7,1.5s1.1,0.6,2,0.6
		c0.9,0,1.7-0.2,2.3-0.6c0.7-0.4,1.2-0.9,1.5-1.6c0.2-0.5,0.4-1.3,0.4-2.3V378.1z"/>
	<path d="M330.2,384.9v-13.5h2.1v2c0.5-1,1-1.6,1.5-1.9s0.9-0.5,1.5-0.5c0.8,0,1.6,0.2,2.3,0.7l-0.8,2.1c-0.6-0.3-1.1-0.5-1.7-0.5
		c-0.5,0-0.9,0.2-1.3,0.5c-0.4,0.3-0.7,0.7-0.9,1.3c-0.3,0.8-0.4,1.7-0.4,2.7v7.1H330.2z"/>
	<path d="M338.9,368.9v-2.6h2.3v2.6H338.9z M338.9,384.9v-13.5h2.3v13.5H338.9z"/>
	<path d="M353.5,383.2c-0.8,0.7-1.7,1.2-2.4,1.5s-1.6,0.4-2.5,0.4c-1.5,0-2.6-0.4-3.4-1.1c-0.8-0.7-1.2-1.6-1.2-2.8
		c0-0.7,0.2-1.3,0.5-1.8c0.3-0.5,0.7-1,1.2-1.3s1-0.6,1.6-0.7c0.4-0.1,1.1-0.2,2-0.3c1.8-0.2,3.2-0.5,4.1-0.8c0-0.3,0-0.5,0-0.6
		c0-0.9-0.2-1.6-0.6-2c-0.6-0.5-1.5-0.8-2.6-0.8c-1.1,0-1.9,0.2-2.4,0.6c-0.5,0.4-0.9,1-1.1,2l-2.2-0.3c0.2-1,0.5-1.7,1-2.3
		c0.5-0.6,1.1-1,2-1.4c0.9-0.3,1.9-0.5,3.1-0.5c1.2,0,2.1,0.1,2.8,0.4s1.2,0.6,1.6,1c0.3,0.4,0.6,0.9,0.7,1.6
		c0.1,0.4,0.1,1.1,0.1,2.1v3c0,2.1,0,3.5,0.1,4c0.1,0.6,0.3,1.1,0.6,1.6h-2.4C353.7,384.4,353.6,383.8,353.5,383.2z M353.3,378.1
		c-0.8,0.3-2.1,0.6-3.7,0.9c-0.9,0.1-1.6,0.3-2,0.5s-0.7,0.4-0.9,0.7c-0.2,0.3-0.3,0.7-0.3,1.1c0,0.6,0.2,1.1,0.7,1.5s1.1,0.6,2,0.6
		c0.9,0,1.7-0.2,2.3-0.6c0.7-0.4,1.2-0.9,1.5-1.6c0.2-0.5,0.4-1.3,0.4-2.3V378.1z"/>
	<path d="M361.3,384.9h-2.1v-18.6h2.3v6.6c1-1.2,2.2-1.8,3.7-1.8c0.8,0,1.6,0.2,2.4,0.5c0.7,0.3,1.4,0.8,1.8,1.4
		c0.5,0.6,0.9,1.3,1.1,2.2s0.4,1.8,0.4,2.7c0,2.3-0.6,4.1-1.7,5.4s-2.5,1.9-4.1,1.9c-1.6,0-2.8-0.7-3.7-2V384.9z M361.2,378
		c0,1.6,0.2,2.8,0.7,3.5c0.7,1.2,1.7,1.8,2.9,1.8c1,0,1.9-0.4,2.6-1.3c0.7-0.9,1.1-2.2,1.1-3.9c0-1.8-0.3-3.1-1-3.9
		s-1.5-1.3-2.5-1.3c-1,0-1.9,0.4-2.6,1.3C361.6,375.1,361.2,376.4,361.2,378z"/>
	<path d="M373.6,384.9v-18.6h2.3v18.6H373.6z"/>
	<path d="M388.6,380.5l2.4,0.3c-0.4,1.4-1.1,2.5-2.1,3.2s-2.3,1.1-3.9,1.1c-2,0-3.5-0.6-4.7-1.8c-1.2-1.2-1.7-2.9-1.7-5.1
		c0-2.3,0.6-4,1.8-5.3s2.7-1.9,4.5-1.9c1.8,0,3.3,0.6,4.4,1.8s1.7,3,1.7,5.2c0,0.1,0,0.3,0,0.6H381c0.1,1.5,0.5,2.6,1.3,3.4
		s1.7,1.2,2.8,1.2c0.8,0,1.6-0.2,2.1-0.7S388.3,381.5,388.6,380.5z M381.1,376.8h7.5c-0.1-1.1-0.4-2-0.9-2.6
		c-0.7-0.9-1.7-1.3-2.8-1.3c-1,0-1.9,0.4-2.6,1.1S381.2,375.7,381.1,376.8z"/>
	<path d="M393.8,384.9v-13.5h2.1v1.9c1-1.5,2.4-2.2,4.3-2.2c0.8,0,1.6,0.1,2.2,0.4c0.7,0.3,1.2,0.7,1.5,1.1s0.6,1,0.7,1.7
		c0.1,0.4,0.1,1.2,0.1,2.2v8.3h-2.3v-8.2c0-0.9-0.1-1.6-0.3-2.1c-0.2-0.5-0.5-0.8-0.9-1.1c-0.5-0.3-1-0.4-1.6-0.4
		c-1,0-1.8,0.3-2.5,0.9s-1.1,1.8-1.1,3.5v7.4H393.8z"/>
	<path d="M419.9,390.3c-1.3-1.6-2.3-3.5-3.2-5.6s-1.3-4.3-1.3-6.6c0-2,0.3-3.9,1-5.8c0.8-2.1,1.9-4.3,3.5-6.4h1.6
		c-1,1.8-1.7,3-2,3.8c-0.5,1.2-0.9,2.4-1.2,3.7c-0.4,1.6-0.5,3.2-0.5,4.8c0,4.1,1.3,8.1,3.8,12.2H419.9z"/>
	<path d="M426.7,384.9l-4.1-13.5h2.4l2.1,7.8l0.8,2.9c0-0.1,0.3-1.1,0.7-2.8l2.1-7.9h2.3l2,7.8l0.7,2.6l0.8-2.6l2.3-7.8h2.2
		l-4.2,13.5h-2.4l-2.1-8.1l-0.5-2.3l-2.7,10.4H426.7z"/>
	<path d="M441.2,385.2l5.4-19.2h1.8l-5.4,19.2H441.2z"/>
	<path d="M449.6,375.6c0-6.4,2-9.6,6.1-9.6s6.1,3.2,6.1,9.6c0,6.4-2,9.6-6.1,9.6S449.6,382,449.6,375.6z M452,374.6h7.4
		c-0.1-2.6-0.5-4.4-1.1-5.4s-1.5-1.4-2.6-1.4C453.3,367.8,452.1,370.1,452,374.6z M459.4,376.5H452c0.1,4.5,1.3,6.8,3.7,6.8
		C458.1,383.3,459.3,381,459.4,376.5z"/>
	<path d="M466.1,390.3h-1.6c2.5-4.1,3.8-8.1,3.8-12.2c0-1.6-0.2-3.2-0.5-4.7c-0.3-1.3-0.7-2.5-1.2-3.7c-0.3-0.8-1-2-2-3.8h1.6
		c1.6,2.1,2.8,4.3,3.5,6.4c0.7,1.8,1,3.8,1,5.8c0,2.3-0.4,4.5-1.3,6.6S467.4,388.7,466.1,390.3z"/>
</g>
<g class="st3">
	<path d="M520.3,369.7l-5.2-13.4h1.9l3.5,9.8c0.3,0.8,0.5,1.5,0.7,2.2c0.2-0.7,0.4-1.5,0.7-2.2l3.6-9.8h1.8l-5.3,13.4H520.3z"/>
	<path d="M527.1,364.8c0-1.8,0.5-3.1,1.5-4c0.8-0.7,1.9-1.1,3.1-1.1c1.3,0,2.4,0.4,3.3,1.3c0.8,0.9,1.3,2.1,1.3,3.6
		c0,1.3-0.2,2.2-0.6,3c-0.4,0.7-0.9,1.3-1.6,1.7c-0.7,0.4-1.5,0.6-2.4,0.6c-1.4,0-2.5-0.4-3.3-1.3
		C527.6,367.7,527.1,366.5,527.1,364.8z M528.8,364.8c0,1.2,0.3,2.2,0.8,2.8c0.5,0.6,1.2,0.9,2.1,0.9c0.8,0,1.5-0.3,2-0.9
		c0.5-0.6,0.8-1.6,0.8-2.8c0-1.2-0.3-2.1-0.8-2.7s-1.2-0.9-2-0.9c-0.8,0-1.5,0.3-2.1,0.9C529.1,362.7,528.8,363.6,528.8,364.8z"/>
	<path d="M538.2,369.7V360h1.5v1.5c0.4-0.7,0.7-1.1,1-1.4s0.7-0.3,1.1-0.3c0.6,0,1.1,0.2,1.7,0.5l-0.6,1.5c-0.4-0.2-0.8-0.4-1.2-0.4
		c-0.4,0-0.7,0.1-1,0.3s-0.5,0.5-0.6,0.9c-0.2,0.6-0.3,1.2-0.3,1.9v5.1H538.2z"/>
	<path d="M544.4,369.7v-13.4h1.6v4.8c0.8-0.9,1.7-1.3,2.9-1.3c0.7,0,1.3,0.1,1.9,0.4s0.9,0.7,1.1,1.2c0.2,0.5,0.3,1.2,0.3,2.2v6.2
		h-1.6v-6.2c0-0.8-0.2-1.4-0.5-1.8c-0.4-0.4-0.9-0.6-1.5-0.6c-0.5,0-0.9,0.1-1.4,0.4c-0.4,0.3-0.7,0.6-0.9,1c-0.2,0.4-0.3,1-0.3,1.8
		v5.3H544.4z"/>
	<path d="M561.5,366.6l1.7,0.2c-0.3,1-0.8,1.8-1.5,2.3s-1.7,0.8-2.8,0.8c-1.4,0-2.6-0.4-3.4-1.3c-0.8-0.9-1.3-2.1-1.3-3.7
		c0-1.6,0.4-2.9,1.3-3.8c0.8-0.9,1.9-1.4,3.3-1.4c1.3,0,2.4,0.4,3.2,1.3c0.8,0.9,1.2,2.1,1.2,3.7c0,0.1,0,0.2,0,0.4H556
		c0.1,1.1,0.4,1.9,0.9,2.5c0.5,0.6,1.2,0.9,2,0.9c0.6,0,1.1-0.2,1.5-0.5S561.3,367.3,561.5,366.6z M556.1,363.9h5.4
		c-0.1-0.8-0.3-1.4-0.6-1.8c-0.5-0.6-1.2-1-2-1c-0.8,0-1.4,0.3-1.9,0.8C556.5,362.4,556.2,363.1,556.1,363.9z"/>
	<path d="M565.3,369.7V360h1.5v1.5c0.4-0.7,0.7-1.1,1-1.4s0.7-0.3,1.1-0.3c0.6,0,1.1,0.2,1.7,0.5l-0.6,1.5c-0.4-0.2-0.8-0.4-1.2-0.4
		c-0.4,0-0.7,0.1-1,0.3s-0.5,0.5-0.6,0.9c-0.2,0.6-0.3,1.2-0.3,1.9v5.1H565.3z"/>
	<path d="M570.9,366.8l1.6-0.3c0.1,0.7,0.3,1.2,0.8,1.5c0.4,0.3,1,0.5,1.8,0.5c0.8,0,1.3-0.2,1.7-0.5c0.4-0.3,0.5-0.7,0.5-1.1
		c0-0.4-0.2-0.7-0.5-0.9c-0.2-0.1-0.8-0.3-1.7-0.6c-1.2-0.3-2-0.6-2.5-0.8c-0.5-0.2-0.8-0.5-1.1-0.9c-0.2-0.4-0.4-0.8-0.4-1.3
		c0-0.4,0.1-0.8,0.3-1.2c0.2-0.4,0.5-0.7,0.8-0.9c0.3-0.2,0.6-0.3,1-0.5c0.4-0.1,0.9-0.2,1.4-0.2c0.8,0,1.4,0.1,2,0.3s1,0.5,1.3,0.9
		c0.3,0.4,0.5,0.9,0.6,1.5l-1.6,0.2c-0.1-0.5-0.3-0.9-0.6-1.2c-0.4-0.3-0.8-0.4-1.5-0.4c-0.8,0-1.3,0.1-1.6,0.4
		c-0.3,0.3-0.5,0.5-0.5,0.9c0,0.2,0.1,0.4,0.2,0.6c0.1,0.2,0.3,0.3,0.6,0.4c0.2,0.1,0.7,0.2,1.5,0.4c1.2,0.3,2,0.6,2.4,0.8
		c0.5,0.2,0.8,0.5,1.1,0.9s0.4,0.8,0.4,1.4c0,0.5-0.2,1.1-0.5,1.6c-0.3,0.5-0.8,0.9-1.4,1.1s-1.3,0.4-2.1,0.4
		c-1.3,0-2.2-0.3-2.9-0.8C571.5,368.6,571.1,367.8,570.9,366.8z"/>
	<path d="M587.3,368.5c-0.6,0.5-1.2,0.9-1.8,1.1c-0.6,0.2-1.2,0.3-1.8,0.3c-1.1,0-1.9-0.3-2.5-0.8s-0.9-1.2-0.9-2
		c0-0.5,0.1-0.9,0.3-1.3s0.5-0.7,0.9-0.9c0.4-0.2,0.7-0.4,1.2-0.5c0.3-0.1,0.8-0.2,1.5-0.2c1.3-0.2,2.3-0.3,2.9-0.6
		c0-0.2,0-0.4,0-0.4c0-0.7-0.2-1.1-0.5-1.4c-0.4-0.4-1-0.6-1.9-0.6c-0.8,0-1.3,0.1-1.7,0.4c-0.4,0.3-0.6,0.8-0.8,1.4l-1.6-0.2
		c0.1-0.7,0.4-1.2,0.7-1.7s0.8-0.8,1.5-1c0.6-0.2,1.4-0.3,2.2-0.3c0.8,0,1.5,0.1,2,0.3c0.5,0.2,0.9,0.4,1.1,0.7
		c0.2,0.3,0.4,0.7,0.5,1.1c0.1,0.3,0.1,0.8,0.1,1.5v2.2c0,1.5,0,2.5,0.1,2.9s0.2,0.8,0.4,1.2h-1.7
		C587.4,369.4,587.3,369,587.3,368.5z M587.1,364.8c-0.6,0.2-1.5,0.5-2.7,0.6c-0.7,0.1-1.2,0.2-1.4,0.3c-0.3,0.1-0.5,0.3-0.7,0.5
		s-0.2,0.5-0.2,0.8c0,0.4,0.2,0.8,0.5,1.1s0.8,0.4,1.5,0.4c0.6,0,1.2-0.1,1.7-0.4c0.5-0.3,0.9-0.7,1.1-1.1c0.2-0.4,0.3-0.9,0.3-1.6
		V364.8z"/>
	<path d="M591.1,370.5l1.6,0.2c0.1,0.5,0.3,0.9,0.6,1.1c0.4,0.3,1,0.5,1.7,0.5c0.8,0,1.4-0.2,1.8-0.5c0.4-0.3,0.7-0.7,0.8-1.3
		c0.1-0.3,0.1-1,0.1-2.1c-0.7,0.8-1.6,1.3-2.7,1.3c-1.3,0-2.4-0.5-3.1-1.4c-0.7-1-1.1-2.1-1.1-3.5c0-0.9,0.2-1.8,0.5-2.6
		s0.8-1.4,1.5-1.8c0.6-0.4,1.4-0.6,2.2-0.6c1.1,0,2.1,0.5,2.8,1.4V360h1.5v8.4c0,1.5-0.2,2.6-0.5,3.2c-0.3,0.6-0.8,1.1-1.5,1.5
		c-0.7,0.4-1.5,0.5-2.5,0.5c-1.2,0-2.1-0.3-2.8-0.8C591.4,372.3,591,371.6,591.1,370.5z M592.4,364.7c0,1.3,0.3,2.2,0.8,2.8
		c0.5,0.6,1.1,0.9,1.9,0.9c0.8,0,1.4-0.3,1.9-0.9c0.5-0.6,0.8-1.5,0.8-2.7c0-1.2-0.3-2.1-0.8-2.7s-1.2-0.9-1.9-0.9
		c-0.7,0-1.4,0.3-1.9,0.9S592.4,363.5,592.4,364.7z"/>
	<path d="M608.5,366.6l1.7,0.2c-0.3,1-0.8,1.8-1.5,2.3s-1.7,0.8-2.8,0.8c-1.4,0-2.6-0.4-3.4-1.3c-0.8-0.9-1.3-2.1-1.3-3.7
		c0-1.6,0.4-2.9,1.3-3.8c0.8-0.9,1.9-1.4,3.3-1.4c1.3,0,2.4,0.4,3.2,1.3c0.8,0.9,1.2,2.1,1.2,3.7c0,0.1,0,0.2,0,0.4H603
		c0.1,1.1,0.4,1.9,0.9,2.5c0.5,0.6,1.2,0.9,2,0.9c0.6,0,1.1-0.2,1.5-0.5S608.2,367.3,608.5,366.6z M603.1,363.9h5.4
		c-0.1-0.8-0.3-1.4-0.6-1.8c-0.5-0.6-1.2-1-2-1c-0.8,0-1.4,0.3-1.9,0.8C603.4,362.4,603.1,363.1,603.1,363.9z"/>
	<path d="M623.8,368.5c-0.6,0.5-1.2,0.9-1.8,1.1c-0.6,0.2-1.2,0.3-1.8,0.3c-1.1,0-1.9-0.3-2.5-0.8s-0.9-1.2-0.9-2
		c0-0.5,0.1-0.9,0.3-1.3s0.5-0.7,0.9-0.9c0.4-0.2,0.7-0.4,1.2-0.5c0.3-0.1,0.8-0.2,1.5-0.2c1.3-0.2,2.3-0.3,2.9-0.6
		c0-0.2,0-0.4,0-0.4c0-0.7-0.2-1.1-0.5-1.4c-0.4-0.4-1-0.6-1.9-0.6c-0.8,0-1.3,0.1-1.7,0.4c-0.4,0.3-0.6,0.8-0.8,1.4l-1.6-0.2
		c0.1-0.7,0.4-1.2,0.7-1.7s0.8-0.8,1.5-1c0.6-0.2,1.4-0.3,2.2-0.3c0.8,0,1.5,0.1,2,0.3c0.5,0.2,0.9,0.4,1.1,0.7
		c0.2,0.3,0.4,0.7,0.5,1.1c0.1,0.3,0.1,0.8,0.1,1.5v2.2c0,1.5,0,2.5,0.1,2.9s0.2,0.8,0.4,1.2h-1.7C624,369.4,623.9,369,623.8,368.5z
		 M623.7,364.8c-0.6,0.2-1.5,0.5-2.7,0.6c-0.7,0.1-1.2,0.2-1.4,0.3c-0.3,0.1-0.5,0.3-0.7,0.5s-0.2,0.5-0.2,0.8
		c0,0.4,0.2,0.8,0.5,1.1s0.8,0.4,1.5,0.4c0.6,0,1.2-0.1,1.7-0.4c0.5-0.3,0.9-0.7,1.1-1.1c0.2-0.4,0.3-0.9,0.3-1.6V364.8z"/>
	<path d="M627.9,369.7V360h1.5v1.4c0.7-1.1,1.7-1.6,3.1-1.6c0.6,0,1.1,0.1,1.6,0.3c0.5,0.2,0.9,0.5,1.1,0.8s0.4,0.7,0.5,1.2
		c0.1,0.3,0.1,0.8,0.1,1.6v6h-1.6v-5.9c0-0.7-0.1-1.2-0.2-1.5c-0.1-0.3-0.4-0.6-0.7-0.8c-0.3-0.2-0.7-0.3-1.2-0.3
		c-0.7,0-1.3,0.2-1.8,0.7c-0.5,0.4-0.8,1.3-0.8,2.5v5.3H627.9z"/>
	<path d="M638.3,369.7v-13.4h1.6v4.8c0.8-0.9,1.7-1.3,2.9-1.3c0.7,0,1.3,0.1,1.9,0.4s0.9,0.7,1.1,1.2c0.2,0.5,0.3,1.2,0.3,2.2v6.2
		h-1.6v-6.2c0-0.8-0.2-1.4-0.5-1.8c-0.4-0.4-0.9-0.6-1.5-0.6c-0.5,0-0.9,0.1-1.4,0.4c-0.4,0.3-0.7,0.6-0.9,1c-0.2,0.4-0.3,1-0.3,1.8
		v5.3H638.3z"/>
	<path d="M655.1,368.5c-0.6,0.5-1.2,0.9-1.8,1.1c-0.6,0.2-1.2,0.3-1.8,0.3c-1.1,0-1.9-0.3-2.5-0.8s-0.9-1.2-0.9-2
		c0-0.5,0.1-0.9,0.3-1.3s0.5-0.7,0.9-0.9c0.4-0.2,0.7-0.4,1.2-0.5c0.3-0.1,0.8-0.2,1.5-0.2c1.3-0.2,2.3-0.3,2.9-0.6
		c0-0.2,0-0.4,0-0.4c0-0.7-0.2-1.1-0.5-1.4c-0.4-0.4-1-0.6-1.9-0.6c-0.8,0-1.3,0.1-1.7,0.4c-0.4,0.3-0.6,0.8-0.8,1.4l-1.6-0.2
		c0.1-0.7,0.4-1.2,0.7-1.7s0.8-0.8,1.5-1c0.6-0.2,1.4-0.3,2.2-0.3c0.8,0,1.5,0.1,2,0.3c0.5,0.2,0.9,0.4,1.1,0.7
		c0.2,0.3,0.4,0.7,0.5,1.1c0.1,0.3,0.1,0.8,0.1,1.5v2.2c0,1.5,0,2.5,0.1,2.9s0.2,0.8,0.4,1.2h-1.7
		C655.3,369.4,655.2,369,655.1,368.5z M655,364.8c-0.6,0.2-1.5,0.5-2.7,0.6c-0.7,0.1-1.2,0.2-1.4,0.3c-0.3,0.1-0.5,0.3-0.7,0.5
		s-0.2,0.5-0.2,0.8c0,0.4,0.2,0.8,0.5,1.1s0.8,0.4,1.5,0.4c0.6,0,1.2-0.1,1.7-0.4c0.5-0.3,0.9-0.7,1.1-1.1c0.2-0.4,0.3-0.9,0.3-1.6
		V364.8z"/>
	<path d="M659.2,369.7V360h1.5v1.4c0.7-1.1,1.7-1.6,3.1-1.6c0.6,0,1.1,0.1,1.6,0.3c0.5,0.2,0.9,0.5,1.1,0.8s0.4,0.7,0.5,1.2
		c0.1,0.3,0.1,0.8,0.1,1.6v6h-1.6v-5.9c0-0.7-0.1-1.2-0.2-1.5c-0.1-0.3-0.4-0.6-0.7-0.8c-0.3-0.2-0.7-0.3-1.2-0.3
		c-0.7,0-1.3,0.2-1.8,0.7c-0.5,0.4-0.8,1.3-0.8,2.5v5.3H659.2z"/>
	<path d="M675.9,369.7v-1.2c-0.6,1-1.5,1.4-2.7,1.4c-0.8,0-1.5-0.2-2.1-0.6c-0.7-0.4-1.2-1-1.5-1.8s-0.5-1.6-0.5-2.6
		c0-1,0.2-1.9,0.5-2.6c0.3-0.8,0.8-1.4,1.5-1.8c0.6-0.4,1.4-0.6,2.2-0.6c0.6,0,1.1,0.1,1.6,0.4s0.8,0.6,1.1,1v-4.8h1.6v13.4H675.9z
		 M670.7,364.8c0,1.2,0.3,2.2,0.8,2.8s1.1,0.9,1.9,0.9c0.7,0,1.3-0.3,1.8-0.9c0.5-0.6,0.8-1.5,0.8-2.7c0-1.3-0.3-2.3-0.8-2.9
		s-1.1-0.9-1.9-0.9c-0.7,0-1.3,0.3-1.8,0.9C671,362.6,670.7,363.6,670.7,364.8z"/>
</g>
<g class="st3">
	<path d="M519,392.2l-3.7-9.7h1.7l2.1,5.8c0.2,0.6,0.4,1.3,0.6,2c0.1-0.5,0.4-1.1,0.6-1.9l2.2-5.9h1.7l-3.7,9.7H519z"/>
	<path d="M525,387.3c0-1.8,0.5-3.1,1.5-4c0.8-0.7,1.9-1.1,3.1-1.1c1.3,0,2.4,0.4,3.3,1.3c0.8,0.9,1.3,2.1,1.3,3.6
		c0,1.3-0.2,2.2-0.6,3c-0.4,0.7-0.9,1.3-1.6,1.7c-0.7,0.4-1.5,0.6-2.4,0.6c-1.4,0-2.5-0.4-3.3-1.3C525.5,390.2,525,389,525,387.3z
		 M526.7,387.3c0,1.2,0.3,2.2,0.8,2.8c0.5,0.6,1.2,0.9,2.1,0.9c0.8,0,1.5-0.3,2-0.9c0.5-0.6,0.8-1.6,0.8-2.8c0-1.2-0.3-2.1-0.8-2.7
		s-1.2-0.9-2-0.9c-0.8,0-1.5,0.3-2.1,0.9C527,385.1,526.7,386.1,526.7,387.3z"/>
	<path d="M536.1,392.2v-9.7h1.5v1.4c0.7-1.1,1.7-1.6,3.1-1.6c0.6,0,1.1,0.1,1.6,0.3c0.5,0.2,0.9,0.5,1.1,0.8s0.4,0.7,0.5,1.2
		c0.1,0.3,0.1,0.8,0.1,1.6v6h-1.6v-5.9c0-0.7-0.1-1.2-0.2-1.5c-0.1-0.3-0.4-0.6-0.7-0.8c-0.3-0.2-0.7-0.3-1.2-0.3
		c-0.7,0-1.3,0.2-1.8,0.7c-0.5,0.4-0.8,1.3-0.8,2.5v5.3H536.1z"/>
	<path d="M552.2,392.2v-13.4h1.8v13.4H552.2z"/>
	<path d="M556.9,392.2v-9.7h1.5v1.4c0.7-1.1,1.7-1.6,3.1-1.6c0.6,0,1.1,0.1,1.6,0.3c0.5,0.2,0.9,0.5,1.1,0.8s0.4,0.7,0.5,1.2
		c0.1,0.3,0.1,0.8,0.1,1.6v6h-1.6v-5.9c0-0.7-0.1-1.2-0.2-1.5c-0.1-0.3-0.4-0.6-0.7-0.8c-0.3-0.2-0.7-0.3-1.2-0.3
		c-0.7,0-1.3,0.2-1.8,0.7c-0.5,0.4-0.8,1.3-0.8,2.5v5.3H556.9z"/>
	<path d="M567.4,395.9v-13.5h1.5v1.3c0.4-0.5,0.8-0.9,1.2-1.1c0.4-0.2,1-0.4,1.6-0.4c0.8,0,1.6,0.2,2.2,0.6c0.6,0.4,1.1,1,1.4,1.8
		c0.3,0.8,0.5,1.6,0.5,2.6c0,1-0.2,1.9-0.5,2.7c-0.4,0.8-0.9,1.4-1.6,1.8s-1.4,0.6-2.1,0.6c-0.5,0-1-0.1-1.5-0.3
		c-0.4-0.2-0.8-0.5-1.1-0.9v4.7H567.4z M568.9,387.4c0,1.3,0.3,2.2,0.8,2.8c0.5,0.6,1.1,0.9,1.8,0.9c0.7,0,1.4-0.3,1.9-0.9
		c0.5-0.6,0.8-1.6,0.8-2.9c0-1.2-0.3-2.2-0.8-2.8c-0.5-0.6-1.1-0.9-1.8-0.9c-0.7,0-1.3,0.3-1.9,1
		C569.1,385.2,568.9,386.1,568.9,387.4z"/>
	<path d="M584.2,392.2v-1.4c-0.8,1.1-1.8,1.6-3.1,1.6c-0.6,0-1.1-0.1-1.6-0.3c-0.5-0.2-0.9-0.5-1.1-0.8s-0.4-0.7-0.5-1.2
		c-0.1-0.3-0.1-0.8-0.1-1.5v-6h1.6v5.4c0,0.9,0,1.4,0.1,1.7c0.1,0.4,0.3,0.8,0.7,1c0.3,0.2,0.8,0.4,1.2,0.4c0.5,0,1-0.1,1.4-0.4
		c0.4-0.3,0.7-0.6,0.9-1c0.2-0.4,0.3-1.1,0.3-1.9v-5.2h1.6v9.7H584.2z"/>
	<path d="M591.9,390.7l0.2,1.5c-0.5,0.1-0.9,0.1-1.2,0.1c-0.6,0-1.1-0.1-1.4-0.3c-0.3-0.2-0.6-0.4-0.7-0.7c-0.1-0.3-0.2-1-0.2-1.9
		v-5.6h-1.2v-1.3h1.2V380l1.6-1v3.4h1.7v1.3h-1.7v5.7c0,0.5,0,0.8,0.1,0.9c0.1,0.1,0.2,0.2,0.3,0.3c0.1,0.1,0.3,0.1,0.6,0.1
		C591.3,390.8,591.6,390.8,591.9,390.7z"/>
	<path d="M605.1,392.2v-1.4c-0.8,1.1-1.8,1.6-3.1,1.6c-0.6,0-1.1-0.1-1.6-0.3c-0.5-0.2-0.9-0.5-1.1-0.8s-0.4-0.7-0.5-1.2
		c-0.1-0.3-0.1-0.8-0.1-1.5v-6h1.6v5.4c0,0.9,0,1.4,0.1,1.7c0.1,0.4,0.3,0.8,0.7,1c0.3,0.2,0.8,0.4,1.2,0.4c0.5,0,1-0.1,1.4-0.4
		c0.4-0.3,0.7-0.6,0.9-1c0.2-0.4,0.3-1.1,0.3-1.9v-5.2h1.6v9.7H605.1z"/>
	<path d="M609.1,392.2v-9.7h1.5v1.4c0.7-1.1,1.7-1.6,3.1-1.6c0.6,0,1.1,0.1,1.6,0.3c0.5,0.2,0.9,0.5,1.1,0.8s0.4,0.7,0.5,1.2
		c0.1,0.3,0.1,0.8,0.1,1.6v6h-1.6v-5.9c0-0.7-0.1-1.2-0.2-1.5c-0.1-0.3-0.4-0.6-0.7-0.8c-0.3-0.2-0.7-0.3-1.2-0.3
		c-0.7,0-1.3,0.2-1.8,0.7c-0.5,0.4-0.8,1.3-0.8,2.5v5.3H609.1z"/>
	<path d="M625.9,392.2V391c-0.6,1-1.5,1.4-2.7,1.4c-0.8,0-1.5-0.2-2.1-0.6c-0.7-0.4-1.2-1-1.5-1.8s-0.5-1.6-0.5-2.6
		c0-1,0.2-1.9,0.5-2.6c0.3-0.8,0.8-1.4,1.5-1.8c0.6-0.4,1.4-0.6,2.2-0.6c0.6,0,1.1,0.1,1.6,0.4s0.8,0.6,1.1,1v-4.8h1.6v13.4H625.9z
		 M620.7,387.3c0,1.2,0.3,2.2,0.8,2.8s1.1,0.9,1.9,0.9c0.7,0,1.3-0.3,1.8-0.9c0.5-0.6,0.8-1.5,0.8-2.7c0-1.3-0.3-2.3-0.8-2.9
		s-1.1-0.9-1.9-0.9c-0.7,0-1.3,0.3-1.8,0.9C620.9,385.1,620.7,386,620.7,387.3z"/>
	<path d="M639.3,392.2l-5.2-13.4h1.9l3.5,9.8c0.3,0.8,0.5,1.5,0.7,2.2c0.2-0.7,0.4-1.5,0.7-2.2l3.6-9.8h1.8l-5.3,13.4H639.3z"/>
	<path d="M652.7,391c-0.6,0.5-1.2,0.9-1.8,1.1c-0.6,0.2-1.2,0.3-1.8,0.3c-1.1,0-1.9-0.3-2.5-0.8s-0.9-1.2-0.9-2
		c0-0.5,0.1-0.9,0.3-1.3s0.5-0.7,0.9-0.9c0.4-0.2,0.7-0.4,1.2-0.5c0.3-0.1,0.8-0.2,1.5-0.2c1.3-0.2,2.3-0.3,2.9-0.6
		c0-0.2,0-0.4,0-0.4c0-0.7-0.2-1.1-0.5-1.4c-0.4-0.4-1-0.6-1.9-0.6c-0.8,0-1.3,0.1-1.7,0.4c-0.4,0.3-0.6,0.8-0.8,1.4l-1.6-0.2
		c0.1-0.7,0.4-1.2,0.7-1.7s0.8-0.8,1.5-1c0.6-0.2,1.4-0.3,2.2-0.3c0.8,0,1.5,0.1,2,0.3c0.5,0.2,0.9,0.4,1.1,0.7
		c0.2,0.3,0.4,0.7,0.5,1.1c0.1,0.3,0.1,0.8,0.1,1.5v2.2c0,1.5,0,2.5,0.1,2.9s0.2,0.8,0.4,1.2H653C652.8,391.8,652.7,391.4,652.7,391
		z M652.5,387.3c-0.6,0.2-1.5,0.5-2.7,0.6c-0.7,0.1-1.2,0.2-1.4,0.3c-0.3,0.1-0.5,0.3-0.7,0.5s-0.2,0.5-0.2,0.8
		c0,0.4,0.2,0.8,0.5,1.1s0.8,0.4,1.5,0.4c0.6,0,1.2-0.1,1.7-0.4c0.5-0.3,0.9-0.7,1.1-1.1c0.2-0.4,0.3-0.9,0.3-1.6V387.3z"/>
	<path d="M656.7,392.2v-9.7h1.5v1.5c0.4-0.7,0.7-1.1,1-1.4s0.7-0.3,1.1-0.3c0.6,0,1.1,0.2,1.7,0.5l-0.6,1.5
		c-0.4-0.2-0.8-0.4-1.2-0.4c-0.4,0-0.7,0.1-1,0.3s-0.5,0.5-0.6,0.9c-0.2,0.6-0.3,1.2-0.3,1.9v5.1H656.7z"/>
	<path d="M663,380.7v-1.9h1.6v1.9H663z M663,392.2v-9.7h1.6v9.7H663z"/>
	<path d="M673.5,391c-0.6,0.5-1.2,0.9-1.8,1.1c-0.6,0.2-1.2,0.3-1.8,0.3c-1.1,0-1.9-0.3-2.5-0.8s-0.9-1.2-0.9-2
		c0-0.5,0.1-0.9,0.3-1.3s0.5-0.7,0.9-0.9c0.4-0.2,0.7-0.4,1.2-0.5c0.3-0.1,0.8-0.2,1.5-0.2c1.3-0.2,2.3-0.3,2.9-0.6
		c0-0.2,0-0.4,0-0.4c0-0.7-0.2-1.1-0.5-1.4c-0.4-0.4-1-0.6-1.9-0.6c-0.8,0-1.3,0.1-1.7,0.4c-0.4,0.3-0.6,0.8-0.8,1.4l-1.6-0.2
		c0.1-0.7,0.4-1.2,0.7-1.7s0.8-0.8,1.5-1c0.6-0.2,1.4-0.3,2.2-0.3c0.8,0,1.5,0.1,2,0.3c0.5,0.2,0.9,0.4,1.1,0.7
		c0.2,0.3,0.4,0.7,0.5,1.1c0.1,0.3,0.1,0.8,0.1,1.5v2.2c0,1.5,0,2.5,0.1,2.9s0.2,0.8,0.4,1.2h-1.7
		C673.7,391.8,673.6,391.4,673.5,391z M673.4,387.3c-0.6,0.2-1.5,0.5-2.7,0.6c-0.7,0.1-1.2,0.2-1.4,0.3c-0.3,0.1-0.5,0.3-0.7,0.5
		s-0.2,0.5-0.2,0.8c0,0.4,0.2,0.8,0.5,1.1s0.8,0.4,1.5,0.4c0.6,0,1.2-0.1,1.7-0.4c0.5-0.3,0.9-0.7,1.1-1.1c0.2-0.4,0.3-0.9,0.3-1.6
		V387.3z"/>
	<path d="M679.1,392.2h-1.5v-13.4h1.6v4.8c0.7-0.9,1.6-1.3,2.7-1.3c0.6,0,1.2,0.1,1.7,0.4c0.5,0.2,1,0.6,1.3,1
		c0.3,0.4,0.6,1,0.8,1.6c0.2,0.6,0.3,1.3,0.3,2c0,1.7-0.4,3-1.2,3.9c-0.8,0.9-1.8,1.4-3,1.4c-1.1,0-2-0.5-2.7-1.4V392.2z
		 M679.1,387.3c0,1.2,0.2,2,0.5,2.5c0.5,0.8,1.2,1.3,2.1,1.3c0.7,0,1.3-0.3,1.9-0.9s0.8-1.6,0.8-2.8c0-1.3-0.3-2.2-0.8-2.8
		c-0.5-0.6-1.1-0.9-1.8-0.9c-0.7,0-1.3,0.3-1.9,0.9S679.1,386.1,679.1,387.3z"/>
	<path d="M688,392.2v-13.4h1.6v13.4H688z"/>
	<path d="M698.9,389.1l1.7,0.2c-0.3,1-0.8,1.8-1.5,2.3s-1.7,0.8-2.8,0.8c-1.4,0-2.6-0.4-3.4-1.3c-0.8-0.9-1.3-2.1-1.3-3.7
		c0-1.6,0.4-2.9,1.3-3.8c0.8-0.9,1.9-1.4,3.3-1.4c1.3,0,2.4,0.4,3.2,1.3c0.8,0.9,1.2,2.1,1.2,3.7c0,0.1,0,0.2,0,0.4h-7.3
		c0.1,1.1,0.4,1.9,0.9,2.5c0.5,0.6,1.2,0.9,2,0.9c0.6,0,1.1-0.2,1.5-0.5S698.6,389.8,698.9,389.1z M693.5,386.4h5.4
		c-0.1-0.8-0.3-1.4-0.6-1.8c-0.5-0.6-1.2-1-2-1c-0.8,0-1.4,0.3-1.9,0.8C693.8,384.9,693.5,385.5,693.5,386.4z"/>
	<path d="M702.7,392.2v-9.7h1.5v1.4c0.7-1.1,1.7-1.6,3.1-1.6c0.6,0,1.1,0.1,1.6,0.3c0.5,0.2,0.9,0.5,1.1,0.8s0.4,0.7,0.5,1.2
		c0.1,0.3,0.1,0.8,0.1,1.6v6h-1.6v-5.9c0-0.7-0.1-1.2-0.2-1.5c-0.1-0.3-0.4-0.6-0.7-0.8c-0.3-0.2-0.7-0.3-1.2-0.3
		c-0.7,0-1.3,0.2-1.8,0.7c-0.5,0.4-0.8,1.3-0.8,2.5v5.3H702.7z"/>
</g>
<g class="st3">
	<path d="M756.9,375.1c0-2.9,0.8-5.2,2.4-6.9c1.6-1.7,3.6-2.5,6.1-2.5c1.6,0,3.1,0.4,4.4,1.2c1.3,0.8,2.3,1.9,3,3.3
		c0.7,1.4,1,3,1,4.7c0,1.8-0.4,3.4-1.1,4.8c-0.7,1.4-1.7,2.5-3.1,3.2c-1.3,0.7-2.8,1.1-4.3,1.1c-1.7,0-3.2-0.4-4.5-1.2
		c-1.3-0.8-2.3-1.9-3-3.3C757.2,378.2,756.9,376.7,756.9,375.1z M759.3,375.2c0,2.1,0.6,3.8,1.7,5c1.1,1.2,2.6,1.8,4.3,1.8
		c1.8,0,3.2-0.6,4.3-1.9c1.1-1.2,1.7-3,1.7-5.3c0-1.4-0.2-2.7-0.7-3.8c-0.5-1.1-1.2-1.9-2.1-2.5s-2-0.9-3.2-0.9
		c-1.7,0-3.1,0.6-4.3,1.7C759.9,370.6,759.3,372.5,759.3,375.2z"/>
	<path d="M784.9,383.7v-1.9c-1,1.4-2.4,2.2-4.1,2.2c-0.8,0-1.5-0.1-2.1-0.4c-0.7-0.3-1.1-0.7-1.5-1.1c-0.3-0.4-0.5-1-0.7-1.6
		c-0.1-0.4-0.1-1.1-0.1-2v-7.9h2.2v7.1c0,1.1,0,1.9,0.1,2.3c0.1,0.6,0.4,1,0.9,1.3c0.4,0.3,1,0.5,1.6,0.5s1.3-0.2,1.8-0.5
		c0.6-0.3,1-0.8,1.2-1.4c0.2-0.6,0.4-1.4,0.4-2.5v-6.9h2.2v12.8H784.9z"/>
	<path d="M795,381.8l0.3,1.9c-0.6,0.1-1.2,0.2-1.6,0.2c-0.8,0-1.4-0.1-1.8-0.4c-0.4-0.2-0.7-0.6-0.9-1c-0.2-0.4-0.3-1.3-0.3-2.6
		v-7.4H789v-1.7h1.6v-3.2l2.2-1.3v4.5h2.2v1.7h-2.2v7.5c0,0.6,0,1,0.1,1.2c0.1,0.2,0.2,0.3,0.4,0.4s0.4,0.2,0.7,0.2
		C794.3,381.9,794.6,381.9,795,381.8z"/>
	<path d="M797.1,388.6v-17.7h2v1.7c0.5-0.7,1-1.1,1.6-1.5c0.6-0.3,1.3-0.5,2.1-0.5c1.1,0,2.1,0.3,2.9,0.8s1.5,1.4,1.9,2.4
		s0.6,2.1,0.6,3.4c0,1.3-0.2,2.5-0.7,3.5s-1.2,1.9-2,2.4c-0.9,0.6-1.8,0.8-2.8,0.8c-0.7,0-1.4-0.2-1.9-0.5c-0.6-0.3-1-0.7-1.4-1.2
		v6.2H797.1z M799,377.4c0,1.6,0.3,2.9,1,3.7c0.7,0.8,1.5,1.2,2.4,1.2c1,0,1.8-0.4,2.5-1.2c0.7-0.8,1-2.1,1-3.8c0-1.6-0.3-2.9-1-3.7
		s-1.5-1.2-2.4-1.2c-0.9,0-1.7,0.4-2.5,1.3C799.4,374.5,799,375.8,799,377.4z"/>
	<path d="M819.2,383.7v-1.9c-1,1.4-2.4,2.2-4.1,2.2c-0.8,0-1.5-0.1-2.1-0.4c-0.7-0.3-1.1-0.7-1.5-1.1c-0.3-0.4-0.5-1-0.7-1.6
		c-0.1-0.4-0.1-1.1-0.1-2v-7.9h2.2v7.1c0,1.1,0,1.9,0.1,2.3c0.1,0.6,0.4,1,0.9,1.3c0.4,0.3,1,0.5,1.6,0.5s1.3-0.2,1.8-0.5
		c0.6-0.3,1-0.8,1.2-1.4c0.2-0.6,0.4-1.4,0.4-2.5v-6.9h2.2v12.8H819.2z"/>
	<path d="M829.3,381.8l0.3,1.9c-0.6,0.1-1.2,0.2-1.6,0.2c-0.8,0-1.4-0.1-1.8-0.4c-0.4-0.2-0.7-0.6-0.9-1c-0.2-0.4-0.3-1.3-0.3-2.6
		v-7.4h-1.6v-1.7h1.6v-3.2l2.2-1.3v4.5h2.2v1.7h-2.2v7.5c0,0.6,0,1,0.1,1.2c0.1,0.2,0.2,0.3,0.4,0.4s0.4,0.2,0.7,0.2
		C828.6,381.9,828.9,381.9,829.3,381.8z"/>
	<path d="M842.4,388.9c-1.2-1.5-2.2-3.3-3-5.3c-0.8-2-1.2-4.1-1.2-6.3c0-1.9,0.3-3.7,0.9-5.5c0.7-2,1.8-4.1,3.4-6.1h1.6
		c-1,1.7-1.6,2.9-1.9,3.6c-0.5,1.1-0.9,2.3-1.2,3.5c-0.3,1.5-0.5,3-0.5,4.5c0,3.9,1.2,7.7,3.6,11.6H842.4z"/>
	<path d="M845.9,375c0-2.1,0.2-3.8,0.6-5c0.4-1.3,1.1-2.3,1.9-2.9s1.9-1,3.2-1c0.9,0,1.8,0.2,2.5,0.6c0.7,0.4,1.3,0.9,1.8,1.7
		c0.5,0.7,0.8,1.6,1.1,2.6c0.3,1,0.4,2.4,0.4,4.2c0,2.1-0.2,3.7-0.6,5s-1.1,2.3-1.9,3s-1.9,1-3.2,1c-1.7,0-3-0.6-4-1.8
		C846.5,380.7,845.9,378.3,845.9,375z M848.1,375c0,2.9,0.3,4.8,1,5.8c0.7,1,1.5,1.4,2.5,1.4c1,0,1.8-0.5,2.5-1.4c0.7-1,1-2.9,1-5.8
		c0-2.9-0.3-4.8-1-5.8c-0.7-1-1.5-1.4-2.5-1.4c-1,0-1.8,0.4-2.4,1.3C848.5,370.1,848.1,372.1,848.1,375z"/>
	<path d="M866.3,377.3c0-2.4,0.7-4.1,2-5.3c1.1-0.9,2.4-1.4,4-1.4c1.8,0,3.2,0.6,4.3,1.7c1.1,1.2,1.7,2.7,1.7,4.8
		c0,1.6-0.2,2.9-0.7,3.9s-1.2,1.7-2.2,2.2s-2,0.8-3.1,0.8c-1.8,0-3.2-0.6-4.3-1.7C866.8,381.2,866.3,379.5,866.3,377.3z
		 M868.5,377.3c0,1.6,0.4,2.9,1.1,3.7c0.7,0.8,1.6,1.2,2.7,1.2c1.1,0,2-0.4,2.7-1.2c0.7-0.8,1.1-2.1,1.1-3.7c0-1.6-0.4-2.8-1.1-3.6
		c-0.7-0.8-1.6-1.2-2.7-1.2c-1.1,0-2,0.4-2.7,1.2C868.9,374.5,868.5,375.7,868.5,377.3z"/>
	<path d="M889.1,383.7v-1.6c-0.8,1.3-2,1.9-3.6,1.9c-1,0-2-0.3-2.8-0.8c-0.9-0.6-1.5-1.3-2-2.4c-0.5-1-0.7-2.2-0.7-3.5
		c0-1.3,0.2-2.4,0.6-3.5s1.1-1.8,1.9-2.4s1.8-0.8,2.9-0.8c0.8,0,1.5,0.2,2.1,0.5s1.1,0.7,1.5,1.3v-6.3h2.2v17.7H889.1z M882.2,377.4
		c0,1.6,0.3,2.9,1,3.7s1.5,1.2,2.4,1.2c0.9,0,1.8-0.4,2.4-1.2s1-2,1-3.5c0-1.8-0.3-3-1-3.9c-0.7-0.8-1.5-1.2-2.5-1.2
		c-1,0-1.8,0.4-2.4,1.2C882.6,374.4,882.2,375.7,882.2,377.4z"/>
	<path d="M903.3,379.6l2.2,0.3c-0.4,1.3-1,2.3-2,3c-1,0.7-2.2,1.1-3.7,1.1c-1.9,0-3.4-0.6-4.5-1.7c-1.1-1.2-1.6-2.8-1.6-4.9
		c0-2.2,0.6-3.8,1.7-5c1.1-1.2,2.5-1.8,4.3-1.8c1.7,0,3.1,0.6,4.2,1.7s1.6,2.8,1.6,4.9c0,0.1,0,0.3,0,0.6H896
		c0.1,1.4,0.5,2.5,1.2,3.2c0.7,0.7,1.6,1.1,2.7,1.1c0.8,0,1.5-0.2,2-0.6S903,380.5,903.3,379.6z M896.2,376.1h7.1
		c-0.1-1.1-0.4-1.9-0.8-2.4c-0.7-0.8-1.6-1.3-2.7-1.3c-1,0-1.8,0.3-2.5,1C896.6,374.1,896.2,375,896.2,376.1z"/>
	<path d="M908.2,383.7v-12.8h2v1.9c0.5-0.9,1-1.5,1.4-1.8c0.4-0.3,0.9-0.4,1.4-0.4c0.7,0,1.5,0.2,2.2,0.7l-0.7,2
		c-0.5-0.3-1.1-0.5-1.6-0.5c-0.5,0-0.9,0.1-1.3,0.4c-0.4,0.3-0.6,0.7-0.8,1.2c-0.2,0.8-0.4,1.6-0.4,2.5v6.7H908.2z"/>
	<path d="M930.9,383.7h-2.2v-13.8c-0.5,0.5-1.2,1-2.1,1.5c-0.8,0.5-1.6,0.9-2.3,1.1v-2.1c1.2-0.6,2.3-1.3,3.2-2.1s1.6-1.6,1.9-2.4
		h1.4V383.7z"/>
	<path d="M938.5,388.9h-1.6c2.4-3.9,3.6-7.7,3.6-11.6c0-1.5-0.2-3-0.5-4.5c-0.3-1.2-0.7-2.4-1.1-3.5c-0.3-0.7-1-1.9-1.9-3.6h1.6
		c1.5,2,2.6,4,3.4,6.1c0.6,1.8,0.9,3.6,0.9,5.5c0,2.2-0.4,4.3-1.2,6.3C940.7,385.7,939.7,387.4,938.5,388.9z"/>
</g>
<g class="st3">
	<path d="M537.1,205.3v-17h2.3v8.5l8.5-8.5h3.1l-7.1,6.9l7.5,10.1h-3l-6.1-8.6l-2.8,2.7v5.9H537.1z"/>
	<path d="M552,199.1c0-2.3,0.6-4,1.9-5.1c1.1-0.9,2.4-1.4,3.9-1.4c1.7,0,3.1,0.6,4.2,1.7s1.6,2.6,1.6,4.6c0,1.6-0.2,2.8-0.7,3.7
		c-0.5,0.9-1.2,1.6-2.1,2.1c-0.9,0.5-1.9,0.8-3,0.8c-1.7,0-3.1-0.6-4.2-1.7C552.5,202.8,552,201.2,552,199.1z M554.2,199.1
		c0,1.6,0.3,2.8,1,3.6c0.7,0.8,1.6,1.2,2.6,1.2c1,0,1.9-0.4,2.6-1.2c0.7-0.8,1-2,1-3.6c0-1.5-0.3-2.7-1-3.5
		c-0.7-0.8-1.6-1.2-2.6-1.2c-1,0-1.9,0.4-2.6,1.2C554.5,196.3,554.2,197.5,554.2,199.1z"/>
	<path d="M565.2,201.6l2.1-0.3c0.1,0.8,0.4,1.5,1,1.9c0.5,0.4,1.3,0.7,2.2,0.7c1,0,1.7-0.2,2.1-0.6s0.7-0.9,0.7-1.4
		c0-0.5-0.2-0.8-0.6-1.1c-0.3-0.2-1-0.4-2.1-0.7c-1.5-0.4-2.6-0.7-3.2-1c-0.6-0.3-1-0.7-1.3-1.2c-0.3-0.5-0.5-1.1-0.5-1.7
		c0-0.5,0.1-1.1,0.4-1.5s0.6-0.9,1-1.2c0.3-0.2,0.8-0.4,1.3-0.6c0.6-0.2,1.2-0.2,1.8-0.2c1,0,1.8,0.1,2.6,0.4
		c0.7,0.3,1.3,0.7,1.6,1.1s0.6,1.1,0.7,1.9l-2,0.3c-0.1-0.6-0.4-1.1-0.8-1.5c-0.4-0.4-1.1-0.5-1.9-0.5c-1,0-1.6,0.2-2.1,0.5
		c-0.4,0.3-0.6,0.7-0.6,1.1c0,0.3,0.1,0.5,0.3,0.7c0.2,0.2,0.4,0.4,0.8,0.6c0.2,0.1,0.8,0.3,1.8,0.5c1.5,0.4,2.5,0.7,3.1,1
		s1,0.6,1.4,1.1c0.3,0.5,0.5,1.1,0.5,1.8c0,0.7-0.2,1.4-0.6,2c-0.4,0.6-1,1.1-1.8,1.4s-1.6,0.5-2.6,0.5c-1.6,0-2.8-0.3-3.7-1
		C566,203.9,565.4,202.9,565.2,201.6z"/>
	<path d="M582.5,203.4l0.3,1.8c-0.6,0.1-1.1,0.2-1.6,0.2c-0.8,0-1.3-0.1-1.8-0.4c-0.4-0.2-0.7-0.6-0.9-0.9c-0.2-0.4-0.3-1.2-0.3-2.5
		v-7.1h-1.5v-1.6h1.5v-3.1l2.1-1.3v4.3h2.1v1.6h-2.1v7.2c0,0.6,0,1,0.1,1.2c0.1,0.2,0.2,0.3,0.4,0.4c0.2,0.1,0.4,0.2,0.7,0.2
		C581.8,203.5,582.1,203.5,582.5,203.4z"/>
	<path d="M593,201.3l2.2,0.3c-0.3,1.3-1,2.2-1.9,2.9c-0.9,0.7-2.1,1-3.5,1c-1.8,0-3.2-0.6-4.3-1.7c-1.1-1.1-1.6-2.7-1.6-4.7
		c0-2.1,0.5-3.7,1.6-4.8c1.1-1.1,2.5-1.7,4.2-1.7c1.7,0,3,0.6,4,1.7c1,1.1,1.6,2.7,1.6,4.7c0,0.1,0,0.3,0,0.6H586
		c0.1,1.4,0.5,2.4,1.2,3.1s1.5,1.1,2.6,1.1c0.8,0,1.4-0.2,2-0.6C592.2,202.8,592.7,202.2,593,201.3z M586.1,197.9h6.9
		c-0.1-1-0.4-1.8-0.8-2.3c-0.7-0.8-1.5-1.2-2.6-1.2c-1,0-1.8,0.3-2.4,1C586.6,196,586.2,196.8,586.1,197.9z"/>
	<path d="M597.8,205.3v-12.3h1.9v1.8c0.9-1.4,2.2-2,3.9-2c0.7,0,1.4,0.1,2.1,0.4s1.1,0.6,1.4,1.1c0.3,0.4,0.5,1,0.7,1.5
		c0.1,0.4,0.1,1.1,0.1,2v7.6h-2.1v-7.5c0-0.9-0.1-1.5-0.2-1.9c-0.2-0.4-0.5-0.8-0.9-1c-0.4-0.3-0.9-0.4-1.5-0.4
		c-0.9,0-1.7,0.3-2.3,0.8c-0.6,0.6-1,1.6-1,3.2v6.7H597.8z"/>
	<path d="M611.5,205.3v-10.7h-1.8v-1.6h1.8v-1.3c0-0.8,0.1-1.4,0.2-1.8c0.2-0.5,0.6-1,1.1-1.3c0.5-0.3,1.2-0.5,2.1-0.5
		c0.6,0,1.2,0.1,2,0.2l-0.3,1.8c-0.4-0.1-0.8-0.1-1.2-0.1c-0.6,0-1.1,0.1-1.3,0.4c-0.3,0.3-0.4,0.8-0.4,1.5v1.1h2.4v1.6h-2.4v10.7
		H611.5z"/>
	<path d="M625.7,205.3v-1.8c-1,1.4-2.3,2.1-3.9,2.1c-0.7,0-1.4-0.1-2-0.4s-1.1-0.6-1.4-1.1c-0.3-0.4-0.5-0.9-0.6-1.6
		c-0.1-0.4-0.1-1.1-0.1-2v-7.6h2.1v6.8c0,1.1,0,1.8,0.1,2.2c0.1,0.6,0.4,1,0.8,1.3c0.4,0.3,1,0.5,1.6,0.5s1.2-0.2,1.8-0.5
		c0.5-0.3,0.9-0.8,1.2-1.3c0.2-0.6,0.3-1.4,0.3-2.4v-6.6h2.1v12.3H625.7z"/>
	<path d="M630.9,205.3v-12.3h1.9v1.8c0.9-1.4,2.2-2,3.9-2c0.7,0,1.4,0.1,2.1,0.4s1.1,0.6,1.4,1.1c0.3,0.4,0.5,1,0.7,1.5
		c0.1,0.4,0.1,1.1,0.1,2v7.6h-2.1v-7.5c0-0.9-0.1-1.5-0.2-1.9c-0.2-0.4-0.5-0.8-0.9-1c-0.4-0.3-0.9-0.4-1.5-0.4
		c-0.9,0-1.7,0.3-2.3,0.8c-0.6,0.6-1,1.6-1,3.2v6.7H630.9z"/>
	<path d="M644.1,205.3v-17h2.1v9.7l5-5h2.7l-4.7,4.6l5.2,7.8h-2.6l-4.1-6.3l-1.5,1.4v4.9H644.1z"/>
	<path d="M660.6,203.4l0.3,1.8c-0.6,0.1-1.1,0.2-1.6,0.2c-0.8,0-1.3-0.1-1.8-0.4c-0.4-0.2-0.7-0.6-0.9-0.9c-0.2-0.4-0.3-1.2-0.3-2.5
		v-7.1h-1.5v-1.6h1.5v-3.1l2.1-1.3v4.3h2.1v1.6h-2.1v7.2c0,0.6,0,1,0.1,1.2c0.1,0.2,0.2,0.3,0.4,0.4c0.2,0.1,0.4,0.2,0.7,0.2
		C659.9,203.5,660.2,203.5,660.6,203.4z"/>
	<path d="M662.6,190.6v-2.4h2.1v2.4H662.6z M662.6,205.3v-12.3h2.1v12.3H662.6z"/>
	<path d="M667.1,199.1c0-2.3,0.6-4,1.9-5.1c1.1-0.9,2.4-1.4,3.9-1.4c1.7,0,3.1,0.6,4.2,1.7s1.6,2.6,1.6,4.6c0,1.6-0.2,2.8-0.7,3.7
		c-0.5,0.9-1.2,1.6-2.1,2.1c-0.9,0.5-1.9,0.8-3,0.8c-1.7,0-3.1-0.6-4.2-1.7C667.7,202.8,667.1,201.2,667.1,199.1z M669.3,199.1
		c0,1.6,0.3,2.8,1,3.6c0.7,0.8,1.6,1.2,2.6,1.2c1,0,1.9-0.4,2.6-1.2c0.7-0.8,1-2,1-3.6c0-1.5-0.3-2.7-1-3.5
		c-0.7-0.8-1.6-1.2-2.6-1.2c-1,0-1.9,0.4-2.6,1.2C669.6,196.3,669.3,197.5,669.3,199.1z"/>
	<path d="M681.2,205.3v-12.3h1.9v1.8c0.9-1.4,2.2-2,3.9-2c0.7,0,1.4,0.1,2.1,0.4c0.6,0.3,1.1,0.6,1.4,1.1c0.3,0.4,0.5,1,0.7,1.5
		c0.1,0.4,0.1,1.1,0.1,2v7.6h-2.1v-7.5c0-0.9-0.1-1.5-0.2-1.9c-0.2-0.4-0.5-0.8-0.9-1c-0.4-0.3-0.9-0.4-1.5-0.4
		c-0.9,0-1.7,0.3-2.3,0.8c-0.6,0.6-1,1.6-1,3.2v6.7H681.2z"/>
</g>
<g class="st3">
	<path d="M517.1,228.2l-2.1-6.7h1.2l1.1,3.9l0.4,1.4c0-0.1,0.1-0.5,0.3-1.4l1.1-3.9h1.2l1,3.9l0.3,1.3l0.4-1.3l1.2-3.9h1.1l-2.1,6.7
		H521l-1.1-4l-0.3-1.1l-1.4,5.2H517.1z"/>
	<path d="M525.3,220.2v-1.3h1.1v1.3H525.3z M525.3,228.2v-6.7h1.1v6.7H525.3z"/>
	<path d="M532.8,226l1.2,0.1c-0.2,0.7-0.5,1.2-1,1.6c-0.5,0.4-1.1,0.6-1.9,0.6c-1,0-1.8-0.3-2.3-0.9c-0.6-0.6-0.9-1.5-0.9-2.6
		c0-1.1,0.3-2,0.9-2.6s1.3-0.9,2.3-0.9c0.9,0,1.6,0.3,2.2,0.9c0.6,0.6,0.9,1.5,0.9,2.6c0,0.1,0,0.2,0,0.3h-5c0,0.7,0.3,1.3,0.6,1.7
		c0.4,0.4,0.8,0.6,1.4,0.6c0.4,0,0.8-0.1,1.1-0.3C532.4,226.9,532.6,226.5,532.8,226z M529,224.2h3.8c-0.1-0.6-0.2-1-0.4-1.3
		c-0.4-0.4-0.8-0.7-1.4-0.7c-0.5,0-1,0.2-1.3,0.5C529.3,223.1,529.1,223.6,529,224.2z"/>
	<path d="M539.3,228.2v-5.9h-1v-0.9h1v-0.7c0-0.5,0-0.8,0.1-1c0.1-0.3,0.3-0.5,0.6-0.7c0.3-0.2,0.7-0.3,1.2-0.3c0.3,0,0.7,0,1.1,0.1
		l-0.2,1c-0.2,0-0.5-0.1-0.7-0.1c-0.3,0-0.6,0.1-0.7,0.2c-0.1,0.1-0.2,0.4-0.2,0.8v0.6h1.3v0.9h-1.3v5.9H539.3z"/>
	<path d="M547,227.4c-0.4,0.4-0.8,0.6-1.2,0.8c-0.4,0.1-0.8,0.2-1.3,0.2c-0.7,0-1.3-0.2-1.7-0.5c-0.4-0.4-0.6-0.8-0.6-1.4
		c0-0.3,0.1-0.6,0.2-0.9c0.2-0.3,0.3-0.5,0.6-0.7c0.2-0.2,0.5-0.3,0.8-0.4c0.2-0.1,0.6-0.1,1-0.2c0.9-0.1,1.6-0.2,2-0.4
		c0-0.2,0-0.3,0-0.3c0-0.5-0.1-0.8-0.3-1c-0.3-0.3-0.7-0.4-1.3-0.4c-0.5,0-0.9,0.1-1.2,0.3c-0.3,0.2-0.4,0.5-0.6,1l-1.1-0.2
		c0.1-0.5,0.3-0.9,0.5-1.2c0.2-0.3,0.6-0.5,1-0.7c0.4-0.2,1-0.2,1.5-0.2c0.6,0,1,0.1,1.4,0.2c0.4,0.1,0.6,0.3,0.8,0.5
		c0.2,0.2,0.3,0.5,0.4,0.8c0,0.2,0.1,0.5,0.1,1.1v1.5c0,1.1,0,1.7,0.1,2c0,0.3,0.1,0.6,0.3,0.8h-1.2C547.1,228,547,227.7,547,227.4z
		 M546.9,224.8c-0.4,0.2-1,0.3-1.9,0.4c-0.5,0.1-0.8,0.1-1,0.2c-0.2,0.1-0.3,0.2-0.5,0.4c-0.1,0.2-0.2,0.3-0.2,0.5
		c0,0.3,0.1,0.6,0.3,0.8c0.2,0.2,0.6,0.3,1,0.3c0.4,0,0.8-0.1,1.2-0.3s0.6-0.5,0.8-0.8c0.1-0.3,0.2-0.6,0.2-1.1V224.8z"/>
	<path d="M549.8,228.2v-9.3h1.1v9.3H549.8z"/>
	<path d="M552.3,226.2l1.1-0.2c0.1,0.5,0.2,0.8,0.5,1c0.3,0.2,0.7,0.4,1.2,0.4c0.5,0,0.9-0.1,1.2-0.3s0.4-0.5,0.4-0.8
		c0-0.3-0.1-0.5-0.3-0.6c-0.2-0.1-0.5-0.2-1.2-0.4c-0.8-0.2-1.4-0.4-1.7-0.5c-0.3-0.2-0.6-0.4-0.7-0.6c-0.2-0.3-0.3-0.6-0.3-0.9
		c0-0.3,0.1-0.6,0.2-0.8s0.3-0.5,0.6-0.6c0.2-0.1,0.4-0.2,0.7-0.3c0.3-0.1,0.6-0.1,1-0.1c0.5,0,1,0.1,1.4,0.2
		c0.4,0.2,0.7,0.4,0.9,0.6c0.2,0.3,0.3,0.6,0.4,1l-1.1,0.2c-0.1-0.3-0.2-0.6-0.4-0.8s-0.6-0.3-1-0.3c-0.5,0-0.9,0.1-1.1,0.3
		c-0.2,0.2-0.3,0.4-0.3,0.6c0,0.1,0,0.3,0.1,0.4c0.1,0.1,0.2,0.2,0.4,0.3c0.1,0,0.5,0.1,1,0.3c0.8,0.2,1.4,0.4,1.7,0.5
		s0.6,0.3,0.8,0.6c0.2,0.3,0.3,0.6,0.3,1c0,0.4-0.1,0.7-0.3,1.1c-0.2,0.3-0.5,0.6-1,0.8c-0.4,0.2-0.9,0.3-1.4,0.3
		c-0.9,0-1.5-0.2-2-0.5S552.4,226.9,552.3,226.2z"/>
	<path d="M563.6,225.7l1.1,0.1c-0.1,0.8-0.4,1.4-0.9,1.8c-0.5,0.4-1.1,0.7-1.9,0.7c-0.9,0-1.7-0.3-2.2-0.9c-0.6-0.6-0.8-1.5-0.8-2.6
		c0-0.7,0.1-1.4,0.4-1.9s0.6-1,1.1-1.2c0.5-0.3,1-0.4,1.6-0.4c0.7,0,1.3,0.2,1.8,0.6c0.5,0.4,0.8,0.9,0.9,1.6l-1.1,0.2
		c-0.1-0.5-0.3-0.8-0.6-1c-0.3-0.2-0.6-0.3-1-0.3c-0.6,0-1,0.2-1.4,0.6c-0.4,0.4-0.5,1.1-0.5,2c0,0.9,0.2,1.6,0.5,2
		c0.3,0.4,0.8,0.6,1.4,0.6c0.4,0,0.8-0.1,1.1-0.4C563.4,226.7,563.6,226.3,563.6,225.7z"/>
	<path d="M565.7,228.2v-9.3h1.1v3.3c0.5-0.6,1.2-0.9,2-0.9c0.5,0,0.9,0.1,1.3,0.3c0.4,0.2,0.6,0.5,0.8,0.8c0.2,0.3,0.2,0.9,0.2,1.5
		v4.3h-1.1v-4.3c0-0.6-0.1-1-0.4-1.2c-0.2-0.3-0.6-0.4-1.1-0.4c-0.3,0-0.7,0.1-1,0.3c-0.3,0.2-0.5,0.4-0.6,0.7
		c-0.1,0.3-0.2,0.7-0.2,1.2v3.7H565.7z"/>
	<path d="M576.6,220.2v-1.3h1.1v1.3H576.6z M576.6,228.2v-6.7h1.1v6.7H576.6z"/>
	<path d="M579,226.2l1.1-0.2c0.1,0.5,0.2,0.8,0.5,1c0.3,0.2,0.7,0.4,1.2,0.4c0.5,0,0.9-0.1,1.2-0.3s0.4-0.5,0.4-0.8
		c0-0.3-0.1-0.5-0.3-0.6c-0.2-0.1-0.5-0.2-1.2-0.4c-0.8-0.2-1.4-0.4-1.7-0.5c-0.3-0.2-0.6-0.4-0.7-0.6c-0.2-0.3-0.3-0.6-0.3-0.9
		c0-0.3,0.1-0.6,0.2-0.8c0.1-0.3,0.3-0.5,0.6-0.6c0.2-0.1,0.4-0.2,0.7-0.3s0.6-0.1,1-0.1c0.5,0,1,0.1,1.4,0.2
		c0.4,0.2,0.7,0.4,0.9,0.6c0.2,0.3,0.3,0.6,0.4,1l-1.1,0.2c-0.1-0.3-0.2-0.6-0.4-0.8c-0.2-0.2-0.6-0.3-1-0.3c-0.5,0-0.9,0.1-1.1,0.3
		c-0.2,0.2-0.3,0.4-0.3,0.6c0,0.1,0,0.3,0.1,0.4c0.1,0.1,0.2,0.2,0.4,0.3c0.1,0,0.5,0.1,1,0.3c0.8,0.2,1.4,0.4,1.7,0.5
		c0.3,0.1,0.6,0.3,0.8,0.6c0.2,0.3,0.3,0.6,0.3,1c0,0.4-0.1,0.7-0.3,1.1c-0.2,0.3-0.5,0.6-1,0.8c-0.4,0.2-0.9,0.3-1.4,0.3
		c-0.9,0-1.5-0.2-2-0.5C579.4,227.4,579.1,226.9,579,226.2z"/>
	<path d="M588.5,227.2l0.2,1c-0.3,0.1-0.6,0.1-0.9,0.1c-0.4,0-0.7-0.1-1-0.2c-0.2-0.1-0.4-0.3-0.5-0.5c-0.1-0.2-0.1-0.7-0.1-1.3
		v-3.9h-0.8v-0.9h0.8v-1.7l1.1-0.7v2.4h1.1v0.9h-1.1v3.9c0,0.3,0,0.5,0.1,0.6s0.1,0.2,0.2,0.2c0.1,0.1,0.2,0.1,0.4,0.1
		C588.1,227.2,588.3,227.2,588.5,227.2z"/>
	<path d="M597.6,228.2v-0.9c-0.4,0.7-1.1,1-1.9,1c-0.5,0-1-0.1-1.5-0.4c-0.5-0.3-0.8-0.7-1-1.2c-0.2-0.5-0.4-1.1-0.4-1.8
		c0-0.7,0.1-1.3,0.3-1.8c0.2-0.5,0.6-1,1-1.3c0.4-0.3,1-0.4,1.5-0.4c0.4,0,0.8,0.1,1.1,0.3c0.3,0.2,0.6,0.4,0.8,0.7v-3.3h1.1v9.3
		H597.6z M594,224.8c0,0.9,0.2,1.5,0.5,1.9c0.4,0.4,0.8,0.6,1.3,0.6c0.5,0,0.9-0.2,1.3-0.6c0.3-0.4,0.5-1,0.5-1.9
		c0-0.9-0.2-1.6-0.5-2s-0.8-0.6-1.3-0.6c-0.5,0-0.9,0.2-1.3,0.6C594.1,223.3,594,223.9,594,224.8z"/>
	<path d="M600.4,220.2v-1.3h1.1v1.3H600.4z M600.4,228.2v-6.7h1.1v6.7H600.4z"/>
	<path d="M607.9,226l1.2,0.1c-0.2,0.7-0.5,1.2-1,1.6c-0.5,0.4-1.1,0.6-1.9,0.6c-1,0-1.8-0.3-2.3-0.9c-0.6-0.6-0.9-1.5-0.9-2.6
		c0-1.1,0.3-2,0.9-2.6s1.3-0.9,2.3-0.9c0.9,0,1.6,0.3,2.2,0.9c0.6,0.6,0.9,1.5,0.9,2.6c0,0.1,0,0.2,0,0.3h-5c0,0.7,0.3,1.3,0.6,1.7
		c0.4,0.4,0.8,0.6,1.4,0.6c0.4,0,0.8-0.1,1.1-0.3C607.5,226.9,607.7,226.5,607.9,226z M604.2,224.2h3.8c-0.1-0.6-0.2-1-0.4-1.3
		c-0.4-0.4-0.8-0.7-1.4-0.7c-0.5,0-1,0.2-1.3,0.5C604.4,223.1,604.2,223.6,604.2,224.2z"/>
	<path d="M617,228.2l-3.6-9.3h1.3l2.4,6.8c0.2,0.5,0.4,1,0.5,1.5c0.1-0.5,0.3-1,0.5-1.5l2.5-6.8h1.3l-3.6,9.3H617z"/>
	<path d="M621.7,224.8c0-1.2,0.3-2.2,1-2.8c0.6-0.5,1.3-0.7,2.1-0.7c0.9,0,1.7,0.3,2.3,0.9c0.6,0.6,0.9,1.4,0.9,2.5
		c0,0.9-0.1,1.5-0.4,2c-0.3,0.5-0.6,0.9-1.1,1.2c-0.5,0.3-1,0.4-1.6,0.4c-0.9,0-1.7-0.3-2.3-0.9C622,226.8,621.7,226,621.7,224.8z
		 M622.9,224.8c0,0.9,0.2,1.5,0.6,1.9c0.4,0.4,0.9,0.6,1.4,0.6c0.6,0,1-0.2,1.4-0.6c0.4-0.4,0.6-1.1,0.6-2c0-0.8-0.2-1.5-0.6-1.9
		c-0.4-0.4-0.8-0.6-1.4-0.6c-0.6,0-1,0.2-1.4,0.6C623,223.3,622.9,224,622.9,224.8z"/>
	<path d="M629.3,228.2v-6.7h1v1c0.3-0.5,0.5-0.8,0.7-0.9c0.2-0.2,0.5-0.2,0.7-0.2c0.4,0,0.8,0.1,1.2,0.4l-0.4,1.1
		c-0.3-0.2-0.6-0.2-0.8-0.2c-0.3,0-0.5,0.1-0.7,0.2c-0.2,0.2-0.3,0.4-0.4,0.6c-0.1,0.4-0.2,0.9-0.2,1.3v3.5H629.3z"/>
	<path d="M633.7,228.2v-9.3h1.1v3.3c0.5-0.6,1.2-0.9,2-0.9c0.5,0,0.9,0.1,1.3,0.3c0.4,0.2,0.6,0.5,0.8,0.8c0.2,0.3,0.2,0.9,0.2,1.5
		v4.3H638v-4.3c0-0.6-0.1-1-0.4-1.2c-0.2-0.3-0.6-0.4-1.1-0.4c-0.3,0-0.7,0.1-1,0.3c-0.3,0.2-0.5,0.4-0.6,0.7
		c-0.1,0.3-0.2,0.7-0.2,1.2v3.7H633.7z"/>
	<path d="M645.5,226l1.2,0.1c-0.2,0.7-0.5,1.2-1,1.6c-0.5,0.4-1.1,0.6-1.9,0.6c-1,0-1.8-0.3-2.3-0.9c-0.6-0.6-0.9-1.5-0.9-2.6
		c0-1.1,0.3-2,0.9-2.6s1.3-0.9,2.3-0.9c0.9,0,1.6,0.3,2.2,0.9c0.6,0.6,0.9,1.5,0.9,2.6c0,0.1,0,0.2,0,0.3h-5c0,0.7,0.3,1.3,0.6,1.7
		c0.4,0.4,0.8,0.6,1.4,0.6c0.4,0,0.8-0.1,1.1-0.3C645.1,226.9,645.3,226.5,645.5,226z M641.8,224.2h3.8c-0.1-0.6-0.2-1-0.4-1.3
		c-0.4-0.4-0.8-0.7-1.4-0.7c-0.5,0-1,0.2-1.3,0.5C642,223.1,641.8,223.6,641.8,224.2z"/>
	<path d="M648.1,228.2v-6.7h1v1c0.3-0.5,0.5-0.8,0.7-0.9c0.2-0.2,0.5-0.2,0.7-0.2c0.4,0,0.8,0.1,1.2,0.4l-0.4,1.1
		c-0.3-0.2-0.6-0.2-0.8-0.2c-0.3,0-0.5,0.1-0.7,0.2c-0.2,0.2-0.3,0.4-0.4,0.6c-0.1,0.4-0.2,0.9-0.2,1.3v3.5H648.1z"/>
	<path d="M652,226.2l1.1-0.2c0.1,0.5,0.2,0.8,0.5,1c0.3,0.2,0.7,0.4,1.2,0.4c0.5,0,0.9-0.1,1.2-0.3s0.4-0.5,0.4-0.8
		c0-0.3-0.1-0.5-0.3-0.6c-0.2-0.1-0.5-0.2-1.2-0.4c-0.8-0.2-1.4-0.4-1.7-0.5c-0.3-0.2-0.6-0.4-0.7-0.6c-0.2-0.3-0.3-0.6-0.3-0.9
		c0-0.3,0.1-0.6,0.2-0.8c0.1-0.3,0.3-0.5,0.6-0.6c0.2-0.1,0.4-0.2,0.7-0.3s0.6-0.1,1-0.1c0.5,0,1,0.1,1.4,0.2
		c0.4,0.2,0.7,0.4,0.9,0.6c0.2,0.3,0.3,0.6,0.4,1l-1.1,0.2c-0.1-0.3-0.2-0.6-0.4-0.8c-0.2-0.2-0.6-0.3-1-0.3c-0.5,0-0.9,0.1-1.1,0.3
		c-0.2,0.2-0.3,0.4-0.3,0.6c0,0.1,0,0.3,0.1,0.4c0.1,0.1,0.2,0.2,0.4,0.3c0.1,0,0.5,0.1,1,0.3c0.8,0.2,1.4,0.4,1.7,0.5
		c0.3,0.1,0.6,0.3,0.8,0.6c0.2,0.3,0.3,0.6,0.3,1c0,0.4-0.1,0.7-0.3,1.1c-0.2,0.3-0.5,0.6-1,0.8c-0.4,0.2-0.9,0.3-1.4,0.3
		c-0.9,0-1.5-0.2-2-0.5C652.4,227.4,652.1,226.9,652,226.2z"/>
	<path d="M663.3,227.4c-0.4,0.4-0.8,0.6-1.2,0.8c-0.4,0.1-0.8,0.2-1.3,0.2c-0.7,0-1.3-0.2-1.7-0.5c-0.4-0.4-0.6-0.8-0.6-1.4
		c0-0.3,0.1-0.6,0.2-0.9c0.1-0.3,0.3-0.5,0.6-0.7s0.5-0.3,0.8-0.4c0.2-0.1,0.6-0.1,1-0.2c0.9-0.1,1.6-0.2,2-0.4c0-0.2,0-0.3,0-0.3
		c0-0.5-0.1-0.8-0.3-1c-0.3-0.3-0.7-0.4-1.3-0.4c-0.5,0-0.9,0.1-1.2,0.3s-0.4,0.5-0.6,1l-1.1-0.2c0.1-0.5,0.3-0.9,0.5-1.2
		c0.2-0.3,0.6-0.5,1-0.7c0.4-0.2,1-0.2,1.5-0.2c0.6,0,1,0.1,1.4,0.2c0.4,0.1,0.6,0.3,0.8,0.5c0.2,0.2,0.3,0.5,0.4,0.8
		c0,0.2,0.1,0.5,0.1,1.1v1.5c0,1.1,0,1.7,0.1,2s0.1,0.6,0.3,0.8h-1.2C663.5,228,663.4,227.7,663.3,227.4z M663.3,224.8
		c-0.4,0.2-1,0.3-1.9,0.4c-0.5,0.1-0.8,0.1-1,0.2c-0.2,0.1-0.3,0.2-0.5,0.4c-0.1,0.2-0.2,0.3-0.2,0.5c0,0.3,0.1,0.6,0.3,0.8
		s0.6,0.3,1,0.3c0.4,0,0.8-0.1,1.2-0.3s0.6-0.5,0.8-0.8c0.1-0.3,0.2-0.6,0.2-1.1V224.8z"/>
	<path d="M666,228.8l1.1,0.2c0,0.3,0.2,0.6,0.4,0.7c0.3,0.2,0.7,0.3,1.2,0.3c0.5,0,0.9-0.1,1.2-0.3c0.3-0.2,0.5-0.5,0.6-0.9
		c0.1-0.2,0.1-0.7,0.1-1.5c-0.5,0.6-1.1,0.9-1.9,0.9c-0.9,0-1.6-0.3-2.2-1s-0.8-1.5-0.8-2.4c0-0.6,0.1-1.2,0.3-1.8
		c0.2-0.5,0.6-1,1-1.3c0.4-0.3,1-0.4,1.6-0.4c0.8,0,1.5,0.3,2,1v-0.8h1.1v5.8c0,1-0.1,1.8-0.3,2.2c-0.2,0.4-0.6,0.8-1,1
		c-0.5,0.3-1,0.4-1.7,0.4c-0.8,0-1.5-0.2-1.9-0.5C666.2,230,666,229.5,666,228.8z M666.9,224.7c0,0.9,0.2,1.5,0.5,1.9
		c0.4,0.4,0.8,0.6,1.3,0.6c0.5,0,1-0.2,1.3-0.6s0.5-1,0.5-1.9c0-0.8-0.2-1.4-0.5-1.9s-0.8-0.6-1.3-0.6c-0.5,0-0.9,0.2-1.3,0.6
		C667.1,223.3,666.9,223.9,666.9,224.7z"/>
	<path d="M678,226l1.2,0.1c-0.2,0.7-0.5,1.2-1,1.6c-0.5,0.4-1.1,0.6-1.9,0.6c-1,0-1.8-0.3-2.3-0.9c-0.6-0.6-0.9-1.5-0.9-2.6
		c0-1.1,0.3-2,0.9-2.6s1.3-0.9,2.3-0.9c0.9,0,1.6,0.3,2.2,0.9c0.6,0.6,0.9,1.5,0.9,2.6c0,0.1,0,0.2,0,0.3h-5c0,0.7,0.3,1.3,0.6,1.7
		c0.4,0.4,0.8,0.6,1.4,0.6c0.4,0,0.8-0.1,1.1-0.3C677.6,226.9,677.9,226.5,678,226z M674.3,224.2h3.8c-0.1-0.6-0.2-1-0.4-1.3
		c-0.4-0.4-0.8-0.7-1.4-0.7c-0.5,0-1,0.2-1.3,0.5C674.5,223.1,674.3,223.6,674.3,224.2z"/>
	<path d="M686.4,225.9c0-0.2,0-0.3,0-0.3c0-0.4,0.1-0.8,0.2-1.2c0.1-0.2,0.2-0.5,0.5-0.7c0.2-0.2,0.4-0.4,0.8-0.8
		c0.4-0.3,0.7-0.6,0.8-0.8c0.1-0.2,0.2-0.4,0.2-0.7c0-0.4-0.2-0.8-0.5-1.2c-0.3-0.3-0.8-0.5-1.3-0.5c-0.5,0-0.9,0.2-1.2,0.5
		c-0.3,0.3-0.5,0.8-0.6,1.4l-1.2-0.1c0.1-0.9,0.4-1.5,0.9-2s1.2-0.7,2.1-0.7c0.9,0,1.6,0.2,2.2,0.7c0.5,0.5,0.8,1.1,0.8,1.8
		c0,0.4-0.1,0.8-0.3,1.1s-0.6,0.8-1.1,1.3c-0.4,0.3-0.6,0.6-0.7,0.7s-0.2,0.3-0.3,0.5c-0.1,0.2-0.1,0.5-0.1,1H686.4z M686.3,228.2
		v-1.3h1.3v1.3H686.3z"/>
</g>
<g class="st3">
	<path d="M518.1,246.5c-0.6-0.8-1.2-1.7-1.6-2.8c-0.4-1.1-0.7-2.2-0.7-3.3c0-1,0.2-2,0.5-2.9c0.4-1.1,1-2.1,1.8-3.2h0.8
		c-0.5,0.9-0.9,1.5-1,1.9c-0.3,0.6-0.5,1.2-0.6,1.8c-0.2,0.8-0.3,1.6-0.3,2.4c0,2,0.6,4.1,1.9,6.1H518.1z"/>
	<path d="M523,243.8l-3.6-9.3h1.3l2.4,6.8c0.2,0.5,0.4,1,0.5,1.5c0.1-0.5,0.3-1,0.5-1.5l2.5-6.8h1.3l-3.6,9.3H523z"/>
	<path d="M532.8,241.6l1.2,0.1c-0.2,0.7-0.5,1.2-1,1.6c-0.5,0.4-1.1,0.6-1.9,0.6c-1,0-1.8-0.3-2.3-0.9c-0.6-0.6-0.9-1.5-0.9-2.6
		c0-1.1,0.3-2,0.9-2.6s1.3-0.9,2.3-0.9c0.9,0,1.6,0.3,2.2,0.9c0.6,0.6,0.9,1.5,0.9,2.6c0,0.1,0,0.2,0,0.3h-5c0,0.7,0.3,1.3,0.6,1.7
		c0.4,0.4,0.8,0.6,1.4,0.6c0.4,0,0.8-0.1,1.1-0.3C532.4,242.5,532.6,242.1,532.8,241.6z M529,239.8h3.8c-0.1-0.6-0.2-1-0.4-1.3
		c-0.4-0.4-0.8-0.7-1.4-0.7c-0.5,0-1,0.2-1.3,0.5C529.3,238.7,529.1,239.2,529,239.8z"/>
	<path d="M535.4,243.8v-6.7h1v1c0.3-0.5,0.5-0.8,0.7-0.9c0.2-0.2,0.5-0.2,0.7-0.2c0.4,0,0.8,0.1,1.2,0.4l-0.4,1.1
		c-0.3-0.2-0.6-0.2-0.8-0.2c-0.3,0-0.5,0.1-0.7,0.2c-0.2,0.2-0.3,0.4-0.4,0.6c-0.1,0.4-0.2,0.9-0.2,1.3v3.5H535.4z"/>
	<path d="M539.5,244.4l1.1,0.2c0,0.3,0.2,0.6,0.4,0.7c0.3,0.2,0.7,0.3,1.2,0.3c0.5,0,0.9-0.1,1.2-0.3c0.3-0.2,0.5-0.5,0.6-0.9
		c0.1-0.2,0.1-0.7,0.1-1.5c-0.5,0.6-1.1,0.9-1.9,0.9c-0.9,0-1.6-0.3-2.2-1s-0.8-1.5-0.8-2.4c0-0.6,0.1-1.2,0.3-1.8
		c0.2-0.5,0.6-1,1-1.3s1-0.4,1.6-0.4c0.8,0,1.5,0.3,2,1v-0.8h1.1v5.8c0,1-0.1,1.8-0.3,2.2c-0.2,0.4-0.6,0.8-1,1
		c-0.5,0.3-1,0.4-1.7,0.4c-0.8,0-1.5-0.2-1.9-0.5C539.7,245.6,539.5,245.1,539.5,244.4z M540.5,240.3c0,0.9,0.2,1.5,0.5,1.9
		c0.4,0.4,0.8,0.6,1.3,0.6c0.5,0,1-0.2,1.3-0.6s0.5-1,0.5-1.9c0-0.8-0.2-1.4-0.5-1.9c-0.4-0.4-0.8-0.6-1.3-0.6
		c-0.5,0-0.9,0.2-1.3,0.6C540.6,238.9,540.5,239.5,540.5,240.3z"/>
	<path d="M546.9,243.8v-9.3h1.1v9.3H546.9z"/>
	<path d="M554.5,241.6l1.2,0.1c-0.2,0.7-0.5,1.2-1,1.6c-0.5,0.4-1.1,0.6-1.9,0.6c-1,0-1.8-0.3-2.3-0.9c-0.6-0.6-0.9-1.5-0.9-2.6
		c0-1.1,0.3-2,0.9-2.6s1.3-0.9,2.3-0.9c0.9,0,1.6,0.3,2.2,0.9c0.6,0.6,0.9,1.5,0.9,2.6c0,0.1,0,0.2,0,0.3h-5c0,0.7,0.3,1.3,0.6,1.7
		c0.4,0.4,0.8,0.6,1.4,0.6c0.4,0,0.8-0.1,1.1-0.3C554.1,242.5,554.3,242.1,554.5,241.6z M550.7,239.8h3.8c-0.1-0.6-0.2-1-0.4-1.3
		c-0.4-0.4-0.8-0.7-1.4-0.7c-0.5,0-1,0.2-1.3,0.5C550.9,238.7,550.7,239.2,550.7,239.8z"/>
	<path d="M557.1,235.8v-1.3h1.1v1.3H557.1z M557.1,243.8v-6.7h1.1v6.7H557.1z"/>
	<path d="M564.4,241.3l1.1,0.1c-0.1,0.8-0.4,1.4-0.9,1.8c-0.5,0.4-1.1,0.7-1.9,0.7c-0.9,0-1.7-0.3-2.2-0.9c-0.6-0.6-0.8-1.5-0.8-2.6
		c0-0.7,0.1-1.4,0.4-1.9s0.6-1,1.1-1.2c0.5-0.3,1-0.4,1.6-0.4c0.7,0,1.3,0.2,1.8,0.6c0.5,0.4,0.8,0.9,0.9,1.6l-1.1,0.2
		c-0.1-0.5-0.3-0.8-0.6-1s-0.6-0.3-1-0.3c-0.6,0-1,0.2-1.4,0.6c-0.4,0.4-0.5,1.1-0.5,2c0,0.9,0.2,1.6,0.5,2c0.3,0.4,0.8,0.6,1.4,0.6
		c0.4,0,0.8-0.1,1.1-0.4C564.1,242.3,564.3,241.9,564.4,241.3z"/>
	<path d="M566.5,243.8v-9.3h1.1v3.3c0.5-0.6,1.2-0.9,2-0.9c0.5,0,0.9,0.1,1.3,0.3c0.4,0.2,0.6,0.5,0.8,0.8c0.2,0.3,0.2,0.9,0.2,1.5
		v4.3h-1.1v-4.3c0-0.6-0.1-1-0.4-1.2c-0.2-0.3-0.6-0.4-1.1-0.4c-0.3,0-0.7,0.1-1,0.3c-0.3,0.2-0.5,0.4-0.6,0.7
		c-0.1,0.3-0.2,0.7-0.2,1.2v3.7H566.5z"/>
	<path d="M577.3,243.8v-6.7h1v0.9c0.2-0.3,0.5-0.6,0.8-0.8c0.4-0.2,0.8-0.3,1.2-0.3c0.5,0,0.9,0.1,1.2,0.3c0.3,0.2,0.5,0.5,0.7,0.9
		c0.5-0.8,1.2-1.2,2.1-1.2c0.7,0,1.2,0.2,1.5,0.6c0.4,0.4,0.5,0.9,0.5,1.7v4.6h-1.1v-4.2c0-0.5,0-0.8-0.1-1
		c-0.1-0.2-0.2-0.4-0.4-0.5c-0.2-0.1-0.4-0.2-0.7-0.2c-0.5,0-0.9,0.2-1.2,0.5c-0.3,0.3-0.5,0.8-0.5,1.5v3.9h-1.1v-4.4
		c0-0.5-0.1-0.9-0.3-1.1c-0.2-0.3-0.5-0.4-0.9-0.4c-0.3,0-0.6,0.1-0.9,0.3c-0.3,0.2-0.5,0.4-0.6,0.7c-0.1,0.3-0.2,0.8-0.2,1.4v3.5
		H577.3z"/>
	<path d="M588.1,235.8v-1.3h1.1v1.3H588.1z M588.1,243.8v-6.7h1.1v6.7H588.1z"/>
	<path d="M593.5,242.8l0.2,1c-0.3,0.1-0.6,0.1-0.9,0.1c-0.4,0-0.7-0.1-1-0.2c-0.2-0.1-0.4-0.3-0.5-0.5c-0.1-0.2-0.1-0.7-0.1-1.3
		v-3.9h-0.8v-0.9h0.8v-1.7l1.1-0.7v2.4h1.1v0.9h-1.1v3.9c0,0.3,0,0.5,0.1,0.6c0,0.1,0.1,0.2,0.2,0.2c0.1,0.1,0.2,0.1,0.4,0.1
		C593.1,242.8,593.3,242.8,593.5,242.8z"/>
	<path d="M598.2,243.8v-6.7h1v1c0.3-0.5,0.5-0.8,0.7-0.9c0.2-0.2,0.5-0.2,0.7-0.2c0.4,0,0.8,0.1,1.2,0.4l-0.4,1.1
		c-0.3-0.2-0.6-0.2-0.8-0.2c-0.2,0-0.5,0.1-0.7,0.2c-0.2,0.2-0.3,0.4-0.4,0.6c-0.1,0.4-0.2,0.9-0.2,1.3v3.5H598.2z"/>
	<path d="M602.6,235.8v-1.3h1.1v1.3H602.6z M602.6,243.8v-6.7h1.1v6.7H602.6z"/>
	<path d="M609.9,241.3l1.1,0.1c-0.1,0.8-0.4,1.4-0.9,1.8c-0.5,0.4-1.1,0.7-1.9,0.7c-0.9,0-1.7-0.3-2.2-0.9c-0.6-0.6-0.8-1.5-0.8-2.6
		c0-0.7,0.1-1.4,0.4-1.9s0.6-1,1.1-1.2c0.5-0.3,1-0.4,1.6-0.4c0.7,0,1.3,0.2,1.8,0.6c0.5,0.4,0.8,0.9,0.9,1.6l-1.1,0.2
		c-0.1-0.5-0.3-0.8-0.6-1s-0.6-0.3-1-0.3c-0.6,0-1,0.2-1.4,0.6c-0.4,0.4-0.5,1.1-0.5,2c0,0.9,0.2,1.6,0.5,2c0.3,0.4,0.8,0.6,1.4,0.6
		c0.4,0,0.8-0.1,1.1-0.4C609.6,242.3,609.8,241.9,609.9,241.3z"/>
	<path d="M612,243.8v-9.3h1.1v3.3c0.5-0.6,1.2-0.9,2-0.9c0.5,0,0.9,0.1,1.3,0.3c0.4,0.2,0.6,0.5,0.8,0.8c0.2,0.3,0.2,0.9,0.2,1.5
		v4.3h-1.1v-4.3c0-0.6-0.1-1-0.4-1.2c-0.2-0.3-0.6-0.4-1.1-0.4c-0.3,0-0.7,0.1-1,0.3c-0.3,0.2-0.5,0.4-0.6,0.7
		c-0.1,0.3-0.2,0.7-0.2,1.2v3.7H612z"/>
	<path d="M621.7,242.8l0.2,1c-0.3,0.1-0.6,0.1-0.9,0.1c-0.4,0-0.7-0.1-1-0.2c-0.2-0.1-0.4-0.3-0.5-0.5c-0.1-0.2-0.1-0.7-0.1-1.3
		v-3.9h-0.8v-0.9h0.8v-1.7l1.1-0.7v2.4h1.1v0.9h-1.1v3.9c0,0.3,0,0.5,0.1,0.6c0,0.1,0.1,0.2,0.2,0.2c0.1,0.1,0.2,0.1,0.4,0.1
		C621.3,242.8,621.5,242.8,621.7,242.8z"/>
	<path d="M622.8,235.8v-1.3h1.1v1.3H622.8z M622.8,243.8v-6.7h1.1v6.7H622.8z"/>
	<path d="M625.5,244.4l1.1,0.2c0,0.3,0.2,0.6,0.4,0.7c0.3,0.2,0.7,0.3,1.2,0.3c0.5,0,0.9-0.1,1.2-0.3c0.3-0.2,0.5-0.5,0.6-0.9
		c0.1-0.2,0.1-0.7,0.1-1.5c-0.5,0.6-1.1,0.9-1.9,0.9c-0.9,0-1.6-0.3-2.2-1s-0.8-1.5-0.8-2.4c0-0.6,0.1-1.2,0.3-1.8
		c0.2-0.5,0.6-1,1-1.3c0.4-0.3,1-0.4,1.6-0.4c0.8,0,1.5,0.3,2,1v-0.8h1.1v5.8c0,1-0.1,1.8-0.3,2.2c-0.2,0.4-0.6,0.8-1,1
		c-0.5,0.3-1,0.4-1.7,0.4c-0.8,0-1.5-0.2-1.9-0.5C625.7,245.6,625.5,245.1,625.5,244.4z M626.4,240.3c0,0.9,0.2,1.5,0.5,1.9
		c0.4,0.4,0.8,0.6,1.3,0.6c0.5,0,1-0.2,1.3-0.6s0.5-1,0.5-1.9c0-0.8-0.2-1.4-0.5-1.9s-0.8-0.6-1.3-0.6c-0.5,0-0.9,0.2-1.3,0.6
		C626.6,238.9,626.4,239.5,626.4,240.3z"/>
	<path d="M637.5,241.6l1.2,0.1c-0.2,0.7-0.5,1.2-1,1.6c-0.5,0.4-1.1,0.6-1.9,0.6c-1,0-1.8-0.3-2.3-0.9c-0.6-0.6-0.9-1.5-0.9-2.6
		c0-1.1,0.3-2,0.9-2.6s1.3-0.9,2.3-0.9c0.9,0,1.6,0.3,2.2,0.9c0.6,0.6,0.9,1.5,0.9,2.6c0,0.1,0,0.2,0,0.3h-5c0,0.7,0.3,1.3,0.6,1.7
		c0.4,0.4,0.8,0.6,1.4,0.6c0.4,0,0.8-0.1,1.1-0.3C637.1,242.5,637.4,242.1,637.5,241.6z M633.8,239.8h3.8c-0.1-0.6-0.2-1-0.4-1.3
		c-0.4-0.4-0.8-0.7-1.4-0.7c-0.5,0-1,0.2-1.3,0.5C634,238.7,633.8,239.2,633.8,239.8z"/>
	<path d="M640.2,243.8v-6.7h1v0.9c0.2-0.3,0.5-0.6,0.8-0.8c0.4-0.2,0.8-0.3,1.2-0.3c0.5,0,0.9,0.1,1.2,0.3c0.3,0.2,0.5,0.5,0.7,0.9
		c0.5-0.8,1.2-1.2,2.1-1.2c0.7,0,1.2,0.2,1.5,0.6c0.4,0.4,0.5,0.9,0.5,1.7v4.6h-1.1v-4.2c0-0.5,0-0.8-0.1-1s-0.2-0.4-0.4-0.5
		c-0.2-0.1-0.4-0.2-0.7-0.2c-0.5,0-0.9,0.2-1.2,0.5c-0.3,0.3-0.5,0.8-0.5,1.5v3.9h-1.1v-4.4c0-0.5-0.1-0.9-0.3-1.1
		c-0.2-0.3-0.5-0.4-0.9-0.4c-0.3,0-0.6,0.1-0.9,0.3c-0.3,0.2-0.5,0.4-0.6,0.7c-0.1,0.3-0.2,0.8-0.2,1.4v3.5H640.2z"/>
	<path d="M654.8,243.8v-9.3h6.7v1.1H656v2.8h5.1v1.1H656v3.2h5.7v1.1H654.8z"/>
	<path d="M663.3,243.8v-6.7h1v1c0.3-0.5,0.5-0.8,0.7-0.9c0.2-0.2,0.5-0.2,0.7-0.2c0.4,0,0.8,0.1,1.2,0.4l-0.4,1.1
		c-0.3-0.2-0.6-0.2-0.8-0.2c-0.3,0-0.5,0.1-0.7,0.2c-0.2,0.2-0.3,0.4-0.4,0.6c-0.1,0.4-0.2,0.9-0.2,1.3v3.5H663.3z"/>
	<path d="M667.4,244.4l1.1,0.2c0,0.3,0.2,0.6,0.4,0.7c0.3,0.2,0.7,0.3,1.2,0.3c0.5,0,0.9-0.1,1.2-0.3c0.3-0.2,0.5-0.5,0.6-0.9
		c0.1-0.2,0.1-0.7,0.1-1.5c-0.5,0.6-1.1,0.9-1.9,0.9c-0.9,0-1.6-0.3-2.2-1s-0.8-1.5-0.8-2.4c0-0.6,0.1-1.2,0.3-1.8
		c0.2-0.5,0.6-1,1-1.3s1-0.4,1.6-0.4c0.8,0,1.5,0.3,2,1v-0.8h1.1v5.8c0,1-0.1,1.8-0.3,2.2c-0.2,0.4-0.6,0.8-1,1
		c-0.5,0.3-1,0.4-1.7,0.4c-0.8,0-1.5-0.2-1.9-0.5C667.6,245.6,667.4,245.1,667.4,244.4z M668.3,240.3c0,0.9,0.2,1.5,0.5,1.9
		c0.4,0.4,0.8,0.6,1.3,0.6c0.5,0,1-0.2,1.3-0.6s0.5-1,0.5-1.9c0-0.8-0.2-1.4-0.5-1.9c-0.4-0.4-0.8-0.6-1.3-0.6
		c-0.5,0-0.9,0.2-1.3,0.6C668.5,238.9,668.3,239.5,668.3,240.3z"/>
	<path d="M679.4,241.6l1.2,0.1c-0.2,0.7-0.5,1.2-1,1.6c-0.5,0.4-1.1,0.6-1.9,0.6c-1,0-1.8-0.3-2.3-0.9c-0.6-0.6-0.9-1.5-0.9-2.6
		c0-1.1,0.3-2,0.9-2.6s1.3-0.9,2.3-0.9c0.9,0,1.6,0.3,2.2,0.9c0.6,0.6,0.9,1.5,0.9,2.6c0,0.1,0,0.2,0,0.3h-5c0,0.7,0.3,1.3,0.6,1.7
		c0.4,0.4,0.8,0.6,1.4,0.6c0.4,0,0.8-0.1,1.1-0.3C679,242.5,679.3,242.1,679.4,241.6z M675.7,239.8h3.8c-0.1-0.6-0.2-1-0.4-1.3
		c-0.4-0.4-0.8-0.7-1.4-0.7c-0.5,0-1,0.2-1.3,0.5C675.9,238.7,675.7,239.2,675.7,239.8z"/>
	<path d="M683.1,243.8H682v-9.3h1.1v3.3c0.5-0.6,1.1-0.9,1.8-0.9c0.4,0,0.8,0.1,1.2,0.3s0.7,0.4,0.9,0.7s0.4,0.7,0.6,1.1
		c0.1,0.4,0.2,0.9,0.2,1.4c0,1.2-0.3,2-0.9,2.7c-0.6,0.6-1.3,0.9-2.1,0.9c-0.8,0-1.4-0.3-1.9-1V243.8z M683.1,240.4
		c0,0.8,0.1,1.4,0.3,1.8c0.4,0.6,0.8,0.9,1.5,0.9c0.5,0,0.9-0.2,1.3-0.7c0.4-0.4,0.5-1.1,0.5-1.9c0-0.9-0.2-1.5-0.5-1.9
		c-0.3-0.4-0.8-0.6-1.3-0.6c-0.5,0-0.9,0.2-1.3,0.7C683.3,238.9,683.1,239.6,683.1,240.4z"/>
	<path d="M689.3,243.8v-6.7h1v1c0.5-0.7,1.2-1.1,2.1-1.1c0.4,0,0.8,0.1,1.1,0.2c0.3,0.1,0.6,0.3,0.8,0.6c0.2,0.2,0.3,0.5,0.4,0.8
		c0,0.2,0.1,0.6,0.1,1.1v4.1h-1.1v-4.1c0-0.5,0-0.8-0.1-1s-0.2-0.4-0.5-0.6c-0.2-0.1-0.5-0.2-0.8-0.2c-0.5,0-0.9,0.2-1.3,0.5
		c-0.4,0.3-0.5,0.9-0.5,1.8v3.7H689.3z"/>
	<path d="M696.5,235.8v-1.3h1.1v1.3H696.5z M696.5,243.8v-6.7h1.1v6.7H696.5z"/>
	<path d="M698.9,241.8l1.1-0.2c0.1,0.5,0.2,0.8,0.5,1c0.3,0.2,0.7,0.4,1.2,0.4c0.5,0,0.9-0.1,1.2-0.3s0.4-0.5,0.4-0.8
		c0-0.3-0.1-0.5-0.3-0.6c-0.2-0.1-0.5-0.2-1.2-0.4c-0.8-0.2-1.4-0.4-1.7-0.5c-0.3-0.2-0.6-0.4-0.7-0.6c-0.2-0.3-0.3-0.6-0.3-0.9
		c0-0.3,0.1-0.6,0.2-0.8s0.3-0.5,0.6-0.6c0.2-0.1,0.4-0.2,0.7-0.3c0.3-0.1,0.6-0.1,1-0.1c0.5,0,1,0.1,1.4,0.2
		c0.4,0.2,0.7,0.4,0.9,0.6c0.2,0.3,0.3,0.6,0.4,1l-1.1,0.2c-0.1-0.3-0.2-0.6-0.4-0.8s-0.6-0.3-1-0.3c-0.5,0-0.9,0.1-1.1,0.3
		c-0.2,0.2-0.3,0.4-0.3,0.6c0,0.1,0,0.3,0.1,0.4c0.1,0.1,0.2,0.2,0.4,0.3c0.1,0,0.5,0.1,1,0.3c0.8,0.2,1.4,0.4,1.7,0.5
		s0.6,0.3,0.8,0.6c0.2,0.3,0.3,0.6,0.3,1c0,0.4-0.1,0.7-0.3,1.1c-0.2,0.3-0.5,0.6-1,0.8c-0.4,0.2-0.9,0.3-1.4,0.3
		c-0.9,0-1.5-0.2-2-0.5S699.1,242.5,698.9,241.8z"/>
	<path d="M706.7,246.5h-0.8c1.3-2,1.9-4.1,1.9-6.1c0-0.8-0.1-1.6-0.3-2.4c-0.1-0.6-0.3-1.2-0.6-1.8c-0.2-0.4-0.5-1-1-1.9h0.8
		c0.8,1.1,1.4,2.1,1.8,3.2c0.3,0.9,0.5,1.9,0.5,2.9c0,1.1-0.2,2.2-0.7,3.3C707.8,244.8,707.3,245.7,706.7,246.5z"/>
</g>
<g class="st3">
	<path d="M296.8,193.3h1.3v5.9c0,1-0.1,1.8-0.3,2.4c-0.2,0.6-0.6,1.1-1.2,1.5c-0.6,0.4-1.4,0.6-2.4,0.6c-1,0-1.7-0.2-2.3-0.5
		c-0.6-0.3-1-0.8-1.3-1.4c-0.3-0.6-0.4-1.5-0.4-2.5v-5.9h1.3v5.9c0,0.9,0.1,1.5,0.2,1.9c0.2,0.4,0.4,0.7,0.8,1
		c0.4,0.2,0.9,0.3,1.5,0.3c1,0,1.7-0.2,2.1-0.7c0.4-0.4,0.6-1.3,0.6-2.6V193.3z"/>
	<path d="M300.2,206.3v-10.2h1.1v1c0.3-0.4,0.6-0.7,0.9-0.8c0.3-0.2,0.7-0.3,1.2-0.3c0.6,0,1.2,0.2,1.7,0.5c0.5,0.3,0.8,0.8,1.1,1.4
		c0.2,0.6,0.4,1.2,0.4,1.9c0,0.8-0.1,1.4-0.4,2c-0.3,0.6-0.7,1.1-1.2,1.4c-0.5,0.3-1.1,0.5-1.6,0.5c-0.4,0-0.8-0.1-1.1-0.3
		c-0.3-0.2-0.6-0.4-0.8-0.7v3.6H300.2z M301.3,199.9c0,0.9,0.2,1.6,0.6,2.1c0.4,0.5,0.8,0.7,1.4,0.7c0.6,0,1-0.2,1.4-0.7
		c0.4-0.5,0.6-1.2,0.6-2.2c0-0.9-0.2-1.6-0.6-2.1c-0.4-0.5-0.8-0.7-1.4-0.7c-0.5,0-1,0.2-1.4,0.7
		C301.5,198.2,301.3,198.9,301.3,199.9z"/>
	<path d="M312.8,203.5v-0.9c-0.5,0.7-1.2,1.1-2.1,1.1c-0.6,0-1.1-0.2-1.6-0.5c-0.5-0.3-0.9-0.8-1.1-1.4c-0.3-0.6-0.4-1.2-0.4-2
		c0-0.7,0.1-1.4,0.4-2s0.6-1.1,1.1-1.4s1-0.5,1.6-0.5c0.4,0,0.8,0.1,1.2,0.3c0.3,0.2,0.6,0.4,0.8,0.7v-3.6h1.2v10.1H312.8z
		 M308.9,199.8c0,0.9,0.2,1.6,0.6,2.1c0.4,0.5,0.9,0.7,1.4,0.7c0.5,0,1-0.2,1.4-0.7c0.4-0.4,0.6-1.1,0.6-2c0-1-0.2-1.7-0.6-2.2
		s-0.9-0.7-1.4-0.7c-0.6,0-1,0.2-1.4,0.7C309.1,198.1,308.9,198.9,308.9,199.8z"/>
	<path d="M320.7,202.6c-0.5,0.4-0.9,0.7-1.3,0.8c-0.4,0.2-0.9,0.2-1.4,0.2c-0.8,0-1.4-0.2-1.9-0.6s-0.7-0.9-0.7-1.5
		c0-0.4,0.1-0.7,0.2-1c0.2-0.3,0.4-0.5,0.6-0.7s0.6-0.3,0.9-0.4c0.2-0.1,0.6-0.1,1.1-0.2c1-0.1,1.7-0.3,2.2-0.4c0-0.2,0-0.3,0-0.3
		c0-0.5-0.1-0.9-0.4-1.1c-0.3-0.3-0.8-0.4-1.4-0.4c-0.6,0-1,0.1-1.3,0.3c-0.3,0.2-0.5,0.6-0.6,1.1l-1.2-0.2c0.1-0.5,0.3-0.9,0.5-1.3
		c0.3-0.3,0.6-0.6,1.1-0.7c0.5-0.2,1-0.3,1.7-0.3c0.6,0,1.1,0.1,1.5,0.2s0.7,0.3,0.9,0.6c0.2,0.2,0.3,0.5,0.4,0.8
		c0,0.2,0.1,0.6,0.1,1.1v1.7c0,1.2,0,1.9,0.1,2.2s0.2,0.6,0.3,0.9H321C320.9,203.2,320.8,202.9,320.7,202.6z M320.6,199.8
		c-0.5,0.2-1.1,0.3-2,0.5c-0.5,0.1-0.9,0.2-1.1,0.2c-0.2,0.1-0.4,0.2-0.5,0.4c-0.1,0.2-0.2,0.4-0.2,0.6c0,0.3,0.1,0.6,0.4,0.8
		c0.3,0.2,0.6,0.3,1.1,0.3c0.5,0,0.9-0.1,1.3-0.3c0.4-0.2,0.6-0.5,0.8-0.9c0.1-0.3,0.2-0.7,0.2-1.2V199.8z"/>
	<path d="M326.5,202.4l0.2,1.1c-0.4,0.1-0.7,0.1-0.9,0.1c-0.5,0-0.8-0.1-1.1-0.2c-0.2-0.1-0.4-0.3-0.5-0.6c-0.1-0.2-0.2-0.7-0.2-1.5
		v-4.2h-0.9v-1h0.9v-1.8l1.2-0.7v2.6h1.3v1h-1.3v4.3c0,0.4,0,0.6,0.1,0.7s0.1,0.2,0.2,0.2c0.1,0.1,0.2,0.1,0.4,0.1
		C326.1,202.4,326.3,202.4,326.5,202.4z"/>
	<path d="M332.8,201.1l1.3,0.2c-0.2,0.8-0.6,1.3-1.1,1.8c-0.5,0.4-1.3,0.6-2.1,0.6c-1.1,0-1.9-0.3-2.6-1s-0.9-1.6-0.9-2.8
		c0-1.2,0.3-2.2,1-2.9s1.5-1,2.5-1c1,0,1.8,0.3,2.4,1s0.9,1.6,0.9,2.8c0,0.1,0,0.2,0,0.3h-5.5c0,0.8,0.3,1.4,0.7,1.9
		c0.4,0.4,0.9,0.6,1.5,0.6c0.5,0,0.8-0.1,1.2-0.4C332.3,202,332.6,201.7,332.8,201.1z M328.7,199.1h4.1c-0.1-0.6-0.2-1.1-0.5-1.4
		c-0.4-0.5-0.9-0.7-1.5-0.7c-0.6,0-1.1,0.2-1.4,0.6C329,198,328.7,198.5,328.7,199.1z"/>
	<path d="M344.3,203.5v-0.9c-0.5,0.7-1.2,1.1-2.1,1.1c-0.6,0-1.1-0.2-1.6-0.5c-0.5-0.3-0.9-0.8-1.1-1.4c-0.3-0.6-0.4-1.2-0.4-2
		c0-0.7,0.1-1.4,0.4-2s0.6-1.1,1.1-1.4s1-0.5,1.6-0.5c0.4,0,0.8,0.1,1.2,0.3c0.3,0.2,0.6,0.4,0.8,0.7v-3.6h1.2v10.1H344.3z
		 M340.4,199.8c0,0.9,0.2,1.6,0.6,2.1c0.4,0.5,0.9,0.7,1.4,0.7c0.5,0,1-0.2,1.4-0.7c0.4-0.4,0.6-1.1,0.6-2c0-1-0.2-1.7-0.6-2.2
		s-0.9-0.7-1.4-0.7c-0.6,0-1,0.2-1.4,0.7C340.6,198.1,340.4,198.9,340.4,199.8z"/>
	<path d="M352.5,201.1l1.3,0.2c-0.2,0.8-0.6,1.3-1.1,1.8c-0.5,0.4-1.3,0.6-2.1,0.6c-1.1,0-1.9-0.3-2.6-1s-0.9-1.6-0.9-2.8
		c0-1.2,0.3-2.2,1-2.9s1.5-1,2.5-1c1,0,1.8,0.3,2.4,1s0.9,1.6,0.9,2.8c0,0.1,0,0.2,0,0.3h-5.5c0,0.8,0.3,1.4,0.7,1.9
		c0.4,0.4,0.9,0.6,1.5,0.6c0.5,0,0.8-0.1,1.2-0.4C352,202,352.3,201.7,352.5,201.1z M348.4,199.1h4.1c-0.1-0.6-0.2-1.1-0.5-1.4
		c-0.4-0.5-0.9-0.7-1.5-0.7c-0.6,0-1.1,0.2-1.4,0.6C348.7,198,348.4,198.5,348.4,199.1z"/>
	<path d="M355.3,203.5v-7.4h1.1v1.1c0.3-0.5,0.6-0.9,0.8-1c0.2-0.2,0.5-0.2,0.8-0.2c0.4,0,0.8,0.1,1.3,0.4l-0.4,1.2
		c-0.3-0.2-0.6-0.3-0.9-0.3c-0.3,0-0.5,0.1-0.7,0.2s-0.4,0.4-0.5,0.7c-0.1,0.4-0.2,0.9-0.2,1.5v3.8H355.3z"/>
	<path d="M367.1,203.5l-3.9-10.1h1.5l2.6,7.4c0.2,0.6,0.4,1.1,0.5,1.7c0.2-0.6,0.3-1.1,0.5-1.7l2.7-7.4h1.4l-4,10.1H367.1z"/>
	<path d="M377.2,202.6c-0.5,0.4-0.9,0.7-1.3,0.8c-0.4,0.2-0.9,0.2-1.4,0.2c-0.8,0-1.4-0.2-1.9-0.6s-0.7-0.9-0.7-1.5
		c0-0.4,0.1-0.7,0.2-1c0.2-0.3,0.4-0.5,0.6-0.7s0.6-0.3,0.9-0.4c0.2-0.1,0.6-0.1,1.1-0.2c1-0.1,1.7-0.3,2.2-0.4c0-0.2,0-0.3,0-0.3
		c0-0.5-0.1-0.9-0.4-1.1c-0.3-0.3-0.8-0.4-1.4-0.4c-0.6,0-1,0.1-1.3,0.3c-0.3,0.2-0.5,0.6-0.6,1.1l-1.2-0.2c0.1-0.5,0.3-0.9,0.5-1.3
		c0.3-0.3,0.6-0.6,1.1-0.7c0.5-0.2,1-0.3,1.7-0.3c0.6,0,1.1,0.1,1.5,0.2s0.7,0.3,0.9,0.6c0.2,0.2,0.3,0.5,0.4,0.8
		c0,0.2,0.1,0.6,0.1,1.1v1.7c0,1.2,0,1.9,0.1,2.2s0.2,0.6,0.3,0.9h-1.3C377.3,203.2,377.2,202.9,377.2,202.6z M377.1,199.8
		c-0.5,0.2-1.1,0.3-2,0.5c-0.5,0.1-0.9,0.2-1.1,0.2c-0.2,0.1-0.4,0.2-0.5,0.4c-0.1,0.2-0.2,0.4-0.2,0.6c0,0.3,0.1,0.6,0.4,0.8
		c0.3,0.2,0.6,0.3,1.1,0.3c0.5,0,0.9-0.1,1.3-0.3c0.4-0.2,0.6-0.5,0.8-0.9c0.1-0.3,0.2-0.7,0.2-1.2V199.8z"/>
	<path d="M380.3,203.5v-7.4h1.1v1.1c0.3-0.5,0.6-0.9,0.8-1c0.2-0.2,0.5-0.2,0.8-0.2c0.4,0,0.8,0.1,1.3,0.4l-0.4,1.2
		c-0.3-0.2-0.6-0.3-0.9-0.3c-0.3,0-0.5,0.1-0.7,0.2s-0.4,0.4-0.5,0.7c-0.1,0.4-0.2,0.9-0.2,1.5v3.8H380.3z"/>
	<path d="M385,194.8v-1.4h1.2v1.4H385z M385,203.5v-7.4h1.2v7.4H385z"/>
	<path d="M393,202.6c-0.5,0.4-0.9,0.7-1.3,0.8c-0.4,0.2-0.9,0.2-1.4,0.2c-0.8,0-1.4-0.2-1.9-0.6s-0.7-0.9-0.7-1.5
		c0-0.4,0.1-0.7,0.2-1c0.2-0.3,0.4-0.5,0.6-0.7s0.6-0.3,0.9-0.4c0.2-0.1,0.6-0.1,1.1-0.2c1-0.1,1.7-0.3,2.2-0.4c0-0.2,0-0.3,0-0.3
		c0-0.5-0.1-0.9-0.4-1.1c-0.3-0.3-0.8-0.4-1.4-0.4c-0.6,0-1,0.1-1.3,0.3c-0.3,0.2-0.5,0.6-0.6,1.1l-1.2-0.2c0.1-0.5,0.3-0.9,0.5-1.3
		c0.3-0.3,0.6-0.6,1.1-0.7c0.5-0.2,1-0.3,1.7-0.3c0.6,0,1.1,0.1,1.5,0.2s0.7,0.3,0.9,0.6c0.2,0.2,0.3,0.5,0.4,0.8
		c0,0.2,0.1,0.6,0.1,1.1v1.7c0,1.2,0,1.9,0.1,2.2s0.2,0.6,0.3,0.9h-1.3C393.1,203.2,393,202.9,393,202.6z M392.8,199.8
		c-0.5,0.2-1.1,0.3-2,0.5c-0.5,0.1-0.9,0.2-1.1,0.2c-0.2,0.1-0.4,0.2-0.5,0.4c-0.1,0.2-0.2,0.4-0.2,0.6c0,0.3,0.1,0.6,0.4,0.8
		c0.3,0.2,0.6,0.3,1.1,0.3c0.5,0,0.9-0.1,1.3-0.3c0.4-0.2,0.6-0.5,0.8-0.9c0.1-0.3,0.2-0.7,0.2-1.2V199.8z"/>
	<path d="M397.2,203.5H396v-10.1h1.2v3.6c0.5-0.7,1.2-1,2-1c0.5,0,0.9,0.1,1.3,0.3c0.4,0.2,0.7,0.4,1,0.8c0.3,0.3,0.5,0.7,0.6,1.2
		c0.1,0.5,0.2,1,0.2,1.5c0,1.3-0.3,2.2-0.9,2.9s-1.4,1-2.2,1c-0.9,0-1.5-0.4-2-1.1V203.5z M397.2,199.8c0,0.9,0.1,1.5,0.4,1.9
		c0.4,0.6,0.9,1,1.6,1c0.5,0,1-0.2,1.4-0.7c0.4-0.5,0.6-1.2,0.6-2.1c0-1-0.2-1.7-0.6-2.1c-0.4-0.5-0.8-0.7-1.4-0.7
		c-0.5,0-1,0.2-1.4,0.7C397.4,198.2,397.2,198.9,397.2,199.8z"/>
	<path d="M403.9,203.5v-10.1h1.2v10.1H403.9z"/>
	<path d="M412.1,201.1l1.3,0.2c-0.2,0.8-0.6,1.3-1.1,1.8c-0.5,0.4-1.3,0.6-2.1,0.6c-1.1,0-1.9-0.3-2.6-1s-0.9-1.6-0.9-2.8
		c0-1.2,0.3-2.2,1-2.9s1.5-1,2.5-1c1,0,1.8,0.3,2.4,1s0.9,1.6,0.9,2.8c0,0.1,0,0.2,0,0.3h-5.5c0,0.8,0.3,1.4,0.7,1.9
		c0.4,0.4,0.9,0.6,1.5,0.6c0.5,0,0.8-0.1,1.2-0.4C411.7,202,411.9,201.7,412.1,201.1z M408,199.1h4.1c-0.1-0.6-0.2-1.1-0.5-1.4
		c-0.4-0.5-0.9-0.7-1.5-0.7c-0.6,0-1.1,0.2-1.4,0.6C408.3,198,408.1,198.5,408,199.1z"/>
	<path d="M415,203.5v-7.4h1.1v1c0.5-0.8,1.3-1.2,2.3-1.2c0.4,0,0.9,0.1,1.2,0.2s0.6,0.4,0.8,0.6c0.2,0.3,0.3,0.6,0.4,0.9
		c0,0.2,0.1,0.6,0.1,1.2v4.5h-1.2V199c0-0.5,0-0.9-0.1-1.1c-0.1-0.3-0.3-0.5-0.5-0.6c-0.2-0.1-0.5-0.2-0.9-0.2c-0.5,0-1,0.2-1.4,0.5
		s-0.6,1-0.6,1.9v4H415z"/>
</g>
<g class="st3">
	<path d="M294.7,220.5v-0.9c-0.5,0.7-1.2,1.1-2.1,1.1c-0.6,0-1.1-0.2-1.6-0.5c-0.5-0.3-0.9-0.8-1.1-1.4c-0.3-0.6-0.4-1.2-0.4-2
		c0-0.7,0.1-1.4,0.4-2c0.2-0.6,0.6-1.1,1.1-1.4s1-0.5,1.6-0.5c0.4,0,0.8,0.1,1.2,0.3c0.3,0.2,0.6,0.4,0.8,0.7v-3.6h1.2v10.1H294.7z
		 M290.8,216.8c0,0.9,0.2,1.6,0.6,2.1c0.4,0.5,0.9,0.7,1.4,0.7c0.5,0,1-0.2,1.4-0.7c0.4-0.4,0.6-1.1,0.6-2c0-1-0.2-1.7-0.6-2.2
		s-0.9-0.7-1.4-0.7c-0.6,0-1,0.2-1.4,0.7C291,215.1,290.8,215.9,290.8,216.8z"/>
	<path d="M302.6,219.6c-0.5,0.4-0.9,0.7-1.3,0.8c-0.4,0.2-0.9,0.2-1.4,0.2c-0.8,0-1.4-0.2-1.9-0.6s-0.7-0.9-0.7-1.5
		c0-0.4,0.1-0.7,0.2-1s0.4-0.5,0.6-0.7c0.3-0.2,0.6-0.3,0.9-0.4c0.2-0.1,0.6-0.1,1.1-0.2c1-0.1,1.7-0.3,2.2-0.4c0-0.2,0-0.3,0-0.3
		c0-0.5-0.1-0.9-0.4-1.1c-0.3-0.3-0.8-0.4-1.4-0.4c-0.6,0-1,0.1-1.3,0.3c-0.3,0.2-0.5,0.6-0.6,1.1l-1.2-0.2c0.1-0.5,0.3-0.9,0.5-1.3
		s0.6-0.6,1.1-0.7c0.5-0.2,1-0.3,1.7-0.3c0.6,0,1.1,0.1,1.5,0.2c0.4,0.1,0.7,0.3,0.9,0.6s0.3,0.5,0.4,0.8c0,0.2,0.1,0.6,0.1,1.1v1.7
		c0,1.2,0,1.9,0.1,2.2s0.2,0.6,0.3,0.9h-1.3C302.7,220.2,302.6,219.9,302.6,219.6z M302.5,216.8c-0.5,0.2-1.1,0.3-2,0.5
		c-0.5,0.1-0.9,0.2-1.1,0.2c-0.2,0.1-0.4,0.2-0.5,0.4c-0.1,0.2-0.2,0.4-0.2,0.6c0,0.3,0.1,0.6,0.4,0.8s0.6,0.3,1.1,0.3
		c0.5,0,0.9-0.1,1.3-0.3c0.4-0.2,0.6-0.5,0.8-0.9c0.1-0.3,0.2-0.7,0.2-1.2V216.8z"/>
	<path d="M305.7,220.5v-7.3h1.1v1c0.2-0.4,0.5-0.6,0.9-0.9c0.4-0.2,0.8-0.3,1.3-0.3c0.5,0,1,0.1,1.3,0.3c0.3,0.2,0.6,0.5,0.7,0.9
		c0.6-0.9,1.3-1.3,2.3-1.3c0.7,0,1.3,0.2,1.7,0.6s0.6,1,0.6,1.9v5h-1.2v-4.6c0-0.5,0-0.9-0.1-1.1c-0.1-0.2-0.2-0.4-0.4-0.5
		c-0.2-0.1-0.5-0.2-0.7-0.2c-0.5,0-0.9,0.2-1.3,0.5c-0.3,0.3-0.5,0.9-0.5,1.7v4.3h-1.2v-4.8c0-0.6-0.1-1-0.3-1.2
		c-0.2-0.3-0.5-0.4-1-0.4c-0.4,0-0.7,0.1-1,0.3c-0.3,0.2-0.5,0.5-0.6,0.8s-0.2,0.9-0.2,1.5v3.8H305.7z"/>
	<path d="M317.5,211.8v-1.4h1.2v1.4H317.5z M317.5,220.5v-7.3h1.2v7.3H317.5z"/>
	<path d="M323.4,219.4l0.2,1.1c-0.4,0.1-0.7,0.1-0.9,0.1c-0.5,0-0.8-0.1-1.1-0.2c-0.2-0.1-0.4-0.3-0.5-0.6c-0.1-0.2-0.2-0.7-0.2-1.5
		v-4.2H320v-1h0.9v-1.8l1.2-0.7v2.6h1.3v1h-1.3v4.3c0,0.4,0,0.6,0.1,0.7s0.1,0.2,0.2,0.2c0.1,0.1,0.2,0.1,0.4,0.1
		C323,219.4,323.1,219.4,323.4,219.4z"/>
	<path d="M328.6,220.5v-10.1h1.3v5l5-5h1.8l-4.3,4.1l4.4,6h-1.8l-3.6-5.1L330,217v3.5H328.6z"/>
	<path d="M337.5,216.8c0-1.4,0.4-2.4,1.1-3c0.6-0.5,1.4-0.8,2.3-0.8c1,0,1.8,0.3,2.5,1c0.6,0.7,1,1.6,1,2.7c0,0.9-0.1,1.7-0.4,2.2
		c-0.3,0.5-0.7,1-1.2,1.3s-1.1,0.4-1.8,0.4c-1,0-1.9-0.3-2.5-1C337.8,219,337.5,218.1,337.5,216.8z M338.8,216.8
		c0,0.9,0.2,1.6,0.6,2.1c0.4,0.5,0.9,0.7,1.6,0.7c0.6,0,1.1-0.2,1.5-0.7s0.6-1.2,0.6-2.2c0-0.9-0.2-1.6-0.6-2.1
		c-0.4-0.5-0.9-0.7-1.5-0.7c-0.6,0-1.1,0.2-1.6,0.7C339,215.2,338.8,215.9,338.8,216.8z"/>
	<path d="M345.4,218.3l1.2-0.2c0.1,0.5,0.3,0.9,0.6,1.1c0.3,0.3,0.8,0.4,1.3,0.4c0.6,0,1-0.1,1.3-0.3c0.3-0.2,0.4-0.5,0.4-0.8
		c0-0.3-0.1-0.5-0.4-0.7c-0.2-0.1-0.6-0.3-1.3-0.4c-0.9-0.2-1.5-0.4-1.9-0.6c-0.4-0.2-0.6-0.4-0.8-0.7c-0.2-0.3-0.3-0.6-0.3-1
		c0-0.3,0.1-0.6,0.2-0.9c0.1-0.3,0.4-0.5,0.6-0.7c0.2-0.1,0.5-0.3,0.8-0.4c0.3-0.1,0.7-0.1,1.1-0.1c0.6,0,1.1,0.1,1.5,0.2
		s0.8,0.4,1,0.7c0.2,0.3,0.4,0.7,0.4,1.1l-1.2,0.2c-0.1-0.4-0.2-0.7-0.5-0.9c-0.3-0.2-0.6-0.3-1.1-0.3c-0.6,0-1,0.1-1.2,0.3
		c-0.2,0.2-0.4,0.4-0.4,0.7c0,0.2,0.1,0.3,0.2,0.4c0.1,0.1,0.3,0.2,0.5,0.3c0.1,0,0.5,0.2,1.1,0.3c0.9,0.2,1.5,0.4,1.8,0.6
		c0.3,0.2,0.6,0.4,0.8,0.7s0.3,0.6,0.3,1.1c0,0.4-0.1,0.8-0.4,1.2c-0.2,0.4-0.6,0.7-1,0.9c-0.5,0.2-1,0.3-1.6,0.3
		c-1,0-1.7-0.2-2.2-0.6S345.5,219.1,345.4,218.3z"/>
	<path d="M355.7,219.4l0.2,1.1c-0.4,0.1-0.7,0.1-0.9,0.1c-0.5,0-0.8-0.1-1.1-0.2c-0.2-0.1-0.4-0.3-0.5-0.6c-0.1-0.2-0.2-0.7-0.2-1.5
		v-4.2h-0.9v-1h0.9v-1.8l1.2-0.7v2.6h1.3v1h-1.3v4.3c0,0.4,0,0.6,0.1,0.7s0.1,0.2,0.2,0.2c0.1,0.1,0.2,0.1,0.4,0.1
		C355.3,219.4,355.4,219.4,355.7,219.4z"/>
	<path d="M361.9,218.1l1.3,0.2c-0.2,0.8-0.6,1.3-1.1,1.8c-0.5,0.4-1.3,0.6-2.1,0.6c-1.1,0-1.9-0.3-2.6-1s-0.9-1.6-0.9-2.8
		c0-1.2,0.3-2.2,1-2.9c0.6-0.7,1.5-1,2.5-1c1,0,1.8,0.3,2.4,1c0.6,0.7,0.9,1.6,0.9,2.8c0,0.1,0,0.2,0,0.3h-5.5
		c0,0.8,0.3,1.4,0.7,1.9c0.4,0.4,0.9,0.6,1.5,0.6c0.5,0,0.8-0.1,1.2-0.4C361.5,219,361.7,218.7,361.9,218.1z M357.8,216.1h4.1
		c-0.1-0.6-0.2-1.1-0.5-1.4c-0.4-0.5-0.9-0.7-1.5-0.7c-0.6,0-1.1,0.2-1.4,0.6C358.1,215,357.9,215.5,357.8,216.1z"/>
	<path d="M364.8,220.5v-7.3h1.1v1c0.5-0.8,1.3-1.2,2.3-1.2c0.4,0,0.9,0.1,1.2,0.2s0.6,0.4,0.8,0.6c0.2,0.3,0.3,0.6,0.4,0.9
		c0,0.2,0.1,0.6,0.1,1.2v4.5h-1.2V216c0-0.5,0-0.9-0.1-1.1c-0.1-0.3-0.3-0.5-0.5-0.6c-0.2-0.2-0.5-0.2-0.9-0.2c-0.5,0-1,0.2-1.4,0.5
		s-0.6,1-0.6,1.9v4H364.8z"/>
	<path d="M376.4,221.1l1.2,0.2c0.1,0.4,0.2,0.6,0.4,0.8c0.3,0.2,0.7,0.3,1.3,0.3c0.6,0,1-0.1,1.3-0.3c0.3-0.2,0.5-0.6,0.6-1
		c0.1-0.3,0.1-0.8,0.1-1.6c-0.5,0.6-1.2,1-2,1c-1,0-1.8-0.4-2.3-1.1c-0.6-0.7-0.8-1.6-0.8-2.6c0-0.7,0.1-1.3,0.4-1.9
		s0.6-1.1,1.1-1.4c0.5-0.3,1-0.5,1.7-0.5c0.9,0,1.6,0.4,2.1,1.1v-0.9h1.1v6.4c0,1.1-0.1,2-0.3,2.4c-0.2,0.5-0.6,0.9-1.1,1.1
		c-0.5,0.3-1.1,0.4-1.9,0.4c-0.9,0-1.6-0.2-2.1-0.6C376.6,222.5,376.4,221.9,376.4,221.1z M377.4,216.7c0,1,0.2,1.7,0.6,2.1
		s0.9,0.7,1.4,0.7c0.6,0,1.1-0.2,1.4-0.7c0.4-0.4,0.6-1.1,0.6-2.1c0-0.9-0.2-1.6-0.6-2c-0.4-0.5-0.9-0.7-1.4-0.7
		c-0.6,0-1,0.2-1.4,0.7C377.6,215.1,377.4,215.8,377.4,216.7z"/>
	<path d="M389.5,218.1l1.3,0.2c-0.2,0.8-0.6,1.3-1.1,1.8c-0.5,0.4-1.3,0.6-2.1,0.6c-1.1,0-1.9-0.3-2.6-1s-0.9-1.6-0.9-2.8
		c0-1.2,0.3-2.2,1-2.9c0.6-0.7,1.5-1,2.5-1c1,0,1.8,0.3,2.4,1c0.6,0.7,0.9,1.6,0.9,2.8c0,0.1,0,0.2,0,0.3h-5.5
		c0,0.8,0.3,1.4,0.7,1.9c0.4,0.4,0.9,0.6,1.5,0.6c0.5,0,0.8-0.1,1.2-0.4C389.1,219,389.3,218.7,389.5,218.1z M385.4,216.1h4.1
		c-0.1-0.6-0.2-1.1-0.5-1.4c-0.4-0.5-0.9-0.7-1.5-0.7c-0.6,0-1.1,0.2-1.4,0.6C385.7,215,385.5,215.5,385.4,216.1z"/>
	<path d="M392.3,220.5v-7.3h1.1v1.1c0.3-0.5,0.6-0.9,0.8-1s0.5-0.2,0.8-0.2c0.4,0,0.8,0.1,1.3,0.4l-0.4,1.2
		c-0.3-0.2-0.6-0.3-0.9-0.3c-0.3,0-0.5,0.1-0.7,0.2c-0.2,0.2-0.4,0.4-0.5,0.7c-0.1,0.4-0.2,0.9-0.2,1.5v3.8H392.3z"/>
	<path d="M397.1,211.8v-1.4h1.2v1.4H397.1z M397.1,220.5v-7.3h1.2v7.3H397.1z"/>
	<path d="M400.2,220.5v-7.3h1.1v1c0.5-0.8,1.3-1.2,2.3-1.2c0.4,0,0.9,0.1,1.2,0.2s0.6,0.4,0.8,0.6c0.2,0.3,0.3,0.6,0.4,0.9
		c0,0.2,0.1,0.6,0.1,1.2v4.5H405V216c0-0.5,0-0.9-0.1-1.1c-0.1-0.3-0.3-0.5-0.5-0.6c-0.2-0.2-0.5-0.2-0.9-0.2c-0.5,0-1,0.2-1.4,0.5
		s-0.6,1-0.6,1.9v4H400.2z"/>
	<path d="M407.9,221.1l1.2,0.2c0.1,0.4,0.2,0.6,0.4,0.8c0.3,0.2,0.7,0.3,1.3,0.3c0.6,0,1-0.1,1.3-0.3c0.3-0.2,0.5-0.6,0.6-1
		c0.1-0.3,0.1-0.8,0.1-1.6c-0.5,0.6-1.2,1-2,1c-1,0-1.8-0.4-2.3-1.1c-0.6-0.7-0.8-1.6-0.8-2.6c0-0.7,0.1-1.3,0.4-1.9
		s0.6-1.1,1.1-1.4c0.5-0.3,1-0.5,1.7-0.5c0.9,0,1.6,0.4,2.1,1.1v-0.9h1.1v6.4c0,1.1-0.1,2-0.3,2.4c-0.2,0.5-0.6,0.9-1.1,1.1
		c-0.5,0.3-1.1,0.4-1.9,0.4c-0.9,0-1.6-0.2-2.1-0.6C408.1,222.5,407.9,221.9,407.9,221.1z M408.9,216.7c0,1,0.2,1.7,0.6,2.1
		s0.9,0.7,1.4,0.7c0.6,0,1.1-0.2,1.4-0.7c0.4-0.4,0.6-1.1,0.6-2.1c0-0.9-0.2-1.6-0.6-2c-0.4-0.5-0.9-0.7-1.4-0.7
		c-0.6,0-1,0.2-1.4,0.7C409.1,215.1,408.9,215.8,408.9,216.7z"/>
	<path d="M421,218.1l1.3,0.2c-0.2,0.8-0.6,1.3-1.1,1.8c-0.5,0.4-1.3,0.6-2.1,0.6c-1.1,0-1.9-0.3-2.6-1s-0.9-1.6-0.9-2.8
		c0-1.2,0.3-2.2,1-2.9c0.6-0.7,1.5-1,2.5-1c1,0,1.8,0.3,2.4,1c0.6,0.7,0.9,1.6,0.9,2.8c0,0.1,0,0.2,0,0.3h-5.5
		c0,0.8,0.3,1.4,0.7,1.9c0.4,0.4,0.9,0.6,1.5,0.6c0.5,0,0.8-0.1,1.2-0.4C420.6,219,420.8,218.7,421,218.1z M416.9,216.1h4.1
		c-0.1-0.6-0.2-1.1-0.5-1.4c-0.4-0.5-0.9-0.7-1.5-0.7c-0.6,0-1.1,0.2-1.4,0.6C417.2,215,417,215.5,416.9,216.1z"/>
	<path d="M423.9,220.5v-7.3h1.1v1.1c0.3-0.5,0.6-0.9,0.8-1s0.5-0.2,0.8-0.2c0.4,0,0.8,0.1,1.3,0.4l-0.4,1.2
		c-0.3-0.2-0.6-0.3-0.9-0.3c-0.3,0-0.5,0.1-0.7,0.2c-0.2,0.2-0.4,0.4-0.5,0.7c-0.1,0.4-0.2,0.9-0.2,1.5v3.8H423.9z"/>
	<path d="M433.9,220.5l-2.2-7.3h1.3l1.2,4.2l0.4,1.6c0-0.1,0.1-0.6,0.4-1.5l1.2-4.3h1.3l1.1,4.3l0.4,1.4l0.4-1.4l1.3-4.2h1.2
		l-2.3,7.3h-1.3l-1.2-4.4l-0.3-1.3l-1.5,5.7H433.9z"/>
	<path d="M447.8,218.1l1.3,0.2c-0.2,0.8-0.6,1.3-1.1,1.8c-0.5,0.4-1.3,0.6-2.1,0.6c-1.1,0-1.9-0.3-2.6-1s-0.9-1.6-0.9-2.8
		c0-1.2,0.3-2.2,1-2.9c0.6-0.7,1.5-1,2.5-1c1,0,1.8,0.3,2.4,1c0.6,0.7,0.9,1.6,0.9,2.8c0,0.1,0,0.2,0,0.3h-5.5
		c0,0.8,0.3,1.4,0.7,1.9c0.4,0.4,0.9,0.6,1.5,0.6c0.5,0,0.8-0.1,1.2-0.4C447.4,219,447.6,218.7,447.8,218.1z M443.7,216.1h4.1
		c-0.1-0.6-0.2-1.1-0.5-1.4c-0.4-0.5-0.9-0.7-1.5-0.7c-0.6,0-1.1,0.2-1.4,0.6C444,215,443.8,215.5,443.7,216.1z"/>
	<path d="M450.6,220.5v-7.3h1.1v1.1c0.3-0.5,0.6-0.9,0.8-1s0.5-0.2,0.8-0.2c0.4,0,0.8,0.1,1.3,0.4l-0.4,1.2
		c-0.3-0.2-0.6-0.3-0.9-0.3c-0.3,0-0.5,0.1-0.7,0.2c-0.2,0.2-0.4,0.4-0.5,0.7c-0.1,0.4-0.2,0.9-0.2,1.5v3.8H450.6z"/>
	<path d="M460.1,220.5v-0.9c-0.5,0.7-1.2,1.1-2.1,1.1c-0.6,0-1.1-0.2-1.6-0.5c-0.5-0.3-0.9-0.8-1.1-1.4c-0.3-0.6-0.4-1.2-0.4-2
		c0-0.7,0.1-1.4,0.4-2c0.2-0.6,0.6-1.1,1.1-1.4s1-0.5,1.6-0.5c0.4,0,0.8,0.1,1.2,0.3c0.3,0.2,0.6,0.4,0.8,0.7v-3.6h1.2v10.1H460.1z
		 M456.2,216.8c0,0.9,0.2,1.6,0.6,2.1c0.4,0.5,0.9,0.7,1.4,0.7c0.5,0,1-0.2,1.4-0.7c0.4-0.4,0.6-1.1,0.6-2c0-1-0.2-1.7-0.6-2.2
		s-0.9-0.7-1.4-0.7c-0.6,0-1,0.2-1.4,0.7C456.4,215.1,456.2,215.9,456.2,216.8z"/>
	<path d="M468.3,218.1l1.3,0.2c-0.2,0.8-0.6,1.3-1.1,1.8c-0.5,0.4-1.3,0.6-2.1,0.6c-1.1,0-1.9-0.3-2.6-1s-0.9-1.6-0.9-2.8
		c0-1.2,0.3-2.2,1-2.9c0.6-0.7,1.5-1,2.5-1c1,0,1.8,0.3,2.4,1c0.6,0.7,0.9,1.6,0.9,2.8c0,0.1,0,0.2,0,0.3h-5.5
		c0,0.8,0.3,1.4,0.7,1.9c0.4,0.4,0.9,0.6,1.5,0.6c0.5,0,0.8-0.1,1.2-0.4C467.8,219,468.1,218.7,468.3,218.1z M464.2,216.1h4.1
		c-0.1-0.6-0.2-1.1-0.5-1.4c-0.4-0.5-0.9-0.7-1.5-0.7c-0.6,0-1.1,0.2-1.4,0.6C464.5,215,464.2,215.5,464.2,216.1z"/>
	<path d="M471.1,220.5v-7.3h1.1v1c0.5-0.8,1.3-1.2,2.3-1.2c0.4,0,0.9,0.1,1.2,0.2s0.6,0.4,0.8,0.6c0.2,0.3,0.3,0.6,0.4,0.9
		c0,0.2,0.1,0.6,0.1,1.2v4.5h-1.2V216c0-0.5,0-0.9-0.1-1.1c-0.1-0.3-0.3-0.5-0.5-0.6c-0.2-0.2-0.5-0.2-0.9-0.2c-0.5,0-1,0.2-1.4,0.5
		s-0.6,1-0.6,1.9v4H471.1z"/>
</g>
</svg>
